<svg id="Layer_1" data-name="Layer 1" xmlns="http://www.w3.org/2000/svg" viewBox="0 0 1280 618.7"><defs><style>.cls-1{fill:#69d337;}.cls-2{fill:#2d1400;}.cls-3{fill:#ffdc7b;}.cls-4{fill:#409911;}.cls-5{fill:#38840c;}.cls-6{fill:#b59e5b;}.cls-7,.cls-8{font-size:24px;font-family:Poppins-Black, Poppins;font-weight:800;}.cls-7{fill:#fff;}</style></defs><rect class="cls-1" width="1280" height="617.73"/><rect class="cls-2" x="1021.6" y="455.2" width="258.4" height="163.43"/><rect class="cls-3" x="909.9" y="502.1" width="67.5" height="95.01" rx="14.1"/><rect class="cls-3" x="793.3" y="481" width="67.5" height="95.01" rx="14.1"/><rect class="cls-3" x="677.6" y="478" width="67.5" height="95.01" rx="14.1"/><rect class="cls-3" x="554.2" y="477.4" width="67.5" height="95.01" rx="14.1"/><rect class="cls-3" x="469.5" y="477.4" width="67.5" height="95.01" rx="14.1"/><rect class="cls-3" x="346.1" y="476.1" width="67.5" height="95.01" rx="14.1"/><rect class="cls-3" x="264.7" y="476.1" width="67.5" height="95.01" rx="14.1"/><rect class="cls-3" x="142.9" y="478" width="67.5" height="95.01" rx="14.1"/><rect class="cls-3" x="61.4" y="478" width="67.5" height="95.01" rx="14.1"/><rect class="cls-3" x="664.9" y="38.5" width="67.5" height="95.01" rx="14.1"/><rect class="cls-3" x="554.2" y="37.8" width="67.5" height="95.01" rx="14.1"/><rect class="cls-3" x="469.5" y="37.8" width="67.5" height="95.01" rx="14.1"/><rect class="cls-3" x="346.1" y="37.8" width="67.5" height="95.01" rx="14.1"/><rect class="cls-3" x="264.7" y="37.8" width="67.5" height="95.01" rx="14.1"/><rect class="cls-3" x="142.9" y="37.8" width="67.5" height="95.01" rx="14.1"/><rect class="cls-3" x="61.4" y="37.8" width="67.5" height="95.01" rx="14.1"/><rect class="cls-3" x="745.1" y="37.2" width="67.5" height="95.01" rx="14.1"/><rect class="cls-3" x="860.9" y="37.2" width="67.5" height="95.01" rx="14.1"/><path class="cls-4" d="M198.5,908.9c3-6.6,10.4-4.4,16.7-11.3s2-12.6,7.7-18.4,18.9-7.5,26-2.4S252,889,260,896.5s12.6,4,16,9.9c4.6,7.9-2.1,19.2-2.9,20.5-4.6,7.4-11.4,10.4-16.4,12.6s-13.3,5.9-21.4,3.4-6.3-6.9-16-12.3-15.6-3.1-19.4-8.8C197.5,918.3,196.6,912.9,198.5,908.9Z" transform="translate(0 -406.6)"/><path class="cls-4" d="M610.4,930.4c3-6.6,10.4-4.3,16.7-11.3s1.9-12.5,7.7-18.3,18.8-7.6,25.9-2.5,3.2,12.2,11.1,19.8,12.7,3.9,16.1,9.8c4.5,8-2.2,19.2-3,20.5-4.5,7.4-11.3,10.4-16.3,12.6s-13.4,5.9-21.5,3.4-6.2-6.8-16-12.2-15.5-3.2-19.4-8.9A13.7,13.7,0,0,1,610.4,930.4Z" transform="translate(0 -406.6)"/><path class="cls-4" d="M469.5,894.8c2.5,6.7-4.3,10.4-3.8,19.7s7.6,10.3,7.6,18.5-7.9,18.7-16.5,20.1-10.9-6.3-21.8-6-11.8,6.2-18.3,4.4c-8.9-2.3-12.1-15-12.5-16.5-2.1-8.4.6-15.4,2.5-20.5s5.3-13.6,12.7-17.6,9.3.4,20-2.7,13.2-8.8,19.9-7.6C463.5,887.4,467.9,890.6,469.5,894.8Z" transform="translate(0 -406.6)"/><path class="cls-5" d="M198.5,956.4c3-6.6,10.4-4.4,16.7-11.3s2-12.5,7.7-18.4,18.9-7.5,26-2.4S252,936.5,260,944s12.6,4,16,9.9c4.6,7.9-2.1,19.2-2.9,20.5-4.6,7.4-11.4,10.4-16.4,12.6s-13.3,5.9-21.4,3.4-6.3-6.9-16-12.3-15.6-3.1-19.4-8.8C197.5,965.8,196.6,960.4,198.5,956.4Z" transform="translate(0 -406.6)"/><path class="cls-4" d="M796.4,487.7c3-6.5,10.4-4.3,16.6-11.2s2-12.6,7.8-18.4,18.8-7.5,25.9-2.4,3.2,12.2,11.1,19.7,12.7,4,16.1,9.9c4.5,7.9-2.2,19.2-3,20.5-4.5,7.4-11.3,10.4-16.3,12.6s-13.4,5.8-21.5,3.4-6.2-6.9-16-12.3-15.5-3.1-19.4-8.8A13.9,13.9,0,0,1,796.4,487.7Z" transform="translate(0 -406.6)"/><path class="cls-4" d="M672.2,462.5c2.5,6.7-4.3,10.4-3.8,19.7s7.5,10.3,7.6,18.5-7.9,18.7-16.5,20.1-10.9-6.3-21.8-6-11.8,6.2-18.3,4.5c-8.9-2.4-12.1-15.1-12.5-16.6-2.1-8.4.6-15.4,2.5-20.4s5.3-13.7,12.7-17.7,9.3.4,20-2.7,13.2-8.8,19.9-7.6C666.2,455.1,670.6,458.3,672.2,462.5Z" transform="translate(0 -406.6)"/><path class="cls-5" d="M398.6,487.7c3-6.5,10.5-4.3,16.7-11.2s2-12.6,7.7-18.4,18.9-7.5,26-2.4,3.2,12.2,11.1,19.7,12.7,4,16,9.9c4.6,7.9-2.1,19.2-2.9,20.5-4.6,7.4-11.4,10.4-16.4,12.6s-13.3,5.8-21.4,3.4-6.3-6.9-16-12.3-15.5-3.1-19.4-8.8A14.2,14.2,0,0,1,398.6,487.7Z" transform="translate(0 -406.6)"/><path class="cls-4" d="M398.6,532.9c3-6.5,10.5-4.3,16.7-11.2s2-12.6,7.7-18.4,18.9-7.6,26-2.5,3.2,12.2,11.1,19.8,12.7,3.9,16,9.9c4.6,7.9-2.1,19.1-2.9,20.5-4.6,7.4-11.4,10.4-16.4,12.5s-13.3,5.9-21.4,3.5-6.3-6.9-16-12.3-15.5-3.2-19.4-8.9A14,14,0,0,1,398.6,532.9Z" transform="translate(0 -406.6)"/><path class="cls-4" d="M198.5,487.7c3-6.5,10.4-4.3,16.7-11.2s2-12.6,7.7-18.4,18.9-7.5,26-2.4,3.1,12.2,11.1,19.7,12.6,4,16,9.9c4.6,7.9-2.1,19.2-2.9,20.5-4.6,7.4-11.4,10.4-16.4,12.6s-13.3,5.8-21.4,3.4-6.3-6.9-16-12.3-15.6-3.1-19.4-8.8C197.5,497.2,196.6,491.8,198.5,487.7Z" transform="translate(0 -406.6)"/><path class="cls-6" d="M1164.7,792.8a16.3,16.3,0,0,0-6.9-2.4c-2.4,0-5.1,1.4-5.6,3.8s2.1,6.1.6,8.7-2.6,2.1-3.1,3.6.3,2.8,1.2,3.9a13.8,13.8,0,0,0,10.9,5c2.3-.1,5.1-1.3,5.2-3.6s-1.2-3.8.1-4.9,2.1-.3,3.2-.5,3.1-2.5,2.9-4.5a9.8,9.8,0,0,0-2.7-5.1,35.7,35.7,0,0,0-5.5-4.8" transform="translate(0 -406.6)"/><path class="cls-6" d="M1165.4,791.5c-2.8-1.5-6-3.1-9.3-2.4s-5.2,2.6-5.4,5.4a10.5,10.5,0,0,0,.5,3.9c.3,1.1.9,2.6.3,3.8s-1.9,1.7-2.7,2.8a4.6,4.6,0,0,0-.4,4.1c1.1,2.9,4,5.1,6.6,6.3a13.8,13.8,0,0,0,8.5,1.3c2.6-.5,5.1-2.4,5-5.3a15.2,15.2,0,0,0-.3-2.1c-.1-.3-.3-1-.1-1.3s1.8,0,2.2-.1a5.8,5.8,0,0,0,2.2-.8c2.7-2.1,2.7-5.8,1.1-8.5s-4.9-5.8-7.8-7.9-3.1,1.4-1.5,2.6a30.6,30.6,0,0,1,5.9,5.5c1.1,1.5,2.6,4.4.5,5.8s-2.1.2-3,.4a3.3,3.3,0,0,0-2.5,2.3c-.5,1.8,1.3,4.4-.4,5.7s-4.5,1-6.5.5a12.8,12.8,0,0,1-6.1-3.9c-.6-.7-1.5-1.9-1-2.9s1.6-1.4,2.3-2.2,1.4-4,.8-6.2-1.3-4.7,1.3-5.9,5.9.4,8.3,1.7,3.2-1.7,1.5-2.6Z" transform="translate(0 -406.6)"/><path class="cls-6" d="M1174.6,814.5a5.3,5.3,0,0,1-.4,6.7c-1,1-2.4,1.5-3.5,2.3-3.1,2.1-4.6,6.7-2.7,9.9s3.8,3.3,6.1,4.2,5.3,1.7,7.4.2a7.1,7.1,0,0,0,2.2-3.2,28.6,28.6,0,0,0,2.7-7.4,21.2,21.2,0,0,0-1-9.9,5.8,5.8,0,0,0-.5-1.4,8,8,0,0,0-1.7-1.5,15.3,15.3,0,0,0-4-2.1,4.3,4.3,0,0,0-4.2,1.1" transform="translate(0 -406.6)"/><path class="cls-6" d="M1173.3,815.3a3.4,3.4,0,0,1,.7,3.1,4.5,4.5,0,0,1-2.4,2.8c-2.2,1.3-4,2.7-5,5a8.2,8.2,0,0,0-.4,6.7c.8,2.4,2.9,4,5.1,5.1a17.2,17.2,0,0,0,7.4,2.2c2.8-.1,4.7-1.7,6-4.1a36.3,36.3,0,0,0,3.2-8.5,22.3,22.3,0,0,0-.5-8.9,8.9,8.9,0,0,0-2-4.4,11.6,11.6,0,0,0-3.6-2.5c-2.5-1.4-5.7-1.7-7.9.5s.8,3.5,2.1,2.2,4-.4,5.6.6,1.8,1.1,2.2,2.1a20,20,0,0,1,1,3.7c.9,5.1-.5,9.9-3.1,14.3-1.3,2.2-3.3,2.2-5.5,1.6a15.2,15.2,0,0,1-5.7-2.8c-3-2.5-2-7,1-9.2s4.1-2.2,5.1-4.6a7.1,7.1,0,0,0-.7-6.5c-1.1-1.5-3.7,0-2.6,1.6Z" transform="translate(0 -406.6)"/><path class="cls-6" d="M1142.3,812.9a13.5,13.5,0,0,0,9.9,8.6c2.5.5,5.4.4,7.3,2.1a7,7,0,0,1,2.3,5.3,4.6,4.6,0,0,1-1.1,3.8,5.1,5.1,0,0,1-2.7.9c-2.5.4-5.3.8-7.4-.6s-2.3-2.7-3.5-3.9c-3.2-3.4-8.6-3.5-12.3-6.3a10.5,10.5,0,0,1-3.9-9.3,2.9,2.9,0,0,1,.7-1.8,3.4,3.4,0,0,1,1.5-.9c2-.7,4.1-1.4,6.1-1.1s4.1,2,4.1,4.1" transform="translate(0 -406.6)"/><path class="cls-6" d="M1140.8,813.3a15.5,15.5,0,0,0,10.6,9.6c2.4.6,5.9.2,7.6,2.3s2.3,5.1.6,6.4-2.8.7-3.9.8a7.4,7.4,0,0,1-3.9-.4,7.8,7.8,0,0,1-2.5-2.6,14.8,14.8,0,0,0-2.8-2.8c-4.1-2.8-10.1-2.8-12.9-7.4a8.9,8.9,0,0,1-1.2-3.9,4.1,4.1,0,0,1,.1-2.2c.3-.8,1.1-.9,1.9-1.2a8.8,8.8,0,0,1,4.8-.6,3,3,0,0,1,2.6,2.5c.1,1.9,3.1,1.9,3,0s-3.1-5.4-6.2-5.6a12.4,12.4,0,0,0-5.4,1c-1.6.6-3,1.2-3.5,2.9s0,6.8,1.8,9.3,4.6,4.1,7.7,5.2,5.7,2,7.7,4.5,1.9,2.7,3.4,3.4a9.1,9.1,0,0,0,4.6,1c3.1-.1,7.1-.5,8.2-4a9.6,9.6,0,0,0-2.1-8.6c-2.7-2.8-6.8-2.1-10.1-3.3a12.3,12.3,0,0,1-7.2-7.1c-.7-1.8-3.6-1-2.9.8Z" transform="translate(0 -406.6)"/><path class="cls-6" d="M1128.8,798.5a31.1,31.1,0,0,0,6.5,3.9,10.5,10.5,0,0,0,7.4.5,3.7,3.7,0,0,0,1.6-.9,4.2,4.2,0,0,0,.9-1.6,20,20,0,0,0,1.3-6.8c0-1.3-.1-2.8.8-3.8s2.8-1.4,3.1-2.9-.7-2-1.6-2.7a10.7,10.7,0,0,0-4.4-2.5c-3.4-.8-7,1.4-8.8,4.5a20.7,20.7,0,0,0-1.5,3.4,57.1,57.1,0,0,1-4.7,8.8" transform="translate(0 -406.6)"/><path class="cls-6" d="M1128.1,799.8c4.1,3,8.9,6,14.3,4.8a6.7,6.7,0,0,0,2.9-1.5,7.3,7.3,0,0,0,1.7-3.4,31.4,31.4,0,0,0,1-7.4,2.5,2.5,0,0,1,1.3-2.2,6.5,6.5,0,0,0,2.2-1.8c1.4-2.3-.5-4.4-2.2-5.7s-4-2.6-6.4-2.5a10,10,0,0,0-6.3,2.5c-2.1,1.9-3.1,4.4-4.2,7a52.5,52.5,0,0,1-4.3,8.1c-1,1.6,1.5,3.1,2.6,1.5s2.3-3.9,3.3-5.9,1.7-4.1,2.7-6,5.5-5.4,9-3.5c.7.4,3.8,2.2,3,3.1s-1.1.7-1.6,1.1a4.6,4.6,0,0,0-1.7,2.2c-.7,1.9-.3,4-.6,5.9a18.7,18.7,0,0,1-.8,3.2c-.3.8-.5,1.6-1.3,2s-4.8.6-6.8-.3a31.1,31.1,0,0,1-6.3-3.8c-1.6-1.1-3.1,1.5-1.5,2.6Z" transform="translate(0 -406.6)"/><path class="cls-6" d="M1142.4,835.6a18.6,18.6,0,0,0,16.7,7,10.1,10.1,0,0,1,3-.1c2.7.5,3.9,3.6,4.5,6.2a4.4,4.4,0,0,1-.1,2.8c-.7,1.7-2.8,2.1-4.7,2.3a14.9,14.9,0,0,1-6.3-.4,4.3,4.3,0,0,0-1.6-.5c-2.2-.1-3.2,2.9-5.1,4s-5.2-.5-6.4-2.7-1.4-5-2.2-7.4-1.3-3.1-1.9-4.7a5.2,5.2,0,0,1-.1-3.7,2.3,2.3,0,0,1,3-1.2" transform="translate(0 -406.6)"/><path class="cls-6" d="M1141.3,836.7a20,20,0,0,0,12.3,7.2,14.6,14.6,0,0,0,3.6.3c1.4,0,2.7-.4,4-.3s3.2,2.4,3.7,4.3.7,2.2.1,3-1.9.9-2.8,1.1a26.7,26.7,0,0,1-4,.1c-1.5-.1-2.8-.9-4.3-1s-3.4,1.7-4.7,3.1a2.8,2.8,0,0,1-2.1,1.3,3.6,3.6,0,0,1-2.7-1.5c-2-2.2-1.9-5.7-2.9-8.4a36.6,36.6,0,0,1-1.8-4.6,3.8,3.8,0,0,1-.2-2.1c.1-.3.6-.9,1-.7s3.2-1.7,1.5-2.6-5.6,1.2-5.6,4.1a13.7,13.7,0,0,0,1.3,4.5,28.1,28.1,0,0,1,1.8,5.6c.7,2.9,1.6,5.9,4.2,7.6a5.5,5.5,0,0,0,7.3-.7,24.1,24.1,0,0,1,2.1-2.4c.6-.3,1-.1,1.6.1a10.9,10.9,0,0,0,3,.7,25.7,25.7,0,0,0,4.8-.2,8.1,8.1,0,0,0,3.9-1.2c2.6-1.8,2-5.3,1-7.9s-2.8-5-5.7-5.2-3.5.4-5.2.3a15.1,15.1,0,0,1-4.8-.8,18,18,0,0,1-8.3-5.8c-1.2-1.6-3.3.6-2.1,2.1Z" transform="translate(0 -406.6)"/><path class="cls-6" d="M1124.4,728.1c-2.2-1.1-4.5-2.3-6.9-2.3s-5.1,1.4-5.6,3.8,2.1,6.1.6,8.7-2.6,2.1-3.1,3.6.3,2.8,1.2,3.9a13.9,13.9,0,0,0,10.9,5c2.3-.1,5.1-1.3,5.3-3.6s-1.3-3.8,0-4.9,2.1-.3,3.2-.5,3.1-2.5,2.9-4.5a9.8,9.8,0,0,0-2.7-5.1,42.8,42.8,0,0,0-5.5-4.9" transform="translate(0 -406.6)"/><path class="cls-6" d="M1125.1,726.8c-2.8-1.5-6-3-9.3-2.3s-5.2,2.6-5.4,5.4a10.5,10.5,0,0,0,.5,3.9c.3,1.1.9,2.6.3,3.8s-1.9,1.7-2.7,2.7a4.8,4.8,0,0,0-.4,4.2c1.1,2.8,4,5.1,6.6,6.3a14.6,14.6,0,0,0,8.5,1.3c2.6-.5,5.1-2.4,5.1-5.3-.1-.7-.3-1.4-.4-2.2s-.3-.9-.1-1.2,1.8-.1,2.2-.1a4.7,4.7,0,0,0,2.2-.9c2.7-2,2.7-5.7,1.2-8.4s-5-5.8-7.9-8-3.1,1.5-1.5,2.6a34.7,34.7,0,0,1,5.9,5.6c1.1,1.5,2.6,4.4.5,5.8s-2.1.2-3,.4a3.3,3.3,0,0,0-2.5,2.3c-.5,1.8,1.3,4.3-.4,5.7s-4.5,1-6.4.5a12.7,12.7,0,0,1-6.2-3.9c-.6-.7-1.5-1.9-1-2.9s1.6-1.4,2.3-2.2,1.4-4,.8-6.2-1.3-4.7,1.3-6,5.9.5,8.3,1.7,3.2-1.7,1.5-2.6Z" transform="translate(0 -406.6)"/><path class="cls-6" d="M1134.3,749.9a5.3,5.3,0,0,1-.4,6.7,30.3,30.3,0,0,1-3.5,2.3c-3.1,2.1-4.6,6.7-2.7,9.9s3.8,3.3,6.1,4.2,5.3,1.7,7.4.2a7.1,7.1,0,0,0,2.2-3.2,28.6,28.6,0,0,0,2.7-7.4,22.2,22.2,0,0,0-.9-9.9l-.6-1.4a6.1,6.1,0,0,0-1.7-1.5,12.8,12.8,0,0,0-4-2.1,4.3,4.3,0,0,0-4.2,1.1" transform="translate(0 -406.6)"/><path class="cls-6" d="M1133,750.6a3.7,3.7,0,0,1,.7,3.2,4.5,4.5,0,0,1-2.4,2.8c-2.2,1.3-4,2.7-5,5a8.2,8.2,0,0,0-.4,6.7,9.8,9.8,0,0,0,5.1,5.1,17.2,17.2,0,0,0,7.4,2.2c2.8-.1,4.7-1.7,6-4.2a30.4,30.4,0,0,0,3.2-8.4,22.2,22.2,0,0,0-.5-8.9c-.4-1.6-.8-3.3-2-4.4a11.6,11.6,0,0,0-3.6-2.5c-2.5-1.4-5.7-1.7-7.9.5s.8,3.5,2.1,2.1,4-.3,5.6.7,1.8,1.1,2.2,2.1a21.2,21.2,0,0,1,1,3.6c1,5.1-.5,10-3.1,14.4-1.2,2.2-3.3,2.2-5.5,1.5a14.6,14.6,0,0,1-5.6-2.7c-3.1-2.5-2.1-7.1.9-9.2s4.1-2.2,5.1-4.7a6.9,6.9,0,0,0-.7-6.4c-1.1-1.6-3.7-.1-2.6,1.5Z" transform="translate(0 -406.6)"/><path class="cls-6" d="M1102,748.3a13.5,13.5,0,0,0,9.9,8.6c2.5.5,5.4.4,7.4,2.1a7.2,7.2,0,0,1,2.2,5.3,4.6,4.6,0,0,1-1.1,3.8,6.2,6.2,0,0,1-2.7.9c-2.5.4-5.3.8-7.4-.7s-2.3-2.6-3.5-3.9c-3.2-3.3-8.6-3.5-12.3-6.3a10.4,10.4,0,0,1-3.9-9.3,2.8,2.8,0,0,1,.7-1.7,3.4,3.4,0,0,1,1.5-.9c2-.7,4.1-1.4,6.1-1.1s4.1,2,4.1,4.1" transform="translate(0 -406.6)"/><path class="cls-6" d="M1100.5,748.7a15.5,15.5,0,0,0,10.6,9.6c2.4.5,5.9.2,7.6,2.2s2.3,5.2.6,6.5-2.8.7-3.9.8a6.5,6.5,0,0,1-3.9-.5,6.7,6.7,0,0,1-2.5-2.5,12.4,12.4,0,0,0-2.8-2.8c-4.1-2.8-10.1-2.8-12.9-7.4a8.9,8.9,0,0,1-1.2-3.9,5.5,5.5,0,0,1,.1-2.2c.3-.8,1.1-.9,1.9-1.2a9.9,9.9,0,0,1,4.8-.7,3.2,3.2,0,0,1,2.6,2.6c.1,1.9,3.1,1.9,3,0s-3.1-5.4-6.2-5.6a12.4,12.4,0,0,0-5.4,1c-1.6.5-3,1.2-3.5,2.9s0,6.7,1.8,9.2,4.6,4.1,7.7,5.3,5.7,2,7.7,4.5a11,11,0,0,0,3.4,3.4,9.1,9.1,0,0,0,4.6,1c3.1-.1,7.1-.5,8.2-4a9.6,9.6,0,0,0-2.1-8.6c-2.7-2.8-6.8-2.1-10.1-3.3a12.3,12.3,0,0,1-7.2-7.1c-.7-1.8-3.6-1-2.9.8Z" transform="translate(0 -406.6)"/><path class="cls-6" d="M1088.5,733.9a31.1,31.1,0,0,0,6.5,3.9,10.5,10.5,0,0,0,7.4.5,3.7,3.7,0,0,0,1.6-.9,4.2,4.2,0,0,0,.9-1.6,20,20,0,0,0,1.3-6.8c0-1.3-.1-2.8.8-3.8s2.8-1.5,3.1-2.9-.7-2.1-1.6-2.8a12.2,12.2,0,0,0-4.3-2.4c-3.5-.8-7.1,1.4-8.9,4.5a17.5,17.5,0,0,0-1.5,3.4,57.1,57.1,0,0,1-4.7,8.8" transform="translate(0 -406.6)"/><path class="cls-6" d="M1087.8,735.2c4.1,3,8.9,6,14.3,4.8a6.7,6.7,0,0,0,2.9-1.5,7.3,7.3,0,0,0,1.7-3.4,31.5,31.5,0,0,0,1-7.5,2.4,2.4,0,0,1,1.3-2.1,5.7,5.7,0,0,0,2.2-1.9c1.4-2.2-.5-4.3-2.2-5.6s-4-2.6-6.4-2.5a10,10,0,0,0-6.3,2.5c-2.1,1.9-3,4.4-4.1,7a63.5,63.5,0,0,1-4.4,8.1c-1,1.6,1.6,3.1,2.6,1.5s2.3-3.9,3.3-5.9,1.7-4.1,2.7-6.1,5.5-5.3,9-3.4c.7.4,3.8,2.1,3.1,3.1s-1.2.7-1.7,1.1a4.1,4.1,0,0,0-1.7,2.2c-.7,1.9-.3,4-.6,5.9a17.7,17.7,0,0,1-.8,3.1,2.8,2.8,0,0,1-1.3,2.1c-2.1,1.1-4.8.5-6.8-.3a31.1,31.1,0,0,1-6.3-3.8c-1.6-1.1-3.1,1.5-1.5,2.6Z" transform="translate(0 -406.6)"/><path class="cls-6" d="M1102.1,771a18.6,18.6,0,0,0,16.7,7,15.1,15.1,0,0,1,3-.2c2.7.6,3.9,3.6,4.5,6.3a5.3,5.3,0,0,1,0,2.8c-.7,1.7-2.9,2.1-4.8,2.3a14.3,14.3,0,0,1-6.2-.4,5.5,5.5,0,0,0-1.7-.5c-2.2-.2-3.2,2.8-5.1,3.9s-5.2-.4-6.4-2.7-1.4-4.9-2.2-7.4-1.3-3.1-1.9-4.7a5,5,0,0,1-.1-3.6,2.3,2.3,0,0,1,3-1.2" transform="translate(0 -406.6)"/><path class="cls-6" d="M1101,772.1a20,20,0,0,0,12.3,7.2,22.2,22.2,0,0,0,3.7.3c1.3,0,2.6-.4,4-.3s3.1,2.4,3.6,4.3.7,2.2.1,3-1.9.9-2.8,1a17.9,17.9,0,0,1-4,.2c-1.5-.1-2.8-1-4.3-1s-3.4,1.7-4.7,3.1a2.8,2.8,0,0,1-2.1,1.3,3.6,3.6,0,0,1-2.7-1.5c-2-2.2-1.9-5.7-2.9-8.4a38,38,0,0,1-1.8-4.7,3.5,3.5,0,0,1-.2-2c.1-.3.6-.9,1-.7s3.2-1.7,1.5-2.6-5.6,1.2-5.6,4.1a13.7,13.7,0,0,0,1.3,4.5,26.2,26.2,0,0,1,1.8,5.6c.7,2.9,1.6,5.8,4.2,7.6a5.6,5.6,0,0,0,7.3-.7,16.4,16.4,0,0,1,2.1-2.4c.6-.4,1-.1,1.7.1a13.7,13.7,0,0,0,2.9.7,25.7,25.7,0,0,0,4.8-.2,9.3,9.3,0,0,0,3.9-1.2c2.6-1.8,2-5.3,1-8s-2.8-4.9-5.7-5.1-3.5.4-5.2.3a15.6,15.6,0,0,1-4.8-.8,18.2,18.2,0,0,1-8.3-5.9c-1.2-1.5-3.3.7-2.1,2.2Z" transform="translate(0 -406.6)"/><path class="cls-6" d="M1041.1,680.5c-2.3.8-4.7,1.7-6.4,3.5s-2.4,4.7-1,6.6,5.9,2.7,6.8,5.5-.2,3.4.5,4.8a4.3,4.3,0,0,0,3.7,1.7,13.9,13.9,0,0,0,11.1-4.6c1.5-1.7,2.5-4.6.9-6.3s-3.6-1.6-3.5-3.3,1.2-1.8,1.8-2.7.2-4-1.3-5.2-3.7-1.4-5.6-1.5a35.4,35.4,0,0,0-7.3.7" transform="translate(0 -406.6)"/><path class="cls-6" d="M1040.7,679.1c-3,1-6.2,2.3-8,5s-1.8,5.8.3,8a9.4,9.4,0,0,0,2.9,2,9,9,0,0,1,2.8,1.8c.9,1.1.4,2.7.5,4a4.5,4.5,0,0,0,2.5,3.5c2.6,1.3,6.1.8,8.8-.1a13.9,13.9,0,0,0,7.2-5.4c1.6-2.3,2-5.7-.4-7.6a5.6,5.6,0,0,0-1.5-1c-.2-.1-1.1-.5-1.1-.8s.5-.8.7-1.1a4.1,4.1,0,0,0,1.2-1.7c1.3-3.2-1.2-6.4-4.1-7.5s-8.3-.7-12.1.1c-1.9.3-1.1,3.2.8,2.9a24.9,24.9,0,0,1,9-.5c1.7.3,4.9,2,3.5,4.2s-1.5,1.4-1.9,2.5a3.3,3.3,0,0,0,.6,3c1,1.3,3.9,1.8,3.6,3.8s-2.5,4.2-4.4,5.3a12.1,12.1,0,0,1-7.2,1.6c-1.1-.1-2.1-.4-2.2-1.6s.1-2.5-.2-3.8-2.4-3.1-4.2-4-4-2.1-3.1-4.7,4.2-4.1,6.8-5,1.1-3.6-.8-2.9Z" transform="translate(0 -406.6)"/><path class="cls-6" d="M1063.8,688a5.3,5.3,0,0,1,4.6,4.9,19.3,19.3,0,0,1-.6,4.1c-.6,3.7,1.7,8,5.4,8.7s5-.5,7.2-1.6,4.9-2.7,5.2-5.3a8.5,8.5,0,0,0-.9-3.8,27,27,0,0,0-3.5-7,22.4,22.4,0,0,0-7.9-6l-1.5-.5a4.2,4.2,0,0,0-2.2.2,13,13,0,0,0-4.3,1.5,4.3,4.3,0,0,0-2,3.8" transform="translate(0 -406.6)"/><path class="cls-6" d="M1063.4,689.5c2.7.3,3.8,2.6,3.3,5.1s-.8,4.7.2,7.1a8.5,8.5,0,0,0,4.4,4.9c2.7,1.3,5.6.7,8.3-.5a15.8,15.8,0,0,0,6.2-4c1.8-2.3,1.4-4.9.4-7.5a34.1,34.1,0,0,0-3.9-7.6,21.3,21.3,0,0,0-6.1-5.1,10.2,10.2,0,0,0-4.4-1.9,12,12,0,0,0-4.6.7c-2.8.9-5.6,3-5.4,6.3s3.1,2,3,0,2.5-3.2,4.4-3.7a4.7,4.7,0,0,1,3.3,0,20.2,20.2,0,0,1,3.2,1.8,15.7,15.7,0,0,1,4.9,4.7,31.1,31.1,0,0,1,3,6.4,4,4,0,0,1,.3,3.2,5.2,5.2,0,0,1-1.8,2.1,18,18,0,0,1-6.2,2.7c-4.1.8-7-2.8-6.7-6.7s1.2-4.6.1-7.1a6.7,6.7,0,0,0-5.1-3.8,1.4,1.4,0,0,0-1.8,1,1.6,1.6,0,0,0,1,1.9Z" transform="translate(0 -406.6)"/><path class="cls-6" d="M1040.7,710.7a13.7,13.7,0,0,0,13-1.5c2.1-1.4,4-3.6,6.5-3.9a7,7,0,0,1,5.5,1.9,5.1,5.1,0,0,1,2,3.4,6,6,0,0,1-1.1,2.6c-1.4,2.1-3.1,4.4-5.6,5s-3.5-.1-5.2-.1c-4.7.1-8.4,3.9-13,4.7a10.1,10.1,0,0,1-9.4-3.4,3.2,3.2,0,0,1-.9-1.7,3.9,3.9,0,0,1,.4-1.8,12.1,12.1,0,0,1,3.4-5.2c1.6-1.2,4.2-1.6,5.7-.2" transform="translate(0 -406.6)"/><path class="cls-6" d="M1040.3,712.1a15.2,15.2,0,0,0,14.8-2c1.8-1.4,3.7-3.6,6.1-3.4s5.8,2.3,4.7,4.7-2.8,4.6-4.9,5.3a11.3,11.3,0,0,1-4.1,0,11.2,11.2,0,0,0-4.1.4c-4.7,1.4-8.8,5.5-14,4a8,8,0,0,1-3.6-2c-.6-.5-1.3-1.1-1.2-1.9a11.9,11.9,0,0,1,.8-2,7.7,7.7,0,0,1,2.7-3.5,3.2,3.2,0,0,1,3.5-.1c1.4,1.2,3.6-.9,2.1-2.2a6.4,6.4,0,0,0-8.2.5,12.6,12.6,0,0,0-2.7,3.8c-.7,1.6-1.6,3.3-.9,5.1s4.6,4.8,7.4,5.4,6.3-.2,9.2-1.6,5.7-3.2,9.2-2.9a14.8,14.8,0,0,0,4.7-.1,8.6,8.6,0,0,0,3.8-2.7c2-2.2,4.6-5.4,3.1-8.4a9.4,9.4,0,0,0-8.1-4.8c-3.7.2-5.9,3.4-9,5.1a12.4,12.4,0,0,1-10.5.4c-1.8-.7-2.6,2.2-.8,2.9Z" transform="translate(0 -406.6)"/><path class="cls-6" d="M1021,710.7a28.5,28.5,0,0,0,7.2-2.1,10.2,10.2,0,0,0,5.4-5,4.1,4.1,0,0,0,.5-1.8,6.4,6.4,0,0,0-.6-1.8,18.8,18.8,0,0,0-4.1-5.6c-1-.9-2.1-1.8-2.3-3.2s.9-3,.1-4.2-2.1-.8-3.2-.7a11.4,11.4,0,0,0-4.7,1.6c-2.9,1.9-3.8,6.1-2.8,9.5.4,1.1,1,2.3,1.5,3.4a53.4,53.4,0,0,1,3.3,9.5" transform="translate(0 -406.6)"/><path class="cls-6" d="M1021.4,712.2c4.9-1,10.3-2.4,13.1-7a8.4,8.4,0,0,0,1.1-3,7.7,7.7,0,0,0-1.2-3.7,25.6,25.6,0,0,0-4.6-5.8,2.6,2.6,0,0,1-1.1-2.7,4.5,4.5,0,0,0-.1-3.4c-1.1-2.2-3.8-2-5.8-1.6a9.7,9.7,0,0,0-6,3.1,10,10,0,0,0-2.2,5.9c-.1,2.8,1,5.1,2.1,7.6a54.4,54.4,0,0,1,3.2,9.1c.4,1.8,3.3,1,2.9-.8s-1.3-4.4-2.1-6.5-1.9-4-2.6-6-.4-7.3,2.9-8.7a6.9,6.9,0,0,1,2.8-.8c.5-.1,1.8-.5,2.2.1s-.3,1.9-.4,2.5a5.4,5.4,0,0,0,.7,2.7c.9,1.6,2.6,2.8,3.8,4.3s3,3.6,2.2,5.3c-1.8,4.5-7.5,5.6-11.7,6.5-1.9.4-1.1,3.3.8,2.9Z" transform="translate(0 -406.6)"/><path class="cls-6" d="M1057.4,726a18.7,18.7,0,0,0,16.5-7.5,10.6,10.6,0,0,1,1.9-2.3c2.2-1.6,5.3-.4,7.7,1a5.2,5.2,0,0,1,2,1.9c.8,1.7-.4,3.6-1.6,5a14.5,14.5,0,0,1-4.5,4.4,4.4,4.4,0,0,0-1.5.8c-1.6,1.6-.1,4.3-.6,6.5s-3.8,3.5-6.3,2.8-4.6-2.3-6.9-3.4-3.2-1.1-4.7-1.8a5.1,5.1,0,0,1-2.8-2.4,2.3,2.3,0,0,1,1.2-3.1" transform="translate(0 -406.6)"/><path class="cls-6" d="M1057.4,727.5a19.9,19.9,0,0,0,13.7-4.1,15.5,15.5,0,0,0,2.7-2.4c.8-.9,1.5-2,2.3-2.9s4.4-.9,6.3.2,1.9,1.1,1.8,2.3-1.3,2.4-2.1,3.4a12.3,12.3,0,0,1-2.5,2.6c-.9.7-2.1,1-3,1.9s-.5,4.2-.7,6.4-2.4,2.6-4.1,2.4-5.2-2.7-7.7-3.7-3.2-1.1-4.7-1.9a2.8,2.8,0,0,1-1.3-1.1c-.2-.3-.3-1,.1-1.2s1-3.6-.8-2.9-3.1,4.7-1,6.7a10.2,10.2,0,0,0,3.8,2.1,42.3,42.3,0,0,1,5.3,2.3c2.5,1.5,5,3,8,2.6s5.1-2,5.4-4.8a25.3,25.3,0,0,0-.3-3.8,1.5,1.5,0,0,1,.6-1.4c.7-.5,1.6-.8,2.3-1.3a22,22,0,0,0,3-3.1,12.2,12.2,0,0,0,2.5-4.1c1-3.4-1.7-5.4-4.5-6.7s-6-1.7-8.3.7-1.9,2.6-3.1,3.8a16.5,16.5,0,0,1-3.9,2.9,16.8,16.8,0,0,1-9.8,2.1c-1.9-.1-1.9,2.9,0,3Z" transform="translate(0 -406.6)"/><path class="cls-6" d="M959.1,697.2c-1.9,1.5-3.9,3-4.9,5.3s-.8,5.2,1.1,6.6,6.5.6,8.2,3,.9,3.3,2.1,4.4,2.6.8,4,.5a13.9,13.9,0,0,0,9-7.9c.9-2.2,1-5.2-1.1-6.3s-4-.4-4.5-2.1.6-2,.9-3.1-1-3.9-2.9-4.5a9.6,9.6,0,0,0-5.8.4,39.3,39.3,0,0,0-6.6,3" transform="translate(0 -406.6)"/><path class="cls-6" d="M958.1,696.1c-2.4,1.9-5,4.1-5.8,7.2a6.7,6.7,0,0,0,2.5,7.3,9.4,9.4,0,0,0,3.7,1.1c1.1.2,2.5.2,3.4.9s1.1,2.2,1.5,3.3a4.4,4.4,0,0,0,3.3,2.7c2.9.6,6.2-1.1,8.5-2.8a15.3,15.3,0,0,0,5.1-6.9c.8-2.4.6-5.8-1.8-7.3a20.1,20.1,0,0,0-3.5-1c-.4-.2-.4-.1-.5-.5a3,3,0,0,1,.4-1,7.8,7.8,0,0,0,.5-1.4c.7-3.8-3.1-6.4-6.4-6.4s-7.9,2-11.2,3.9a1.5,1.5,0,0,0,1.5,2.6,26.6,26.6,0,0,1,8.2-3.3,4.8,4.8,0,0,1,3.7.4,2.2,2.2,0,0,1,1.1,2.8c-.5,1.2-1.1,2.2-.7,3.4a3.3,3.3,0,0,0,2.3,2.3c.9.3,1.8.3,2.6.6s1.2,1.3,1.2,2.3c-.1,4.5-5.1,8.7-9.2,9.4-1.2.2-2-.1-2.4-1.2a10.7,10.7,0,0,0-1.3-3.1c-1.2-1.9-3.4-2.3-5.5-2.6s-2.5-.3-3.4-1.2a3.8,3.8,0,0,1-.8-3c.3-2.8,3-4.8,5.1-6.4s-.6-3.3-2.1-2.1Z" transform="translate(0 -406.6)"/><path class="cls-6" d="M983,697a5.3,5.3,0,0,1,5.9,3.2,27,27,0,0,1,.8,4.1c.6,3.7,4.2,6.9,7.9,6.5s4.5-2.1,6.3-3.9,3.8-4.1,3.2-6.6a7,7,0,0,0-2-3.4,26,26,0,0,0-5.6-5.4,22.4,22.4,0,0,0-9.4-3.2h-1.6a12.1,12.1,0,0,0-2,.9,14.3,14.3,0,0,0-3.6,2.9,4.1,4.1,0,0,0-.7,4.2" transform="translate(0 -406.6)"/><path class="cls-6" d="M983.4,698.4c2.5-.4,4.2,1.6,4.5,3.8a15.9,15.9,0,0,0,.7,3.8,9.5,9.5,0,0,0,8,6.3c2.6.1,5-1.3,6.9-2.9s4.1-3.8,4.9-6.4-.5-5.1-2.2-7.1a27.1,27.1,0,0,0-6.3-5.9,21,21,0,0,0-7.8-2.9,10.4,10.4,0,0,0-4.3-.2A10.9,10.9,0,0,0,984,689c-2.4,1.7-4.5,4.6-3.3,7.6s3.6,1,2.9-.8,1.4-4,3.1-5a4.3,4.3,0,0,1,2.8-1.1,19.7,19.7,0,0,1,3.5.7,16.3,16.3,0,0,1,6.3,2.8,30.2,30.2,0,0,1,5,5.1,4.4,4.4,0,0,1,1.4,2.8,4.8,4.8,0,0,1-1.3,3.1,16.2,16.2,0,0,1-5,4.4c-3.9,2.1-7.8-1.2-8.4-5.2-.3-2.3-.4-4.5-2.3-6.2a7.1,7.1,0,0,0-6.1-1.7c-1.8.4-1,3.3.8,2.9Z" transform="translate(0 -406.6)"/><path class="cls-6" d="M968.3,725.9a13.7,13.7,0,0,0,11.9-5.6c1.6-2,2.6-4.7,4.9-5.8a7.3,7.3,0,0,1,5.8.1,4.6,4.6,0,0,1,3,2.6,5.4,5.4,0,0,1-.2,2.8c-.7,2.4-1.5,5.2-3.7,6.5s-3.3,1-5,1.6c-4.3,1.6-6.7,6.4-10.7,8.6a10.4,10.4,0,0,1-10.1-.3,2.9,2.9,0,0,1-1.4-1.3,5.2,5.2,0,0,1-.2-1.8c.2-2.1.4-4.2,1.6-6s3.4-2.9,5.4-2" transform="translate(0 -406.6)"/><path class="cls-6" d="M968.3,727.4a15.4,15.4,0,0,0,13.4-6.6c1.3-1.8,2.3-4.5,4.6-5.2s6.6.3,6.2,3-1.3,5.5-3.4,6.7a15.8,15.8,0,0,1-3.7,1.1,14.9,14.9,0,0,0-3.6,1.7c-3.9,2.8-6.5,7.8-11.6,8.2a8.2,8.2,0,0,1-4.4-.7c-.6-.3-1.4-.6-1.7-1.2a8.9,8.9,0,0,1,.1-2.3c.3-2.5,1.7-6.6,5-5.4,1.8.7,2.5-2.2.7-2.9s-6.1.8-7.4,3.5a14.2,14.2,0,0,0-1.3,5c-.1,1.7-.2,3.4,1.1,4.6s6.2,2.8,9.2,2.3,5.6-2.5,7.8-4.7,4.1-4.5,7.1-5.2a15.4,15.4,0,0,0,4.8-1.8,8,8,0,0,0,2.7-3.6c1.3-2.7,2.7-6.7.2-9.2a9.5,9.5,0,0,0-9.3-1.7c-3.4,1.4-4.4,5.1-6.7,7.6a12.8,12.8,0,0,1-9.8,3.8c-1.9-.2-1.9,2.8,0,3Z" transform="translate(0 -406.6)"/><path class="cls-6" d="M949.7,732.2a34.2,34.2,0,0,0,6.2-4.3,10.5,10.5,0,0,0,3.5-6.5,2.8,2.8,0,0,0-.2-1.8,4.2,4.2,0,0,0-1.1-1.6,20.1,20.1,0,0,0-5.6-3.9c-1.2-.6-2.6-1.1-3.2-2.3s-.1-3.2-1.3-4-2.2-.2-3.2.3a12,12,0,0,0-4,3c-2.2,2.8-1.6,7,.4,9.8a17.4,17.4,0,0,0,2.5,2.9,47.5,47.5,0,0,1,6.1,7.9" transform="translate(0 -406.6)"/><path class="cls-6" d="M950.5,733.5c4.2-2.5,8.9-5.5,10.2-10.6a6,6,0,0,0-2-6.4,24.7,24.7,0,0,0-6.1-4c-.8-.4-1.8-.8-2-1.7s-.2-2.1-.8-3.1-4.1-1.8-6.1-.7a10.8,10.8,0,0,0-5.1,4.8,9.7,9.7,0,0,0-.3,6.5c.8,2.7,2.6,4.7,4.5,6.7a70,70,0,0,1,5.8,7.4c1,1.6,3.6.1,2.5-1.5a53,53,0,0,0-3.9-5.4c-1.4-1.7-2.9-3.1-4.3-4.8s-3-7.1,0-9.7a12.8,12.8,0,0,1,2.5-1.5c.7-.4,1.7-1,1.9,0s.4,3.3,2,4.5,3.3,1.7,4.9,2.8,3.8,2.4,3.7,4.2c-.1,4.8-5.3,7.8-9,9.9a1.5,1.5,0,0,0,1.6,2.6Z" transform="translate(0 -406.6)"/><path class="cls-6" d="M989.1,735.1a18.7,18.7,0,0,0,13.2-12.5,9,9,0,0,1,1.1-2.7c1.6-2.2,4.9-2.1,7.6-1.5a4.5,4.5,0,0,1,2.5,1.2c1.3,1.3.7,3.4.1,5.2s-1.4,4.1-2.9,5.6-.9.7-1.1,1.3,1.3,4,1.5,6.2-2.5,4.6-5.1,4.8-5.1-.8-7.7-1.1-3.3,0-5-.2a5.4,5.4,0,0,1-3.4-1.4c-.8-.9-.9-2.6.2-3.2" transform="translate(0 -406.6)"/><path class="cls-6" d="M989.5,736.5a20.4,20.4,0,0,0,11.5-7.8,22.6,22.6,0,0,0,3-6.5,3.4,3.4,0,0,1,2.1-2.4,9.4,9.4,0,0,1,6.1.6c.9.7.5,2.2.3,3.1a36.2,36.2,0,0,1-1.3,3.5,13.3,13.3,0,0,1-2.3,3c-1.8,2.1-.9,4.3.1,6.4a3.4,3.4,0,0,1,.5,2.6,3.7,3.7,0,0,1-2.5,1.9c-2.9,1-6.4-.6-9.3-.8a39.1,39.1,0,0,1-4.9-.3c-.8-.1-2.9-1-1.7-2s-.6-3.3-2.1-2.1-.8,5.6,1.7,6.6a11.7,11.7,0,0,0,4.9.7,51.4,51.4,0,0,1,5.5.6c3.1.6,6.3,1,9-.9a5.6,5.6,0,0,0,1.8-7.2c-.4-.9-1.5-2.3-.9-3.3l1.3-1.4a11.4,11.4,0,0,0,1.5-2.3c1.1-2.4,2.6-5.8,1.7-8.5s-4.6-3.4-7.2-3.5-5.6,1-6.8,3.7a37.5,37.5,0,0,1-1.7,4.7,18.5,18.5,0,0,1-2.9,4,17.8,17.8,0,0,1-8.2,4.7,1.5,1.5,0,0,0,.8,2.9Z" transform="translate(0 -406.6)"/><path class="cls-6" d="M917.7,670c-.4,2.4-.8,4.9-.1,7.3s2.9,4.4,5.4,4.1,5.1-3.9,8.1-3.3,2.8,1.8,4.4,1.8,2.5-1.1,3.3-2.3a13.9,13.9,0,0,0,1.3-11.9c-.8-2.3-2.8-4.5-5.1-3.9s-3.2,2.3-4.6,1.5-1-1.9-1.5-2.9-3.4-2.2-5.2-1.4a9.6,9.6,0,0,0-4,4.2,33.1,33.1,0,0,0-2.9,6.7" transform="translate(0 -406.6)"/><path class="cls-6" d="M916.2,669.6c-.5,3.3-1,7,.8,10s4.4,4,7.2,3.1a13.2,13.2,0,0,0,3.3-1.8c.9-.6,2-1.5,3.2-1.4s2.2,1.3,3.5,1.7a4.3,4.3,0,0,0,4.2-.9c2.4-2,3.5-5.4,3.8-8.4a13,13,0,0,0-1.6-8.6c-1.6-2.5-4.3-3.9-7.2-2.5l-1.7,1c-.5.2-.5.3-.8-.2a11.5,11.5,0,0,1-.6-1.7,3.4,3.4,0,0,0-1.3-1.6c-2.6-2.1-6.2-1.1-8.4,1.2s-4.1,6.5-5.2,10c-.6,1.9,2.3,2.7,2.9.8a27.1,27.1,0,0,1,3.6-7.7c1.1-1.5,3.2-3.4,5.1-2.1s.9,1.6,1.2,2.4a3.5,3.5,0,0,0,2.7,2.1,4.2,4.2,0,0,0,2.6-.8c.9-.4,1.8-1.3,2.9-.9s2.8,4,2.9,6a12.9,12.9,0,0,1-1.6,7.2c-.5.8-1.3,2.1-2.4,1.9s-2-1-2.9-1.4-4.1-.3-5.9.9-3.9,3-6,1.1-1.8-5.8-1.4-8.6-2.5-2.7-2.9-.8Z" transform="translate(0 -406.6)"/><path class="cls-6" d="M935.2,653.7a5.3,5.3,0,0,1,6.5-1.6,26,26,0,0,1,3.3,2.5c3,2.3,7.8,2.3,10.2-.5s2-4.6,2.1-7.1,0-5.6-2.1-7.1a8.4,8.4,0,0,0-3.8-1.1,34,34,0,0,0-7.8-.3,22.7,22.7,0,0,0-9.1,4.1l-1.2,1a7.2,7.2,0,0,0-.9,2,14.1,14.1,0,0,0-.7,4.5,4.2,4.2,0,0,0,2.4,3.7" transform="translate(0 -406.6)"/><path class="cls-6" d="M936.5,654.5a3.8,3.8,0,0,1,2.6-1.4,4.4,4.4,0,0,1,3.4,1.4c1.9,1.6,3.7,2.9,6.3,3.2a8.4,8.4,0,0,0,6.5-1.7,9.4,9.4,0,0,0,3.3-6.6,18.4,18.4,0,0,0-.2-7.4,6.8,6.8,0,0,0-5.4-4.5,32.8,32.8,0,0,0-9.4-.5,21.8,21.8,0,0,0-8,3.1,12.3,12.3,0,0,0-3.8,3,16.6,16.6,0,0,0-1.4,4.3c-.5,2.9,0,6.3,2.9,7.7s3.3-1.8,1.5-2.6-1.6-4.1-1-6a3.9,3.9,0,0,1,1.5-2.6,27,27,0,0,1,3.1-2,16.5,16.5,0,0,1,7.2-2,17,17,0,0,1,3.9.2,17.6,17.6,0,0,1,3.9.6c2,.7,2.4,2.8,2.5,4.7a17.2,17.2,0,0,1-.9,6.3c-1.6,3.6-6.4,3.9-9.3,1.6s-3.5-3.2-6.2-3.2a6.8,6.8,0,0,0-5.6,2.9c-1.2,1.5,1.4,3,2.6,1.5Z" transform="translate(0 -406.6)"/><path class="cls-6" d="M943.9,685a14.1,14.1,0,0,0,5-12.2c-.3-2.5-1.3-5.2-.3-7.6a7.4,7.4,0,0,1,4.3-3.8c1.3-.5,2.8-.8,3.9-.1a6.5,6.5,0,0,1,1.8,2.2c1.2,2.3,2.4,4.8,1.7,7.3s-1.8,3-2.6,4.5c-2.2,4.1-.7,9.3-2.2,13.6a10.1,10.1,0,0,1-7.6,6.7,3.1,3.1,0,0,1-1.9-.1,3.7,3.7,0,0,1-1.3-1.2,11.9,11.9,0,0,1-2.9-5.4c-.3-2.1.6-4.5,2.6-5.2" transform="translate(0 -406.6)"/><path class="cls-6" d="M944.9,686a15.1,15.1,0,0,0,5.5-13.2c-.3-2.5-1.7-5.8.2-8.1s4.6-3.5,6-1.5,3,5.2,2.1,7.6a22.3,22.3,0,0,1-2,3.3,9.8,9.8,0,0,0-1.4,3.7c-1,5,.6,10.8-3.9,14.5a7.6,7.6,0,0,1-3.5,1.7c-.7.2-1.1.3-1.7-.2a11.8,11.8,0,0,1-1.3-1.8,6.6,6.6,0,0,1-1.7-4,3.3,3.3,0,0,1,1.6-2.9c1.7-.7,1-3.6-.8-2.8a6.2,6.2,0,0,0-3.7,7,10.6,10.6,0,0,0,2.1,4.4c.9,1.3,2,3,3.6,3.4s6.2-1.3,8.1-3.2a12.9,12.9,0,0,0,3.6-8.6c.3-3.3-.2-6.9,1.7-9.9a20.8,20.8,0,0,0,2.2-3.8,8.7,8.7,0,0,0-.1-5.3c-1-2.8-2.6-6.7-6-6.9a9.1,9.1,0,0,0-7.7,4.1c-2.3,3.5-.2,7.5-.3,11.2a12.4,12.4,0,0,1-4.7,9.2c-1.5,1.2.6,3.3,2.1,2.1Z" transform="translate(0 -406.6)"/><path class="cls-6" d="M934.4,702.2a31,31,0,0,0,1.7-7.3,11.3,11.3,0,0,0-1.8-7.2,3.9,3.9,0,0,0-1.4-1.2,4.1,4.1,0,0,0-1.9-.4,19.6,19.6,0,0,0-6.8.9c-1.3.4-2.7.9-3.9.4s-2.2-2.2-3.7-2-1.7,1.3-2.1,2.4a10.4,10.4,0,0,0-.9,4.9c.3,3.5,3.5,6.2,6.9,7l3.8.4a54.1,54.1,0,0,1,9.8,1.6" transform="translate(0 -406.6)"/><path class="cls-6" d="M935.8,702.6c1.5-4.7,2.9-10.1.3-14.8a6.1,6.1,0,0,0-2.1-2.4,7.1,7.1,0,0,0-3.8-.8,28.8,28.8,0,0,0-7.6,1.3,2.5,2.5,0,0,1-2.8-.6,4.5,4.5,0,0,0-2.7-1.4c-2.4-.2-3.5,2-4.2,3.9a10.2,10.2,0,0,0-.3,7.1,9.5,9.5,0,0,0,3.9,4.7c2.4,1.5,5,1.8,7.8,2a49.9,49.9,0,0,1,9.4,1.6,1.5,1.5,0,0,0,.8-2.9c-2.2-.6-4.5-1-6.8-1.4s-4.4-.2-6.6-.6-6.4-3.3-6-6.9a16.7,16.7,0,0,1,.8-3.2c.2-.4.5-1.3,1-1.3s1.2.8,1.5,1.1a4.4,4.4,0,0,0,2.5,1.1c2.1.2,4.2-.9,6.3-1.3s4.6-.8,5.8.7c3,3.7,1.2,9.3,0,13.3a1.5,1.5,0,1,0,2.8.8Z" transform="translate(0 -406.6)"/><path class="cls-6" d="M965.4,677.7a18.5,18.5,0,0,0,1.3-18.1,8.8,8.8,0,0,1-1-2.7c-.4-2.7,2.2-4.9,4.6-6.3a5,5,0,0,1,2.6-.8c1.8.1,2.9,2.1,3.6,3.8a12.8,12.8,0,0,1,1.6,6,5.5,5.5,0,0,0,.1,1.8c.5,2.1,3.7,2.1,5.3,3.6s1.2,5-.5,6.9-4.3,2.9-6.4,4.4-2.5,2.3-3.8,3.3a5.4,5.4,0,0,1-3.4,1.2,2.2,2.2,0,0,1-2.1-2.5" transform="translate(0 -406.6)"/><path class="cls-6" d="M966.7,678.5a20.2,20.2,0,0,0,3-14.4,21.4,21.4,0,0,0-.9-3.4,30.8,30.8,0,0,1-1.6-3.8c-.4-2.3,2.1-4,3.8-5s1.9-.9,2.7-.1a7.4,7.4,0,0,1,1.6,2.7,13.6,13.6,0,0,1,1.3,4.2c.1,1.3-.2,2.6.4,3.8s2.9,2.2,4.5,3,2,3.1.8,4.8-4.6,3.3-6.8,5-2.3,2-3.5,3a6.4,6.4,0,0,1-1.8,1c-.3,0-1.6.1-1.5-.6a1.5,1.5,0,0,0-1-1.8c-.7-.2-1.8.2-1.9,1-.5,3.5,3,5.2,5.9,4a13.7,13.7,0,0,0,3.7-2.6,30.8,30.8,0,0,1,4.1-3c2.5-1.6,5.2-3.2,6.3-6.2a5.6,5.6,0,0,0-2.2-6.9c-1-.6-2.1-.9-3.1-1.4s-.8-2.1-.9-3.5a19.5,19.5,0,0,0-1.4-4.7,14.5,14.5,0,0,0-2.2-3.8c-2.4-2.4-5.3-1.4-7.7.3s-4.4,3.9-4.1,6.8,1.3,3.3,1.8,5a16.6,16.6,0,0,1-1.9,15.1c-1.1,1.6,1.5,3.1,2.6,1.5Z" transform="translate(0 -406.6)"/><path class="cls-6" d="M865,730.1c-.4,2.4-.8,4.9,0,7.2s2.9,4.4,5.3,4.1,5.2-3.9,8.1-3.3,2.8,1.9,4.4,1.9,2.6-1.2,3.3-2.4a13.9,13.9,0,0,0,1.3-11.9c-.7-2.2-2.8-4.5-5-3.9s-3.2,2.4-4.7,1.5-1-1.9-1.5-2.9-3.3-2.1-5.1-1.3a9.6,9.6,0,0,0-4,4.2,30.8,30.8,0,0,0-2.9,6.7" transform="translate(0 -406.6)"/><path class="cls-6" d="M863.6,729.7c-.5,3.2-1.1,6.9.8,9.9s4.3,4,7.2,3.1a15.2,15.2,0,0,0,3.3-1.8c.9-.6,2-1.5,3.1-1.3s2.3,1.3,3.5,1.7a4.8,4.8,0,0,0,4.3-1c2.3-2,3.5-5.4,3.8-8.3a14.2,14.2,0,0,0-1.6-8.6c-1.7-2.6-4.4-4-7.3-2.5l-1.6,1c-.5.2-.6.2-.8-.2a9.5,9.5,0,0,1-.6-1.8,7,7,0,0,0-1.3-1.6c-2.7-2.1-6.3-1-8.4,1.2s-4.2,6.6-5.3,10.1c-.6,1.8,2.3,2.6,2.9.8a29.3,29.3,0,0,1,3.7-7.8c1-1.5,3.2-3.3,5.1-2s.8,1.5,1.2,2.3a3.3,3.3,0,0,0,2.6,2.1,5.2,5.2,0,0,0,2.7-.7c.8-.5,1.8-1.4,2.9-.9s2.8,4,2.9,6a12.5,12.5,0,0,1-1.7,7.1c-.5.9-1.3,2.1-2.4,2s-1.9-1.1-2.8-1.5-4.1-.2-5.9,1-4,3-6.1,1.1-1.8-5.8-1.3-8.6-2.6-2.7-2.9-.8Z" transform="translate(0 -406.6)"/><path class="cls-6" d="M882.6,713.8a5.3,5.3,0,0,1,6.4-1.7,29.1,29.1,0,0,1,3.3,2.6c3.1,2.3,7.8,2.3,10.3-.6s1.9-4.6,2.1-7.1-.1-5.5-2.1-7a8.5,8.5,0,0,0-3.8-1.2,29.2,29.2,0,0,0-7.8-.2,21.9,21.9,0,0,0-9.1,4,4,4,0,0,0-1.2,1,5.6,5.6,0,0,0-.9,2.1,11.2,11.2,0,0,0-.7,4.5,4.1,4.1,0,0,0,2.3,3.6" transform="translate(0 -406.6)"/><path class="cls-6" d="M883.9,714.5a3.3,3.3,0,0,1,2.6-1.3,4.1,4.1,0,0,1,3.3,1.3,11.2,11.2,0,0,0,6.3,3.2,8.9,8.9,0,0,0,6.6-1.6c2.1-1.7,2.9-4.2,3.3-6.7a16.8,16.8,0,0,0-.3-7.4,6.4,6.4,0,0,0-5.3-4.4,29.9,29.9,0,0,0-9.4-.5,20.4,20.4,0,0,0-8,3c-1.4.8-3,1.7-3.8,3.1a10.9,10.9,0,0,0-1.4,4.3c-.6,2.8,0,6.2,2.9,7.6s3.2-1.7,1.5-2.6-1.6-4-1.1-6a4.3,4.3,0,0,1,1.5-2.6,20.7,20.7,0,0,1,3.2-1.9,16.2,16.2,0,0,1,7.1-2.1l3.9.2a24.4,24.4,0,0,1,3.9.6c2.1.7,2.5,2.8,2.5,4.7a16.6,16.6,0,0,1-.9,6.3c-1.5,3.7-6.3,3.9-9.2,1.7s-3.6-3.3-6.3-3.3a7.4,7.4,0,0,0-5.5,2.9c-1.2,1.6,1.4,3.1,2.6,1.5Z" transform="translate(0 -406.6)"/><path class="cls-6" d="M891.2,745a13.8,13.8,0,0,0,5.1-12.1c-.3-2.6-1.3-5.2-.4-7.6s2.5-3.1,4.4-3.9a4.5,4.5,0,0,1,3.9-.1,5.2,5.2,0,0,1,1.7,2.2c1.2,2.3,2.4,4.9,1.7,7.3s-1.8,3-2.6,4.6c-2.1,4.1-.6,9.2-2.1,13.6a10.6,10.6,0,0,1-7.6,6.6,3.1,3.1,0,0,1-1.9,0,3.8,3.8,0,0,1-1.3-1.2,13.5,13.5,0,0,1-3-5.5c-.3-2.1.6-4.5,2.6-5.1" transform="translate(0 -406.6)"/><path class="cls-6" d="M892.3,746.1a15.6,15.6,0,0,0,5.5-13.2c-.3-2.6-1.7-5.9.1-8.1s4.6-3.5,6.1-1.6,3,5.2,2.1,7.6a23,23,0,0,1-2.1,3.3,12.8,12.8,0,0,0-1.4,3.7c-.9,5,.6,10.9-3.8,14.5a8.7,8.7,0,0,1-3.6,1.8,1.5,1.5,0,0,1-1.6-.2,12.4,12.4,0,0,1-1.4-1.8,7.4,7.4,0,0,1-1.6-4c0-1.1.4-2.5,1.5-2.9s1-3.6-.8-2.9a6.2,6.2,0,0,0-3.6,7,13,13,0,0,0,2,4.5c1,1.3,2,2.9,3.7,3.3s6.1-1.3,8-3.1a13.2,13.2,0,0,0,3.7-8.6c.2-3.4-.2-7,1.6-9.9a19,19,0,0,0,2.3-3.9,8,8,0,0,0-.2-5.3c-.9-2.8-2.6-6.7-6-6.9a10,10,0,0,0-7.7,4.1c-2.3,3.6-.1,7.5-.3,11.3a12.3,12.3,0,0,1-4.6,9.1c-1.5,1.3.6,3.4,2.1,2.2Z" transform="translate(0 -406.6)"/><path class="cls-6" d="M881.8,762.3a31.6,31.6,0,0,0,1.6-7.4,10.8,10.8,0,0,0-1.8-7.2,5.5,5.5,0,0,0-1.4-1.2,5.3,5.3,0,0,0-1.8-.4,22.4,22.4,0,0,0-6.8,1c-1.3.4-2.7.9-3.9.4s-2.3-2.2-3.7-2.1-1.8,1.4-2.1,2.4a12.3,12.3,0,0,0-1,4.9c.3,3.5,3.5,6.3,7,7a23.3,23.3,0,0,0,3.7.4,53.9,53.9,0,0,1,9.9,1.7" transform="translate(0 -406.6)"/><path class="cls-6" d="M883.2,762.7c1.5-4.8,2.9-10.2.3-14.8a7.5,7.5,0,0,0-2.2-2.5,6.9,6.9,0,0,0-3.7-.8A27.6,27.6,0,0,0,870,746a2.6,2.6,0,0,1-2.8-.7,5.3,5.3,0,0,0-2.8-1.4c-2.3-.1-3.5,2-4.1,3.9s-1.3,4.8-.4,7.2a10.7,10.7,0,0,0,4,4.7c2.3,1.5,5,1.7,7.7,1.9a60.8,60.8,0,0,1,9.5,1.6,1.5,1.5,0,0,0,.8-2.9c-2.3-.5-4.5-1-6.8-1.3s-4.5-.3-6.6-.7-6.4-3.2-6.1-6.8a13.5,13.5,0,0,1,.9-3.3c.2-.4.4-1.3,1-1.3s1.2.9,1.5,1.1a4.4,4.4,0,0,0,2.4,1.1c2.1.3,4.3-.9,6.3-1.2s4.6-.9,5.8.6c3.1,3.8,1.3,9.3,0,13.4-.6,1.8,2.3,2.6,2.9.8Z" transform="translate(0 -406.6)"/><path class="cls-6" d="M912.7,737.8a18.6,18.6,0,0,0,1.4-18.1,13.6,13.6,0,0,1-1.1-2.8c-.3-2.7,2.2-4.9,4.6-6.2a5.1,5.1,0,0,1,2.6-.9c1.9.2,2.9,2.1,3.7,3.8s1.7,4,1.6,6.1a9.6,9.6,0,0,0,0,1.7c.6,2.2,3.7,2.2,5.4,3.6s1.2,5.1-.6,7-4.2,2.8-6.3,4.4-2.5,2.2-3.9,3.2a5.5,5.5,0,0,1-3.4,1.3c-1.2-.2-2.4-1.3-2.1-2.5" transform="translate(0 -406.6)"/><path class="cls-6" d="M914,738.5a20,20,0,0,0,3-14.3,14.7,14.7,0,0,0-.8-3.5c-.5-1.2-1.4-2.4-1.6-3.8s2.1-3.9,3.8-4.9,1.8-1,2.7-.1a8.1,8.1,0,0,1,1.6,2.7,18.7,18.7,0,0,1,1.3,4.2c.1,1.3-.2,2.6.4,3.8s2.8,2.2,4.5,2.9,2,3.2.8,4.9-4.7,3.3-6.8,4.9-2.3,2.1-3.5,3a5,5,0,0,1-1.9,1c-.2.1-1.5.1-1.4-.5a1.6,1.6,0,0,0-1.1-1.9,1.5,1.5,0,0,0-1.8,1.1c-.5,3.4,3,5.1,5.9,3.9a13.7,13.7,0,0,0,3.7-2.6,29.8,29.8,0,0,1,4-3c2.6-1.6,5.2-3.1,6.3-6.1s.3-5.5-2.2-7c-.9-.5-2-.8-3-1.3s-.8-2.2-1-3.5a15,15,0,0,0-1.4-4.7,10.1,10.1,0,0,0-2.2-3.9c-2.3-2.4-5.3-1.3-7.7.4s-4.3,3.8-4.1,6.7,1.3,3.3,1.9,5a14.3,14.3,0,0,1,.9,5,17.3,17.3,0,0,1-2.9,10.1c-1,1.6,1.6,3.2,2.6,1.5Z" transform="translate(0 -406.6)"/><path class="cls-6" d="M839.5,678c-.4,2.4-.8,4.9,0,7.3s2.9,4.4,5.3,4.1,5.2-3.9,8.1-3.3,2.8,1.8,4.4,1.8,2.6-1.2,3.3-2.4a13.8,13.8,0,0,0,1.3-11.9c-.8-2.2-2.8-4.5-5.1-3.8s-3.1,2.3-4.6,1.4-1-1.9-1.5-2.8-3.4-2.2-5.1-1.4a9.6,9.6,0,0,0-4,4.2,33.1,33.1,0,0,0-2.9,6.7" transform="translate(0 -406.6)"/><path class="cls-6" d="M838.1,677.6c-.6,3.3-1.1,7,.8,9.9s4.3,4,7.2,3.1a11.9,11.9,0,0,0,3.3-1.8,5.1,5.1,0,0,1,3.1-1.3c1.3.2,2.3,1.3,3.5,1.7a4.5,4.5,0,0,0,4.3-1c2.3-1.9,3.4-5.3,3.8-8.3a14.3,14.3,0,0,0-1.6-8.6c-1.7-2.5-4.4-3.9-7.3-2.5l-1.6,1c-.5.2-.6.3-.8-.2s-.4-1.2-.7-1.7a4.3,4.3,0,0,0-1.3-1.7c-2.6-2-6.2-1-8.4,1.2s-4.1,6.6-5.2,10.1c-.6,1.8,2.3,2.6,2.9.8a27.4,27.4,0,0,1,3.7-7.7c1-1.5,3.2-3.4,5.1-2.1s.8,1.6,1.2,2.4a3,3,0,0,0,2.6,2,4.4,4.4,0,0,0,2.7-.7c.8-.5,1.8-1.3,2.8-.9s2.8,4,3,6a13,13,0,0,1-1.7,7.2c-.5.8-1.3,2-2.4,1.9s-1.9-1.1-2.8-1.4-4.1-.3-5.9.9-4,3-6.1,1.1-1.8-5.8-1.3-8.6-2.6-2.7-2.9-.8Z" transform="translate(0 -406.6)"/><path class="cls-6" d="M857,661.7a5.3,5.3,0,0,1,6.5-1.6,20.4,20.4,0,0,1,3.3,2.5c3,2.3,7.8,2.3,10.3-.6s1.9-4.5,2.1-7-.1-5.6-2.2-7.1a6.7,6.7,0,0,0-3.7-1.1,29.3,29.3,0,0,0-7.8-.3,21.5,21.5,0,0,0-9.1,4.1,2.9,2.9,0,0,0-1.2,1,5.2,5.2,0,0,0-.9,2,11.8,11.8,0,0,0-.7,4.5,4,4,0,0,0,2.3,3.6" transform="translate(0 -406.6)"/><path class="cls-6" d="M858.3,662.5a3.9,3.9,0,0,1,6,0,11.9,11.9,0,0,0,6.3,3.2,8.7,8.7,0,0,0,6.6-1.7,9.7,9.7,0,0,0,3.2-6.7,15,15,0,0,0-.2-7.3,6.5,6.5,0,0,0-5.4-4.5,32.3,32.3,0,0,0-9.3-.5,21.6,21.6,0,0,0-8.1,3.1c-1.3.8-2.9,1.6-3.7,3a11.4,11.4,0,0,0-1.4,4.3c-.6,2.9,0,6.3,2.8,7.6s3.3-1.7,1.6-2.5-1.7-4.1-1.1-6.1a4.3,4.3,0,0,1,1.5-2.6,33.7,33.7,0,0,1,3.2-1.9,14.9,14.9,0,0,1,7.1-2,17,17,0,0,1,3.9.2,16.7,16.7,0,0,1,3.9.6c2.1.6,2.5,2.7,2.5,4.6a16.6,16.6,0,0,1-.9,6.3c-1.6,3.7-6.3,3.9-9.2,1.7s-3.6-3.2-6.3-3.2a7,7,0,0,0-5.6,2.9c-1.1,1.5,1.5,3,2.6,1.5Z" transform="translate(0 -406.6)"/><path class="cls-6" d="M865.7,692.9a13.4,13.4,0,0,0,5-12.1c-.2-2.5-1.2-5.2-.3-7.6a7,7,0,0,1,4.3-3.8,3.8,3.8,0,0,1,5.7,2.1c1.2,2.2,2.4,4.8,1.7,7.3s-1.8,3-2.6,4.5c-2.1,4.1-.6,9.3-2.1,13.6a10.7,10.7,0,0,1-7.6,6.7,4,4,0,0,1-1.9-.1,3.2,3.2,0,0,1-1.4-1.2,12.7,12.7,0,0,1-2.9-5.5c-.3-2,.6-4.4,2.6-5.1" transform="translate(0 -406.6)"/><path class="cls-6" d="M866.8,694a15,15,0,0,0,5.4-13.2c-.2-2.5-1.6-5.9.2-8.1s4.6-3.5,6.1-1.5,3,5.2,2.1,7.6a17.7,17.7,0,0,1-2.1,3.2,13.4,13.4,0,0,0-1.4,3.8c-1,5,.6,10.8-3.9,14.5a8.8,8.8,0,0,1-3.5,1.7,1.4,1.4,0,0,1-1.6-.2,7.9,7.9,0,0,1-1.4-1.8,7.4,7.4,0,0,1-1.6-4,3.1,3.1,0,0,1,1.5-2.9c1.8-.7,1-3.6-.8-2.9a6.3,6.3,0,0,0-3.6,7,11.5,11.5,0,0,0,2,4.5c1,1.3,2,2.9,3.6,3.4s6.2-1.3,8.1-3.2a13,13,0,0,0,3.7-8.6c.2-3.3-.2-6.9,1.6-9.9a16.3,16.3,0,0,0,2.2-3.8,7.7,7.7,0,0,0-.1-5.4c-1-2.8-2.6-6.7-6-6.8s-6.1,1.7-7.7,4.1-.1,7.4-.3,11.2a12.4,12.4,0,0,1-4.7,9.2c-1.5,1.2.7,3.3,2.2,2.1Z" transform="translate(0 -406.6)"/><path class="cls-6" d="M856.2,710.2a31,31,0,0,0,1.7-7.3,10.6,10.6,0,0,0-1.8-7.2,3.2,3.2,0,0,0-1.4-1.2,3.7,3.7,0,0,0-1.8-.4,20.2,20.2,0,0,0-6.9.9c-1.2.4-2.6.9-3.8.4s-2.3-2.2-3.7-2-1.8,1.3-2.2,2.4a13.3,13.3,0,0,0-.9,4.9c.3,3.5,3.5,6.2,7,6.9a23.5,23.5,0,0,0,3.7.5,55.2,55.2,0,0,1,9.9,1.6" transform="translate(0 -406.6)"/><path class="cls-6" d="M857.7,710.6c1.5-4.7,2.9-10.1.3-14.8a8.8,8.8,0,0,0-2.2-2.5,6.8,6.8,0,0,0-3.7-.7,27.5,27.5,0,0,0-7.6,1.3,2.8,2.8,0,0,1-2.9-.7,4.6,4.6,0,0,0-2.7-1.3c-2.4-.2-3.5,2-4.1,3.9s-1.3,4.8-.4,7.1a9.5,9.5,0,0,0,3.9,4.7c2.4,1.5,5.1,1.7,7.8,2a51,51,0,0,1,9.5,1.6c1.9.4,2.7-2.5.8-2.9a52.7,52.7,0,0,0-6.9-1.4c-2.1-.3-4.4-.2-6.5-.7s-6.5-3.2-6.1-6.8a11.7,11.7,0,0,1,.9-3.2c.1-.4.4-1.3,1-1.4s1.2.9,1.5,1.2a5.3,5.3,0,0,0,2.4,1.1c2.1.2,4.2-.9,6.3-1.3s4.6-.8,5.8.7c3.1,3.7,1.3,9.2,0,13.3-.6,1.9,2.3,2.6,2.9.8Z" transform="translate(0 -406.6)"/><path class="cls-6" d="M887.2,685.7a18.6,18.6,0,0,0,1.4-18.1,15.3,15.3,0,0,1-1.1-2.7c-.3-2.8,2.2-4.9,4.6-6.3a5,5,0,0,1,2.6-.8c1.9.1,2.9,2.1,3.7,3.7s1.7,4,1.6,6.1a10.8,10.8,0,0,0,0,1.8c.6,2.1,3.7,2.1,5.4,3.6s1.2,5-.6,6.9-4.2,2.9-6.3,4.4-2.5,2.2-3.9,3.2a5,5,0,0,1-3.4,1.3,2.3,2.3,0,0,1-2.1-2.5" transform="translate(0 -406.6)"/><path class="cls-6" d="M888.5,686.5a20.2,20.2,0,0,0,3-14.4,13.1,13.1,0,0,0-.9-3.4c-.4-1.3-1.3-2.5-1.5-3.8s2-4,3.8-5,1.8-.9,2.7-.1a9.2,9.2,0,0,1,1.6,2.7,20.4,20.4,0,0,1,1.3,4.2c.1,1.3-.3,2.6.4,3.8s2.8,2.2,4.5,3,2,3.1.7,4.8-4.6,3.3-6.7,5l-3.6,3a3.8,3.8,0,0,1-1.8.9c-.3.1-1.5.1-1.5-.5a1.4,1.4,0,0,0-1-1.8,1.4,1.4,0,0,0-1.8,1c-.5,3.4,3,5.2,5.9,4a13.7,13.7,0,0,0,3.7-2.6,19,19,0,0,1,4-3c2.6-1.6,5.2-3.2,6.3-6.2s.3-5.5-2.2-6.9a27.5,27.5,0,0,0-3-1.4c-1.4-.7-.8-2.1-1-3.5a15,15,0,0,0-1.4-4.7,14.5,14.5,0,0,0-2.2-3.8c-2.3-2.4-5.3-1.4-7.7.3s-4.3,3.9-4.1,6.8,1.3,3.3,1.9,4.9a18.2,18.2,0,0,1,.9,5.1,17.3,17.3,0,0,1-2.9,10.1c-1,1.6,1.6,3.1,2.6,1.5Z" transform="translate(0 -406.6)"/><path class="cls-6" d="M785,740.6c-.4,2.4-.8,4.9-.1,7.3s2.9,4.4,5.3,4.1,5.2-3.9,8.2-3.3,2.8,1.8,4.4,1.8,2.5-1.2,3.3-2.4a13.9,13.9,0,0,0,1.3-11.9c-.8-2.2-2.8-4.5-5.1-3.8s-3.2,2.3-4.6,1.4-1-1.9-1.5-2.8-3.4-2.2-5.2-1.4a9.6,9.6,0,0,0-4,4.2,33.1,33.1,0,0,0-2.9,6.7" transform="translate(0 -406.6)"/><path class="cls-6" d="M783.5,740.2c-.5,3.3-1.1,7,.8,9.9s4.4,4,7.2,3.1a13.2,13.2,0,0,0,3.3-1.8,5.4,5.4,0,0,1,3.2-1.3c1.2.2,2.2,1.3,3.4,1.7a4.5,4.5,0,0,0,4.3-1c2.4-1.9,3.5-5.3,3.8-8.3a13,13,0,0,0-1.6-8.6c-1.6-2.5-4.3-3.9-7.2-2.5l-1.7,1c-.5.2-.5.3-.8-.2a11.5,11.5,0,0,1-.6-1.7,4.3,4.3,0,0,0-1.3-1.7c-2.6-2-6.3-1-8.4,1.2s-4.1,6.6-5.2,10.1c-.6,1.8,2.3,2.6,2.9.8a27.1,27.1,0,0,1,3.6-7.7c1.1-1.5,3.2-3.4,5.1-2.1s.9,1.6,1.2,2.4a3.2,3.2,0,0,0,2.7,2,4.1,4.1,0,0,0,2.6-.7c.9-.5,1.8-1.3,2.9-.9s2.8,4,2.9,6a12.9,12.9,0,0,1-1.6,7.2c-.5.8-1.3,2-2.5,1.9s-1.9-1.1-2.8-1.4-4.1-.3-5.9.9-4,3-6.1,1.1-1.7-5.8-1.3-8.6-2.6-2.7-2.9-.8Z" transform="translate(0 -406.6)"/><path class="cls-6" d="M802.5,724.3a5.3,5.3,0,0,1,6.5-1.6,26,26,0,0,1,3.3,2.5c3,2.3,7.8,2.3,10.2-.6s2-4.5,2.1-7,0-5.6-2.1-7.1a7.3,7.3,0,0,0-3.8-1.1,29.2,29.2,0,0,0-7.8-.3,22.7,22.7,0,0,0-9.1,4.1,3.8,3.8,0,0,0-1.2,1,6.1,6.1,0,0,0-.9,2,14.1,14.1,0,0,0-.7,4.5,4,4,0,0,0,2.3,3.6" transform="translate(0 -406.6)"/><path class="cls-6" d="M803.8,725.1a3.8,3.8,0,0,1,2.6-1.4,4.4,4.4,0,0,1,3.4,1.4c1.9,1.6,3.7,2.9,6.3,3.2a8.4,8.4,0,0,0,6.5-1.7,9.4,9.4,0,0,0,3.3-6.7,16.4,16.4,0,0,0-.3-7.3,6.3,6.3,0,0,0-5.3-4.5,33,33,0,0,0-9.4-.5,21.2,21.2,0,0,0-8,3.1c-1.3.8-3,1.6-3.8,3a16.6,16.6,0,0,0-1.4,4.3c-.5,2.9,0,6.3,2.9,7.6s3.2-1.7,1.5-2.5-1.6-4.1-1-6.1a3.9,3.9,0,0,1,1.5-2.6l3.1-1.9a15,15,0,0,1,7.2-2,17,17,0,0,1,3.9.2,18.5,18.5,0,0,1,3.9.6c2,.6,2.4,2.7,2.4,4.6a14.8,14.8,0,0,1-.8,6.3c-1.6,3.7-6.4,3.9-9.3,1.7s-3.5-3.2-6.2-3.2a6.8,6.8,0,0,0-5.6,2.9c-1.2,1.5,1.4,3,2.6,1.5Z" transform="translate(0 -406.6)"/><path class="cls-6" d="M811.2,755.5a13.9,13.9,0,0,0,5-12.1c-.3-2.5-1.3-5.2-.3-7.6a7,7,0,0,1,4.3-3.8c1.3-.5,2.8-.8,3.9-.1a5.6,5.6,0,0,1,1.8,2.2c1.2,2.2,2.4,4.8,1.7,7.3s-1.8,3-2.6,4.5c-2.2,4.1-.7,9.2-2.2,13.6a10.3,10.3,0,0,1-7.6,6.7,4.1,4.1,0,0,1-1.9-.1,3.7,3.7,0,0,1-1.3-1.2,11.7,11.7,0,0,1-2.9-5.5c-.3-2,.6-4.4,2.5-5.1" transform="translate(0 -406.6)"/><path class="cls-6" d="M812.2,756.6a15.1,15.1,0,0,0,5.5-13.2c-.3-2.5-1.7-5.9.2-8.1s4.6-3.5,6-1.5,3,5.2,2.1,7.6a24.9,24.9,0,0,1-2,3.2,10.9,10.9,0,0,0-1.4,3.8c-1,5,.5,10.8-3.9,14.5a8.8,8.8,0,0,1-3.5,1.7c-.7.2-1.1.3-1.7-.2s-.9-1.2-1.4-1.8a7.4,7.4,0,0,1-1.6-4,3.3,3.3,0,0,1,1.5-2.9c1.8-.7,1-3.6-.8-2.9a6.3,6.3,0,0,0-3.6,7,10.4,10.4,0,0,0,2.1,4.5c.9,1.3,1.9,2.9,3.6,3.4s6.2-1.4,8.1-3.2a13.4,13.4,0,0,0,3.6-8.6c.3-3.3-.2-6.9,1.7-9.9a28.8,28.8,0,0,0,2.2-3.8,8.3,8.3,0,0,0-.2-5.4c-.9-2.8-2.5-6.7-5.9-6.8a9.1,9.1,0,0,0-7.7,4.1c-2.3,3.5-.2,7.4-.3,11.2a12.8,12.8,0,0,1-4.7,9.2c-1.5,1.2.6,3.3,2.1,2.1Z" transform="translate(0 -406.6)"/><path class="cls-6" d="M801.7,772.8a36.8,36.8,0,0,0,1.7-7.3,10.6,10.6,0,0,0-1.9-7.2,4,4,0,0,0-1.3-1.3,5.8,5.8,0,0,0-1.9-.3,19.6,19.6,0,0,0-6.8.9c-1.3.4-2.7.9-3.9.4s-2.2-2.2-3.7-2-1.7,1.3-2.1,2.4a10,10,0,0,0-.9,4.8c.3,3.6,3.5,6.3,6.9,7a24.7,24.7,0,0,0,3.8.5,54.1,54.1,0,0,1,9.8,1.6" transform="translate(0 -406.6)"/><path class="cls-6" d="M803.1,773.2c1.5-4.7,2.9-10.1.3-14.8a7.2,7.2,0,0,0-2.1-2.5,7,7,0,0,0-3.8-.7,28.8,28.8,0,0,0-7.6,1.3,2.7,2.7,0,0,1-2.8-.7,4.9,4.9,0,0,0-2.8-1.3c-2.3-.2-3.4,2-4.1,3.9a10.8,10.8,0,0,0-.4,7.1,10.7,10.7,0,0,0,4,4.7c2.4,1.5,5,1.7,7.8,2a49.9,49.9,0,0,1,9.4,1.6c1.9.4,2.7-2.5.8-2.9a51.2,51.2,0,0,0-6.8-1.4c-2.2-.3-4.4-.2-6.6-.7s-6.4-3.2-6-6.8a11.6,11.6,0,0,1,.8-3.2c.2-.4.5-1.4,1-1.4s1.2.9,1.5,1.2a5.2,5.2,0,0,0,2.5,1.1c2.1.2,4.2-.9,6.3-1.3s4.6-.8,5.8.6c3,3.8,1.2,9.3-.1,13.4-.5,1.8,2.4,2.6,2.9.8Z" transform="translate(0 -406.6)"/><path class="cls-6" d="M832.7,748.3a18.6,18.6,0,0,0,1.3-18.1,9.9,9.9,0,0,1-1-2.7c-.4-2.8,2.2-4.9,4.5-6.3a5.3,5.3,0,0,1,2.7-.8c1.8.1,2.9,2.1,3.6,3.7a13.5,13.5,0,0,1,1.6,6.1,5.5,5.5,0,0,0,.1,1.8c.5,2.1,3.7,2.1,5.3,3.6s1.2,5-.5,6.9-4.3,2.9-6.4,4.4-2.5,2.2-3.9,3.2a4.6,4.6,0,0,1-3.3,1.3,2.3,2.3,0,0,1-2.2-2.5" transform="translate(0 -406.6)"/><path class="cls-6" d="M834,749.1a20.2,20.2,0,0,0,3-14.4,18.9,18.9,0,0,0-.9-3.4,30.8,30.8,0,0,1-1.6-3.8c-.4-2.3,2.1-4,3.8-5s1.9-.9,2.7-.1a7.4,7.4,0,0,1,1.6,2.7,12.8,12.8,0,0,1,1.3,4.2c.1,1.3-.2,2.6.4,3.8s2.9,2.2,4.5,3,2,3.1.8,4.8-4.6,3.3-6.8,5l-3.5,2.9a3.6,3.6,0,0,1-1.8,1c-.3.1-1.6.1-1.5-.5a1.6,1.6,0,0,0-1.1-1.9,1.5,1.5,0,0,0-1.8,1.1c-.5,3.4,3,5.2,5.9,4a13.7,13.7,0,0,0,3.7-2.6,22,22,0,0,1,4-3c2.6-1.6,5.3-3.2,6.3-6.2a5.5,5.5,0,0,0-2.1-6.9c-1-.6-2.1-.9-3.1-1.4s-.8-2.1-.9-3.5a18.3,18.3,0,0,0-1.4-4.7,14.5,14.5,0,0,0-2.2-3.8c-2.4-2.4-5.3-1.4-7.8.3s-4.3,3.9-4,6.8,1.3,3.3,1.8,4.9a18.4,18.4,0,0,1,1,5.1,17.3,17.3,0,0,1-2.9,10.1c-1.1,1.6,1.5,3.1,2.6,1.5Z" transform="translate(0 -406.6)"/><path class="cls-6" d="M760.7,685.1c-.4,2.4-.8,4.9-.1,7.2s2.9,4.4,5.4,4.2,5.1-4,8.1-3.4,2.8,1.9,4.4,1.9,2.5-1.2,3.3-2.4a13.9,13.9,0,0,0,1.3-11.9c-.8-2.2-2.8-4.5-5.1-3.9s-3.2,2.4-4.6,1.5-1-1.9-1.5-2.9-3.4-2.1-5.2-1.3a9.6,9.6,0,0,0-4,4.2,33.1,33.1,0,0,0-2.9,6.7" transform="translate(0 -406.6)"/><path class="cls-6" d="M759.2,684.7c-.5,3.3-1,6.9.8,9.9s4.4,4,7.2,3.1a13.2,13.2,0,0,0,3.3-1.8c.9-.6,2-1.5,3.2-1.3s2.3,1.3,3.5,1.7a4.6,4.6,0,0,0,4.2-1c2.4-1.9,3.5-5.4,3.8-8.3a13,13,0,0,0-1.6-8.6c-1.6-2.6-4.3-3.9-7.2-2.5l-1.7,1c-.5.2-.5.2-.8-.2s-.3-1.2-.6-1.7a4.3,4.3,0,0,0-1.3-1.7c-2.6-2.1-6.2-1-8.4,1.2s-4.1,6.6-5.2,10.1c-.6,1.8,2.3,2.6,2.9.8a29,29,0,0,1,3.6-7.8c1.1-1.4,3.2-3.3,5.1-2s.9,1.6,1.2,2.3a3.1,3.1,0,0,0,2.7,2.1,4.1,4.1,0,0,0,2.6-.7c.9-.5,1.8-1.4,2.9-.9s2.8,4,2.9,6a12.9,12.9,0,0,1-1.6,7.2c-.5.8-1.3,2-2.4,1.9s-2-1.1-2.9-1.5-4-.2-5.9,1-3.9,3-6,1.1-1.8-5.8-1.4-8.6-2.5-2.7-2.9-.8Z" transform="translate(0 -406.6)"/><path class="cls-6" d="M778.2,668.8a5.3,5.3,0,0,1,6.5-1.6,26,26,0,0,1,3.3,2.5c3,2.3,7.8,2.3,10.2-.6s2-4.6,2.1-7.1,0-5.5-2.1-7a7.3,7.3,0,0,0-3.8-1.1,25.6,25.6,0,0,0-7.8-.3,22.5,22.5,0,0,0-9.1,4l-1.2,1a13.3,13.3,0,0,0-.9,2.1,13.7,13.7,0,0,0-.7,4.5,4.4,4.4,0,0,0,2.4,3.6" transform="translate(0 -406.6)"/><path class="cls-6" d="M779.5,669.6a3.4,3.4,0,0,1,2.6-1.4,4.3,4.3,0,0,1,3.4,1.3,11.7,11.7,0,0,0,6.3,3.3,9.2,9.2,0,0,0,6.6-1.7,9.9,9.9,0,0,0,3.2-6.7,18.5,18.5,0,0,0-.2-7.4,6.5,6.5,0,0,0-5.4-4.4,29.6,29.6,0,0,0-9.4-.5,23.6,23.6,0,0,0-8,3c-1.3.9-2.9,1.7-3.8,3.1a15.5,15.5,0,0,0-1.4,4.3c-.5,2.9,0,6.2,2.9,7.6s3.3-1.7,1.5-2.6-1.6-4-1-6a3.9,3.9,0,0,1,1.5-2.6,33.7,33.7,0,0,1,3.2-1.9,15.9,15.9,0,0,1,7.1-2.1l3.9.2a26.3,26.3,0,0,1,3.9.6c2,.7,2.4,2.8,2.5,4.7a16.6,16.6,0,0,1-.9,6.3c-1.6,3.7-6.4,3.9-9.3,1.7s-3.5-3.3-6.2-3.2a7.2,7.2,0,0,0-5.6,2.8c-1.2,1.6,1.5,3.1,2.6,1.6Z" transform="translate(0 -406.6)"/><path class="cls-6" d="M786.9,700a14,14,0,0,0,5-12.1c-.3-2.6-1.3-5.2-.3-7.6s2.5-3.1,4.3-3.9a4.7,4.7,0,0,1,4,0,5.4,5.4,0,0,1,1.7,2.2c1.2,2.2,2.4,4.8,1.7,7.3s-1.8,3-2.6,4.5c-2.2,4.1-.7,9.2-2.2,13.6a10.2,10.2,0,0,1-7.6,6.6,3.1,3.1,0,0,1-1.9,0,7.4,7.4,0,0,1-1.3-1.2c-1.3-1.7-2.6-3.4-2.9-5.5s.6-4.4,2.6-5.1" transform="translate(0 -406.6)"/><path class="cls-6" d="M787.9,701.1a15.2,15.2,0,0,0,5.5-13.2c-.3-2.5-1.7-5.9.2-8.1s4.6-3.5,6.1-1.6,2.9,5.3,2,7.6a22.3,22.3,0,0,1-2,3.3,10.3,10.3,0,0,0-1.4,3.8c-1,5,.6,10.8-3.9,14.5a8.8,8.8,0,0,1-3.5,1.7,1.7,1.7,0,0,1-1.7-.2,11.8,11.8,0,0,1-1.3-1.8,6.8,6.8,0,0,1-1.7-4,3.1,3.1,0,0,1,1.6-2.9c1.7-.7,1-3.6-.8-2.9a6.1,6.1,0,0,0-3.6,7,9.6,9.6,0,0,0,2,4.5c.9,1.3,2,2.9,3.6,3.3s6.2-1.3,8.1-3.1a12.4,12.4,0,0,0,3.6-8.6c.3-3.4-.2-6.9,1.7-9.9a18.7,18.7,0,0,0,2.2-3.9,8.7,8.7,0,0,0-.1-5.3c-1-2.8-2.6-6.7-6-6.9a9.7,9.7,0,0,0-7.7,4.1c-2.3,3.6-.2,7.5-.3,11.3a12.4,12.4,0,0,1-4.7,9.2c-1.5,1.2.6,3.3,2.1,2.1Z" transform="translate(0 -406.6)"/><path class="cls-6" d="M777.4,717.3a31.8,31.8,0,0,0,1.7-7.4,11,11,0,0,0-1.8-7.1,4.4,4.4,0,0,0-1.4-1.3,5.8,5.8,0,0,0-1.9-.3,19.6,19.6,0,0,0-6.8.9c-1.3.4-2.6.9-3.9.4s-2.2-2.2-3.7-2.1-1.7,1.4-2.1,2.5a10,10,0,0,0-.9,4.8c.3,3.6,3.5,6.3,7,7a22.1,22.1,0,0,0,3.7.4,57,57,0,0,1,9.9,1.7" transform="translate(0 -406.6)"/><path class="cls-6" d="M778.9,717.7c1.4-4.8,2.8-10.2.2-14.8a7.2,7.2,0,0,0-2.1-2.5,7.1,7.1,0,0,0-3.8-.8,29,29,0,0,0-7.6,1.4,2.7,2.7,0,0,1-2.8-.7,5.4,5.4,0,0,0-2.7-1.4c-2.4-.1-3.5,2-4.2,4a10.2,10.2,0,0,0-.3,7.1,10.4,10.4,0,0,0,3.9,4.7c2.4,1.5,5,1.7,7.8,1.9a62.8,62.8,0,0,1,9.5,1.6c1.8.5,2.6-2.4.8-2.9s-4.6-1-6.9-1.3-4.4-.3-6.5-.7-6.5-3.2-6.1-6.8a11.7,11.7,0,0,1,.9-3.2c.1-.5.4-1.4.9-1.4s1.2.9,1.5,1.1a5.8,5.8,0,0,0,2.5,1.2c2.1.2,4.2-1,6.3-1.3s4.6-.9,5.8.6c3,3.8,1.2,9.3,0,13.4-.6,1.8,2.3,2.6,2.9.8Z" transform="translate(0 -406.6)"/><path class="cls-6" d="M808.4,692.8a18.8,18.8,0,0,0,1.4-18.1,7.5,7.5,0,0,1-1.1-2.8c-.4-2.7,2.2-4.8,4.6-6.2a4.2,4.2,0,0,1,2.6-.8c1.8.1,2.9,2,3.6,3.7a13.5,13.5,0,0,1,1.6,6.1,4.7,4.7,0,0,0,.1,1.7c.5,2.2,3.7,2.2,5.3,3.7s1.2,5-.5,6.9-4.3,2.8-6.4,4.4l-3.8,3.2a5,5,0,0,1-3.4,1.3,2.2,2.2,0,0,1-2.1-2.5" transform="translate(0 -406.6)"/><path class="cls-6" d="M809.7,693.6a20.4,20.4,0,0,0,3-14.4,18.9,18.9,0,0,0-.9-3.4c-.4-1.3-1.3-2.5-1.6-3.8s2.1-4,3.8-5,1.9-1,2.7-.1a7.4,7.4,0,0,1,1.6,2.7,12.8,12.8,0,0,1,1.3,4.2c.1,1.3-.2,2.6.4,3.8s2.9,2.2,4.5,3,2,3.1.8,4.8-4.6,3.3-6.7,4.9-2.4,2.1-3.6,3a4.6,4.6,0,0,1-1.8,1c-.3.1-1.6.1-1.5-.5a1.7,1.7,0,0,0-1-1.9,1.6,1.6,0,0,0-1.9,1.1c-.5,3.4,3,5.1,5.9,3.9a10.8,10.8,0,0,0,3.7-2.6,30.8,30.8,0,0,1,4.1-3c2.6-1.5,5.2-3.1,6.3-6.1a5.8,5.8,0,0,0-2.2-7l-3.1-1.3c-1.4-.8-.8-2.2-.9-3.5a18.3,18.3,0,0,0-1.4-4.7,11.9,11.9,0,0,0-2.2-3.8c-2.4-2.5-5.3-1.4-7.7.3s-4.4,3.8-4.1,6.7,1.3,3.3,1.9,5a21,21,0,0,1,.9,5,17.1,17.1,0,0,1-2.9,10.1c-1.1,1.7,1.5,3.2,2.6,1.6Z" transform="translate(0 -406.6)"/><path class="cls-6" d="M711.8,744.8a15.9,15.9,0,0,0,0,7.2c.7,2.3,2.9,4.4,5.3,4.1s5.2-3.9,8.1-3.3,2.8,1.9,4.4,1.9,2.6-1.2,3.3-2.4a13.9,13.9,0,0,0,1.3-11.9c-.7-2.2-2.8-4.5-5-3.9s-3.2,2.4-4.7,1.5-1-1.9-1.5-2.9a3.9,3.9,0,0,0-5.1-1.3,9.6,9.6,0,0,0-4,4.2,30.8,30.8,0,0,0-2.9,6.7" transform="translate(0 -406.6)"/><path class="cls-6" d="M710.4,744.4c-.5,3.2-1.1,6.9.8,9.9s4.3,4,7.2,3.1a15.2,15.2,0,0,0,3.3-1.8c.9-.6,2-1.5,3.1-1.3s2.3,1.3,3.5,1.6a4.5,4.5,0,0,0,4.3-.9c2.3-2,3.5-5.4,3.8-8.3a13.5,13.5,0,0,0-1.6-8.6c-1.6-2.6-4.4-4-7.2-2.5a14,14,0,0,1-1.7.9c-.5.3-.6.3-.8-.1a9.5,9.5,0,0,1-.6-1.8,5.1,5.1,0,0,0-1.3-1.6c-2.7-2.1-6.3-1-8.4,1.2s-4.2,6.6-5.3,10.1c-.6,1.8,2.3,2.6,2.9.8a27.9,27.9,0,0,1,3.7-7.8c1-1.5,3.2-3.3,5.1-2.1s.8,1.6,1.2,2.4a3.3,3.3,0,0,0,2.6,2.1,5,5,0,0,0,2.7-.7c.8-.5,1.8-1.4,2.9-.9s2.8,4,2.9,6a12.5,12.5,0,0,1-1.7,7.1c-.5.9-1.3,2.1-2.4,1.9s-1.9-1-2.8-1.4-4.1-.2-5.9,1-4,3-6.1,1.1-1.8-5.8-1.3-8.6-2.6-2.7-2.9-.8Z" transform="translate(0 -406.6)"/><path class="cls-6" d="M729.4,728.5a5.3,5.3,0,0,1,6.5-1.7,19.2,19.2,0,0,1,3.2,2.6c3.1,2.2,7.9,2.3,10.3-.6s1.9-4.6,2.1-7.1-.1-5.6-2.1-7a8.5,8.5,0,0,0-3.8-1.2,29.1,29.1,0,0,0-7.8-.2,21.9,21.9,0,0,0-9.1,4,4,4,0,0,0-1.2,1,5,5,0,0,0-.9,2.1,13.1,13.1,0,0,0-.7,4.4,4.2,4.2,0,0,0,2.3,3.7" transform="translate(0 -406.6)"/><path class="cls-6" d="M730.7,729.2a3.8,3.8,0,0,1,2.6-1.4,4.5,4.5,0,0,1,3.3,1.4,11.2,11.2,0,0,0,6.4,3.2,8.8,8.8,0,0,0,6.5-1.6c2.1-1.7,2.9-4.2,3.3-6.7a16.8,16.8,0,0,0-.3-7.4,6.4,6.4,0,0,0-5.3-4.4,29.8,29.8,0,0,0-9.4-.5,20.4,20.4,0,0,0-8,3c-1.4.8-3,1.7-3.8,3.1a12.8,12.8,0,0,0-1.4,4.3c-.5,2.8,0,6.2,2.9,7.6s3.2-1.8,1.5-2.6-1.6-4-1.1-6a4.3,4.3,0,0,1,1.5-2.6,20.7,20.7,0,0,1,3.2-1.9,16.2,16.2,0,0,1,7.1-2.1l3.9.2a16.7,16.7,0,0,1,3.9.6c2.1.7,2.5,2.8,2.5,4.7a14.9,14.9,0,0,1-.9,6.3c-1.5,3.7-6.3,3.9-9.2,1.7s-3.6-3.3-6.3-3.3a6.8,6.8,0,0,0-5.5,2.9c-1.2,1.6,1.4,3.1,2.6,1.5Z" transform="translate(0 -406.6)"/><path class="cls-6" d="M738,759.7a13.8,13.8,0,0,0,5.1-12.1c-.3-2.6-1.3-5.3-.4-7.7a7.9,7.9,0,0,1,4.4-3.8,4.5,4.5,0,0,1,3.9-.1,5.2,5.2,0,0,1,1.7,2.2c1.2,2.3,2.5,4.9,1.7,7.3s-1.8,3-2.6,4.6c-2.1,4.1-.6,9.2-2.1,13.6a10.6,10.6,0,0,1-7.6,6.6,3.1,3.1,0,0,1-1.9-.1,2.5,2.5,0,0,1-1.3-1.2,11.9,11.9,0,0,1-2.9-5.4c-.4-2.1.5-4.5,2.5-5.2" transform="translate(0 -406.6)"/><path class="cls-6" d="M739.1,760.8a15.6,15.6,0,0,0,5.5-13.2c-.3-2.6-1.7-5.9.1-8.2s4.7-3.5,6.1-1.5,3,5.2,2.1,7.6a23,23,0,0,1-2.1,3.3,11.8,11.8,0,0,0-1.4,3.7c-.9,5,.6,10.9-3.8,14.5a9,9,0,0,1-3.5,1.8c-.7.1-1.2.2-1.7-.3a7.9,7.9,0,0,1-1.4-1.7,7.7,7.7,0,0,1-1.6-4c0-1.1.4-2.5,1.5-2.9s1-3.6-.8-2.9a6.2,6.2,0,0,0-3.6,7,13,13,0,0,0,2,4.5c1,1.3,2,2.9,3.7,3.3s6.1-1.3,8-3.1a13.2,13.2,0,0,0,3.7-8.6c.3-3.4-.2-7,1.6-10a18.3,18.3,0,0,0,2.3-3.8,8,8,0,0,0-.2-5.3c-.9-2.8-2.5-6.7-6-6.9a9.7,9.7,0,0,0-7.7,4.1c-2.3,3.5-.1,7.5-.3,11.3a12.3,12.3,0,0,1-4.6,9.1c-1.5,1.3.6,3.4,2.1,2.2Z" transform="translate(0 -406.6)"/><path class="cls-6" d="M728.6,777a31.6,31.6,0,0,0,1.6-7.4,10.8,10.8,0,0,0-1.8-7.2,4.9,4.9,0,0,0-1.3-1.2,6.5,6.5,0,0,0-1.9-.4,19.6,19.6,0,0,0-6.8.9c-1.3.4-2.7,1-3.9.5s-2.3-2.3-3.7-2.1-1.8,1.4-2.1,2.4a11.9,11.9,0,0,0-1,4.9c.3,3.5,3.6,6.3,7,7a23.3,23.3,0,0,0,3.7.4,53.9,53.9,0,0,1,9.9,1.7" transform="translate(0 -406.6)"/><path class="cls-6" d="M730,777.4c1.5-4.8,2.9-10.2.3-14.8a5.9,5.9,0,0,0-2.2-2.5,6.7,6.7,0,0,0-3.7-.8,27.6,27.6,0,0,0-7.6,1.4,2.6,2.6,0,0,1-2.8-.7,5,5,0,0,0-2.8-1.4c-2.3-.1-3.5,2-4.1,3.9s-1.3,4.8-.4,7.1a9.7,9.7,0,0,0,4,4.7c2.3,1.6,5,1.8,7.7,2a60.8,60.8,0,0,1,9.5,1.6,1.5,1.5,0,0,0,.8-2.9,51,51,0,0,0-6.8-1.3c-2.2-.3-4.4-.3-6.6-.7s-6.4-3.2-6.1-6.8a13.5,13.5,0,0,1,.9-3.3c.2-.4.4-1.3,1-1.3s1.2.9,1.5,1.1a4.4,4.4,0,0,0,2.4,1.1c2.2.3,4.3-.9,6.3-1.2s4.6-.9,5.8.6c3.1,3.8,1.3,9.3,0,13.4-.6,1.8,2.3,2.6,2.9.8Z" transform="translate(0 -406.6)"/><path class="cls-6" d="M759.5,752.5a18.6,18.6,0,0,0,1.4-18.1,9.4,9.4,0,0,1-1-2.8c-.4-2.7,2.1-4.9,4.5-6.2a5.1,5.1,0,0,1,2.7-.9c1.8.2,2.9,2.1,3.6,3.8s1.7,4,1.6,6.1a9.6,9.6,0,0,0,0,1.7c.6,2.2,3.7,2.1,5.4,3.6s1.2,5.1-.6,6.9-4.2,2.9-6.3,4.5-2.5,2.2-3.9,3.2a4.7,4.7,0,0,1-3.4,1.2c-1.2-.1-2.4-1.2-2.1-2.4" transform="translate(0 -406.6)"/><path class="cls-6" d="M760.8,753.2a20.7,20.7,0,0,0,3.1-14.3,20,20,0,0,0-.9-3.5,18,18,0,0,1-1.6-3.8c-.5-2.3,2.1-4,3.8-4.9s1.8-1,2.7-.2a9.7,9.7,0,0,1,1.6,2.8,18.7,18.7,0,0,1,1.3,4.2c.1,1.3-.2,2.5.4,3.8s2.8,2.1,4.5,2.9,2,3.2.8,4.9-4.6,3.3-6.8,4.9-2.3,2.1-3.5,3a5,5,0,0,1-1.9,1c-.2.1-1.5.1-1.4-.5a1.6,1.6,0,0,0-1.1-1.9,1.5,1.5,0,0,0-1.8,1.1c-.5,3.4,3,5.1,5.9,3.9a13.7,13.7,0,0,0,3.7-2.6,37.9,37.9,0,0,1,4-3c2.6-1.6,5.2-3.2,6.3-6.1a5.6,5.6,0,0,0-2.2-7,27.1,27.1,0,0,0-3-1.3c-1.4-.8-.8-2.2-1-3.6a15.3,15.3,0,0,0-1.4-4.6,10.1,10.1,0,0,0-2.2-3.9c-2.3-2.4-5.3-1.3-7.7.4s-4.3,3.8-4,6.7,1.2,3.3,1.8,5a14.3,14.3,0,0,1,.9,5,17.3,17.3,0,0,1-2.9,10.1c-1,1.6,1.6,3.1,2.6,1.5Z" transform="translate(0 -406.6)"/><path class="cls-6" d="M679.9,692.5c-.4,2.5-.8,5-.1,7.3s2.9,4.4,5.4,4.1,5.2-3.9,8.1-3.3,2.8,1.9,4.4,1.9,2.5-1.2,3.3-2.4a13.9,13.9,0,0,0,1.3-11.9c-.8-2.2-2.8-4.5-5.1-3.9s-3.2,2.4-4.6,1.5-1-1.9-1.5-2.9-3.4-2.2-5.2-1.3a8.8,8.8,0,0,0-3.9,4.2,32.7,32.7,0,0,0-3,6.6" transform="translate(0 -406.6)"/><path class="cls-6" d="M678.5,692.1c-.6,3.3-1.1,7,.7,10s4.4,4,7.2,3.1a13.2,13.2,0,0,0,3.3-1.8c.9-.6,2-1.5,3.2-1.3s2.3,1.3,3.5,1.6a4.3,4.3,0,0,0,4.2-.9c2.4-2,3.5-5.4,3.9-8.3a13.4,13.4,0,0,0-1.7-8.6c-1.6-2.6-4.3-4-7.2-2.5a14,14,0,0,1-1.7.9c-.5.3-.5.3-.8-.1s-.3-1.2-.6-1.8a4,4,0,0,0-1.3-1.6c-2.6-2.1-6.2-1.1-8.4,1.2s-4.1,6.6-5.2,10,2.3,2.7,2.9.8a27.1,27.1,0,0,1,3.6-7.7c1.1-1.5,3.2-3.4,5.1-2.1s.9,1.6,1.2,2.4a3.3,3.3,0,0,0,2.7,2.1,4.8,4.8,0,0,0,2.6-.7c.9-.5,1.9-1.4,2.9-1s2.8,4,2.9,6.1a11.8,11.8,0,0,1-1.6,7.1c-.5.8-1.3,2.1-2.4,1.9s-1.9-1-2.9-1.4-4-.2-5.9,1-3.9,3-6,1.1-1.8-5.8-1.4-8.7-2.5-2.7-2.8-.8Z" transform="translate(0 -406.6)"/><path class="cls-6" d="M697.4,676.3a5.3,5.3,0,0,1,6.5-1.7,16.4,16.4,0,0,1,3.3,2.6c3,2.2,7.8,2.3,10.3-.6s1.9-4.6,2-7.1,0-5.6-2.1-7.1a9.4,9.4,0,0,0-3.8-1.1,29.1,29.1,0,0,0-7.8-.2,22.5,22.5,0,0,0-9.1,4l-1.2,1a6.6,6.6,0,0,0-.8,2.1,11.1,11.1,0,0,0-.8,4.4,4.5,4.5,0,0,0,2.4,3.7" transform="translate(0 -406.6)"/><path class="cls-6" d="M698.7,677a4,4,0,0,1,2.7-1.4,4.7,4.7,0,0,1,3.3,1.4,11.2,11.2,0,0,0,6.3,3.2,8.7,8.7,0,0,0,6.6-1.7,9.7,9.7,0,0,0,3.2-6.6,18.4,18.4,0,0,0-.2-7.4,6.8,6.8,0,0,0-5.4-4.5,32.8,32.8,0,0,0-9.4-.4,21.6,21.6,0,0,0-8,3,11.3,11.3,0,0,0-3.8,3.1,15.5,15.5,0,0,0-1.4,4.3c-.5,2.8,0,6.2,2.9,7.6s3.3-1.8,1.5-2.6-1.6-4-1-6a3.9,3.9,0,0,1,1.5-2.6l3.2-2a17.6,17.6,0,0,1,7.1-2l3.9.2a16.7,16.7,0,0,1,3.9.6c2,.7,2.4,2.8,2.5,4.7a16.6,16.6,0,0,1-.9,6.3c-1.6,3.7-6.4,3.9-9.3,1.6s-3.5-3.2-6.2-3.2a7,7,0,0,0-5.6,2.9c-1.1,1.6,1.5,3,2.6,1.5Z" transform="translate(0 -406.6)"/><path class="cls-6" d="M706.1,707.5a13.7,13.7,0,0,0,5-12.1c-.3-2.6-1.3-5.3-.3-7.7a7.4,7.4,0,0,1,4.3-3.8,4.7,4.7,0,0,1,4-.1,6.2,6.2,0,0,1,1.7,2.2c1.2,2.3,2.4,4.9,1.7,7.3s-1.8,3-2.6,4.6c-2.2,4.1-.6,9.2-2.1,13.6a10.6,10.6,0,0,1-7.6,6.6,3.1,3.1,0,0,1-1.9-.1,3.2,3.2,0,0,1-1.4-1.2,11.9,11.9,0,0,1-2.9-5.4c-.3-2.1.6-4.5,2.6-5.2" transform="translate(0 -406.6)"/><path class="cls-6" d="M707.1,708.5a15,15,0,0,0,5.5-13.1c-.2-2.6-1.7-5.9.2-8.2s4.6-3.5,6.1-1.5,2.9,5.2,2,7.6a22.3,22.3,0,0,1-2,3.3,9.8,9.8,0,0,0-1.4,3.7c-1,5,.6,10.8-3.9,14.5a7.8,7.8,0,0,1-3.5,1.8c-.7.1-1.1.2-1.6-.3a5.8,5.8,0,0,1-1.4-1.7,8.8,8.8,0,0,1-1.7-4,3.1,3.1,0,0,1,1.6-2.9c1.7-.7,1-3.6-.8-2.9a6.1,6.1,0,0,0-3.6,7,11.3,11.3,0,0,0,2,4.5c.9,1.3,2,2.9,3.6,3.3s6.2-1.3,8.1-3.1a12.8,12.8,0,0,0,3.6-8.6c.3-3.4-.2-7,1.7-10a17.9,17.9,0,0,0,2.2-3.8,8.7,8.7,0,0,0-.1-5.3c-1-2.8-2.6-6.7-6-6.9A9.5,9.5,0,0,0,710,686c-2.3,3.5-.2,7.5-.3,11.3a12.1,12.1,0,0,1-4.7,9.1c-1.5,1.2.7,3.4,2.1,2.1Z" transform="translate(0 -406.6)"/><path class="cls-6" d="M696.6,724.7a31,31,0,0,0,1.7-7.3,10.7,10.7,0,0,0-1.8-7.2,4.1,4.1,0,0,0-1.4-1.2,5.8,5.8,0,0,0-1.9-.4,19.6,19.6,0,0,0-6.8.9c-1.3.4-2.6,1-3.9.5s-2.2-2.3-3.6-2.1-1.8,1.4-2.2,2.4a10.4,10.4,0,0,0-.9,4.9c.3,3.5,3.5,6.3,7,7a22.1,22.1,0,0,0,3.7.4,57,57,0,0,1,9.9,1.7" transform="translate(0 -406.6)"/><path class="cls-6" d="M698.1,725.1c1.4-4.7,2.9-10.1.3-14.7a7.6,7.6,0,0,0-2.2-2.5,7.1,7.1,0,0,0-3.8-.8,27.6,27.6,0,0,0-7.5,1.4,2.8,2.8,0,0,1-2.9-.7,4.7,4.7,0,0,0-2.7-1.4c-2.4-.1-3.5,2-4.2,3.9a10.2,10.2,0,0,0-.3,7.1,9.5,9.5,0,0,0,3.9,4.7c2.4,1.6,5.1,1.8,7.8,2a60.8,60.8,0,0,1,9.5,1.6c1.8.5,2.6-2.4.8-2.9a55.8,55.8,0,0,0-6.9-1.3c-2.1-.3-4.4-.3-6.5-.7s-6.5-3.2-6.1-6.8a12.4,12.4,0,0,1,.9-3.3c.1-.4.4-1.3.9-1.3s1.2.9,1.5,1.1a4.7,4.7,0,0,0,2.5,1.1c2.1.3,4.2-.9,6.3-1.2s4.6-.9,5.8.6c3,3.8,1.2,9.3,0,13.4-.6,1.8,2.3,2.6,2.9.7Z" transform="translate(0 -406.6)"/><path class="cls-6" d="M727.6,700.3a18.8,18.8,0,0,0,1.4-18.1,7.5,7.5,0,0,1-1.1-2.8c-.3-2.7,2.2-4.9,4.6-6.2a5.1,5.1,0,0,1,2.6-.9c1.8.2,2.9,2.1,3.6,3.8a14.7,14.7,0,0,1,1.7,6.1,4.9,4.9,0,0,0,0,1.7c.6,2.2,3.7,2.1,5.4,3.6s1.2,5.1-.6,6.9-4.3,2.9-6.3,4.4-2.6,2.3-3.9,3.3a4.9,4.9,0,0,1-3.4,1.2,2.2,2.2,0,0,1-2.1-2.5" transform="translate(0 -406.6)"/><path class="cls-6" d="M728.9,701a20.2,20.2,0,0,0,2.1-17.8c-.4-1.2-1.3-2.5-1.6-3.8s2.1-4,3.8-4.9,1.9-1,2.8-.2a8.4,8.4,0,0,1,1.5,2.8,12.1,12.1,0,0,1,1.3,4.2c.2,1.3-.2,2.5.4,3.8s2.9,2.1,4.5,2.9,2,3.2.8,4.9-4.6,3.3-6.7,4.9-2.3,2.1-3.6,3a5.2,5.2,0,0,1-1.8,1c-.3,0-1.6.1-1.5-.6a1.5,1.5,0,0,0-1-1.8c-.7-.2-1.8.2-1.9,1-.5,3.5,3,5.2,6,4a15.5,15.5,0,0,0,3.7-2.6,24.6,24.6,0,0,1,4-3c2.6-1.6,5.2-3.2,6.3-6.2a5.7,5.7,0,0,0-2.2-6.9c-1-.6-2.1-.8-3-1.3s-.9-2.2-1-3.6a18.8,18.8,0,0,0-1.4-4.6,13.6,13.6,0,0,0-2.2-3.9c-2.4-2.4-5.3-1.3-7.7.4s-4.4,3.8-4.1,6.7,1.3,3.3,1.9,5a21,21,0,0,1,.9,5,17.3,17.3,0,0,1-2.9,10.1c-1.1,1.6,1.5,3.1,2.6,1.5Z" transform="translate(0 -406.6)"/><path class="cls-6" d="M633.5,752.7c-.4,2.4-.8,5-.1,7.3s2.9,4.4,5.3,4.1,5.2-3.9,8.1-3.3,2.8,1.8,4.4,1.8a4,4,0,0,0,3.3-2.3,14.2,14.2,0,0,0,1.4-11.9c-.8-2.2-2.9-4.5-5.1-3.9s-3.2,2.4-4.7,1.5-.9-1.9-1.5-2.9-3.3-2.2-5.1-1.4a9.8,9.8,0,0,0-4,4.3,32.3,32.3,0,0,0-2.9,6.6" transform="translate(0 -406.6)"/><path class="cls-6" d="M632,752.3c-.5,3.3-1.1,7,.8,10s4.3,4,7.2,3.1a15.2,15.2,0,0,0,3.3-1.8c.9-.6,2-1.5,3.1-1.4s2.3,1.4,3.5,1.7a4.4,4.4,0,0,0,4.3-.9c2.3-2,3.5-5.4,3.8-8.3s0-6.2-1.6-8.6-4.4-4-7.2-2.5a14,14,0,0,1-1.7.9c-.5.3-.5.3-.8-.1a9.5,9.5,0,0,1-.6-1.8,5.1,5.1,0,0,0-1.3-1.6c-2.7-2.1-6.3-1.1-8.4,1.2s-4.1,6.5-5.3,10c-.6,1.9,2.3,2.7,2.9.8a27.4,27.4,0,0,1,3.7-7.7c1-1.5,3.2-3.4,5.1-2.1s.8,1.6,1.2,2.4a3.3,3.3,0,0,0,2.7,2.1,4.8,4.8,0,0,0,2.6-.7c.9-.5,1.8-1.4,2.9-1s2.8,4,2.9,6a12.2,12.2,0,0,1-1.7,7.2c-.5.8-1.3,2.1-2.4,1.9s-1.9-1-2.8-1.4-4.1-.2-5.9.9-4,3.1-6.1,1.2-1.8-5.8-1.3-8.7-2.6-2.7-2.9-.8Z" transform="translate(0 -406.6)"/><path class="cls-6" d="M651,736.5a5.3,5.3,0,0,1,6.5-1.7,25,25,0,0,1,3.3,2.6c3,2.2,7.8,2.3,10.2-.6s2-4.6,2.1-7.1,0-5.6-2.1-7.1a9.8,9.8,0,0,0-3.8-1.1,29.1,29.1,0,0,0-7.8-.2,21.9,21.9,0,0,0-9.1,4,5.8,5.8,0,0,0-1.2,1,5.2,5.2,0,0,0-.9,2,14.1,14.1,0,0,0-.7,4.5,4.3,4.3,0,0,0,2.3,3.7" transform="translate(0 -406.6)"/><path class="cls-6" d="M652.3,737.2a3.8,3.8,0,0,1,2.6-1.4,4.9,4.9,0,0,1,3.4,1.4c1.9,1.6,3.7,2.9,6.3,3.2a8.4,8.4,0,0,0,6.5-1.7c2.1-1.6,2.9-4.1,3.3-6.6a16.8,16.8,0,0,0-.3-7.4,6.5,6.5,0,0,0-5.3-4.5,33,33,0,0,0-9.4-.4,20.4,20.4,0,0,0-8,3c-1.4.8-3,1.7-3.8,3.1a12.1,12.1,0,0,0-1.4,4.3c-.5,2.8,0,6.2,2.9,7.6s3.2-1.8,1.5-2.6-1.6-4-1.1-6a4.3,4.3,0,0,1,1.5-2.6l3.2-2a17.6,17.6,0,0,1,7.1-2l3.9.2a16.7,16.7,0,0,1,3.9.6c2.1.7,2.5,2.8,2.5,4.7a13.6,13.6,0,0,1-.9,6.3c-1.5,3.7-6.3,3.9-9.2,1.6s-3.6-3.2-6.3-3.2a6.8,6.8,0,0,0-5.5,2.9c-1.2,1.5,1.4,3,2.6,1.5Z" transform="translate(0 -406.6)"/><path class="cls-6" d="M659.6,767.7a13.9,13.9,0,0,0,5.1-12.1c-.3-2.6-1.3-5.3-.4-7.7a7.6,7.6,0,0,1,4.4-3.8c1.2-.5,2.8-.8,3.9-.1a5.2,5.2,0,0,1,1.7,2.2c1.2,2.3,2.5,4.9,1.8,7.3s-1.8,3-2.7,4.6c-2.1,4.1-.6,9.2-2.1,13.6a10.2,10.2,0,0,1-7.6,6.6,3.1,3.1,0,0,1-1.9-.1,3,3,0,0,1-1.3-1.2,11.9,11.9,0,0,1-2.9-5.4c-.4-2.1.6-4.5,2.5-5.2" transform="translate(0 -406.6)"/><path class="cls-6" d="M660.7,768.7a15.3,15.3,0,0,0,5.5-13.1c-.3-2.6-1.7-5.9.2-8.2s4.6-3.5,6-1.5,3,5.2,2.1,7.6a23,23,0,0,1-2.1,3.3,14.9,14.9,0,0,0-1.4,3.7c-.9,5,.6,10.8-3.8,14.5a8.4,8.4,0,0,1-3.5,1.8c-.7.1-1.2.2-1.7-.3a20.9,20.9,0,0,1-1.4-1.7,7.7,7.7,0,0,1-1.6-4.1c0-1,.4-2.4,1.5-2.8s1-3.6-.8-2.9a6.1,6.1,0,0,0-3.6,7,10.6,10.6,0,0,0,2.1,4.4c.9,1.4,1.9,3,3.6,3.4s6.1-1.3,8-3.1a13.4,13.4,0,0,0,3.7-8.6c.3-3.4-.2-7,1.6-10a18.3,18.3,0,0,0,2.3-3.8,8,8,0,0,0-.2-5.3c-.9-2.8-2.5-6.7-6-6.9a9.4,9.4,0,0,0-7.6,4.1c-2.4,3.5-.2,7.5-.4,11.3a12.3,12.3,0,0,1-4.6,9.1c-1.5,1.2.6,3.4,2.1,2.1Z" transform="translate(0 -406.6)"/><path class="cls-6" d="M650.2,784.9a30.8,30.8,0,0,0,1.6-7.3,10.7,10.7,0,0,0-1.8-7.2,3.7,3.7,0,0,0-1.3-1.2,4.3,4.3,0,0,0-1.9-.4,19.6,19.6,0,0,0-6.8.9c-1.3.4-2.7,1-3.9.4s-2.3-2.2-3.7-2-1.7,1.3-2.1,2.4a11.9,11.9,0,0,0-1,4.9c.3,3.5,3.6,6.3,7,7l3.7.4a63.9,63.9,0,0,1,9.9,1.6" transform="translate(0 -406.6)"/><path class="cls-6" d="M651.6,785.3c1.5-4.7,2.9-10.1.3-14.7a5.9,5.9,0,0,0-2.2-2.5,6.7,6.7,0,0,0-3.7-.8,31.8,31.8,0,0,0-7.6,1.3,2.4,2.4,0,0,1-2.8-.6,5,5,0,0,0-2.8-1.4c-2.3-.1-3.4,2-4.1,3.9s-1.3,4.8-.4,7.1a9.7,9.7,0,0,0,4,4.7c2.3,1.6,5,1.8,7.7,2a51,51,0,0,1,9.5,1.6,1.5,1.5,0,0,0,.8-2.9,51,51,0,0,0-6.8-1.3c-2.2-.3-4.4-.3-6.6-.7s-6.4-3.2-6.1-6.9a19.2,19.2,0,0,1,.9-3.2c.2-.4.5-1.3,1-1.3s1.2.9,1.5,1.1a4.4,4.4,0,0,0,2.4,1.1c2.2.3,4.3-.9,6.3-1.3s4.6-.8,5.8.7c3.1,3.7,1.3,9.3,0,13.3-.6,1.9,2.3,2.7,2.9.8Z" transform="translate(0 -406.6)"/><path class="cls-6" d="M681.1,760.5a18.6,18.6,0,0,0,1.4-18.1,9.4,9.4,0,0,1-1-2.8c-.4-2.7,2.1-4.9,4.5-6.2a5.1,5.1,0,0,1,2.7-.9c1.8.2,2.9,2.1,3.6,3.8s1.7,4,1.6,6.1a9.6,9.6,0,0,0,0,1.7c.6,2.2,3.8,2.1,5.4,3.6s1.2,5-.6,6.9-4.2,2.9-6.3,4.4-2.5,2.3-3.9,3.3a4.7,4.7,0,0,1-3.4,1.2A2.3,2.3,0,0,1,683,761" transform="translate(0 -406.6)"/><path class="cls-6" d="M682.4,761.2a20.8,20.8,0,0,0,3.1-14.4,21.4,21.4,0,0,0-.9-3.4,18,18,0,0,1-1.6-3.8c-.4-2.3,2.1-4,3.8-4.9s1.8-1,2.7-.2a7.1,7.1,0,0,1,1.6,2.8,12.1,12.1,0,0,1,1.3,4.2c.1,1.3-.2,2.5.4,3.7s2.8,2.2,4.5,3,2,3.1.8,4.9-4.6,3.3-6.8,4.9-2.3,2.1-3.5,3a6.9,6.9,0,0,1-1.9,1c-.2,0-1.5.1-1.4-.6a1.5,1.5,0,0,0-1.1-1.8,1.4,1.4,0,0,0-1.8,1c-.5,3.5,3,5.2,5.9,4a13.7,13.7,0,0,0,3.7-2.6,37.9,37.9,0,0,1,4-3c2.6-1.6,5.2-3.2,6.3-6.2a5.5,5.5,0,0,0-2.1-6.9c-1-.6-2.1-.8-3.1-1.4s-.8-2.1-1-3.5a12.9,12.9,0,0,0-1.4-4.6,10.1,10.1,0,0,0-2.2-3.9c-2.3-2.4-5.3-1.3-7.7.3s-4.3,3.9-4,6.8,1.2,3.3,1.8,5a14.3,14.3,0,0,1,.9,5,17.9,17.9,0,0,1-2.8,10.1c-1.1,1.6,1.5,3.1,2.5,1.5Z" transform="translate(0 -406.6)"/><path class="cls-6" d="M1097.4,678c-.4,2.4-.8,4.9-.1,7.3s3,4.4,5.4,4.1,5.2-3.9,8.1-3.3,2.8,1.8,4.4,1.8,2.5-1.2,3.3-2.4a13.8,13.8,0,0,0,1.3-11.9c-.8-2.2-2.8-4.5-5.1-3.8s-3.1,2.3-4.6,1.4-1-1.9-1.5-2.8-3.4-2.2-5.2-1.4a9.4,9.4,0,0,0-3.9,4.2,33.1,33.1,0,0,0-2.9,6.7" transform="translate(0 -406.6)"/><path class="cls-6" d="M1096,677.6c-.6,3.3-1.1,7,.8,9.9s4.3,4,7.2,3.1a11.9,11.9,0,0,0,3.3-1.8,5.1,5.1,0,0,1,3.1-1.3c1.2.2,2.3,1.3,3.5,1.7a4.5,4.5,0,0,0,4.3-1c2.3-1.9,3.4-5.3,3.8-8.3a14.3,14.3,0,0,0-1.6-8.6c-1.7-2.5-4.4-3.9-7.3-2.5l-1.6,1c-.5.2-.6.3-.8-.2s-.4-1.2-.7-1.7a4.3,4.3,0,0,0-1.3-1.7c-2.6-2-6.2-1-8.4,1.2s-4.1,6.6-5.2,10.1c-.6,1.8,2.3,2.6,2.9.8a27.4,27.4,0,0,1,3.7-7.7c1-1.5,3.2-3.4,5.1-2.1s.8,1.6,1.1,2.4a3.3,3.3,0,0,0,2.7,2,3.9,3.9,0,0,0,2.6-.7c.9-.5,1.9-1.3,2.9-.9s2.8,4,3,6a13,13,0,0,1-1.7,7.2c-.5.8-1.3,2-2.4,1.9s-1.9-1.1-2.8-1.4-4.1-.3-5.9.9-4,3-6.1,1.1-1.8-5.8-1.3-8.6-2.6-2.7-2.9-.8Z" transform="translate(0 -406.6)"/><path class="cls-6" d="M1114.9,661.7a5.3,5.3,0,0,1,6.5-1.6,20.4,20.4,0,0,1,3.3,2.5c3,2.3,7.8,2.3,10.3-.6s1.9-4.5,2.1-7-.1-5.6-2.2-7.1a6.8,6.8,0,0,0-3.8-1.1,28.4,28.4,0,0,0-7.7-.3,21.5,21.5,0,0,0-9.1,4.1,2.9,2.9,0,0,0-1.2,1,5.2,5.2,0,0,0-.9,2,11.8,11.8,0,0,0-.7,4.5,4,4,0,0,0,2.3,3.6" transform="translate(0 -406.6)"/><path class="cls-6" d="M1116.2,662.5a4,4,0,0,1,2.7-1.4,4.3,4.3,0,0,1,3.3,1.4,11.9,11.9,0,0,0,6.3,3.2,8.7,8.7,0,0,0,6.6-1.7,9.7,9.7,0,0,0,3.2-6.7,15,15,0,0,0-.2-7.3,6.5,6.5,0,0,0-5.4-4.5,32.3,32.3,0,0,0-9.3-.5,21.6,21.6,0,0,0-8.1,3.1c-1.3.8-2.9,1.6-3.7,3a11.4,11.4,0,0,0-1.4,4.3c-.6,2.9-.1,6.3,2.8,7.6s3.3-1.7,1.5-2.5-1.6-4.1-1-6.1a4.3,4.3,0,0,1,1.5-2.6,33.7,33.7,0,0,1,3.2-1.9,14.9,14.9,0,0,1,7.1-2,17,17,0,0,1,3.9.2,16.7,16.7,0,0,1,3.9.6c2,.6,2.4,2.7,2.5,4.6a16.6,16.6,0,0,1-.9,6.3c-1.6,3.7-6.4,3.9-9.2,1.7s-3.6-3.2-6.3-3.2a7,7,0,0,0-5.6,2.9c-1.1,1.5,1.5,3,2.6,1.5Z" transform="translate(0 -406.6)"/><path class="cls-6" d="M1123.6,692.9a13.4,13.4,0,0,0,5-12.1c-.2-2.5-1.3-5.2-.3-7.6a7,7,0,0,1,4.3-3.8,3.8,3.8,0,0,1,5.7,2.1c1.2,2.2,2.4,4.8,1.7,7.3s-1.8,3-2.6,4.5c-2.1,4.1-.6,9.3-2.1,13.6a10.7,10.7,0,0,1-7.6,6.7,4,4,0,0,1-1.9-.1,3.2,3.2,0,0,1-1.4-1.2,12.7,12.7,0,0,1-2.9-5.5c-.3-2,.6-4.4,2.6-5.1" transform="translate(0 -406.6)"/><path class="cls-6" d="M1124.7,694a15,15,0,0,0,5.4-13.2c-.2-2.5-1.6-5.9.2-8.1s4.6-3.5,6.1-1.5,3,5.2,2,7.6a13.2,13.2,0,0,1-2,3.2,13.4,13.4,0,0,0-1.4,3.8c-1,5,.6,10.8-3.9,14.5a8.8,8.8,0,0,1-3.5,1.7,1.4,1.4,0,0,1-1.6-.2,7.9,7.9,0,0,1-1.4-1.8,7.4,7.4,0,0,1-1.6-4,3.1,3.1,0,0,1,1.5-2.9c1.8-.7,1-3.6-.8-2.9a6.3,6.3,0,0,0-3.6,7,11.5,11.5,0,0,0,2,4.5c1,1.3,2,2.9,3.6,3.4s6.2-1.3,8.1-3.2a13,13,0,0,0,3.7-8.6c.2-3.3-.2-6.9,1.6-9.9a20.8,20.8,0,0,0,2.2-3.8,8.3,8.3,0,0,0-.1-5.4c-1-2.8-2.6-6.7-6-6.8a9.3,9.3,0,0,0-7.7,4.1c-2.3,3.5-.1,7.4-.3,11.2a12.4,12.4,0,0,1-4.7,9.2c-1.5,1.2.7,3.3,2.2,2.1Z" transform="translate(0 -406.6)"/><path class="cls-6" d="M1114.1,710.2a31,31,0,0,0,1.7-7.3,10.6,10.6,0,0,0-1.8-7.2,3.2,3.2,0,0,0-1.4-1.2,3.7,3.7,0,0,0-1.8-.4,20.2,20.2,0,0,0-6.9.9c-1.2.4-2.6.9-3.9.4s-2.2-2.2-3.6-2-1.8,1.3-2.2,2.4a13.3,13.3,0,0,0-.9,4.9c.3,3.5,3.5,6.2,7,6.9a23.5,23.5,0,0,0,3.7.5,55.2,55.2,0,0,1,9.9,1.6" transform="translate(0 -406.6)"/><path class="cls-6" d="M1115.6,710.6c1.5-4.7,2.9-10.1.3-14.8a8.8,8.8,0,0,0-2.2-2.5,7,7,0,0,0-3.8-.7,27.5,27.5,0,0,0-7.5,1.3,2.8,2.8,0,0,1-2.9-.7,4.6,4.6,0,0,0-2.7-1.3c-2.4-.2-3.5,2-4.2,3.9a10.2,10.2,0,0,0-.3,7.1,9.5,9.5,0,0,0,3.9,4.7c2.4,1.5,5.1,1.7,7.8,2a51,51,0,0,1,9.5,1.6c1.9.4,2.7-2.5.8-2.9a56.3,56.3,0,0,0-6.9-1.4c-2.1-.3-4.4-.2-6.5-.7s-6.5-3.2-6.1-6.8a11.7,11.7,0,0,1,.9-3.2c.1-.4.4-1.3,1-1.4s1.1.9,1.4,1.2a6.2,6.2,0,0,0,2.5,1.1c2.1.2,4.2-.9,6.3-1.3s4.6-.8,5.8.7c3.1,3.7,1.3,9.2,0,13.3-.6,1.9,2.3,2.6,2.9.8Z" transform="translate(0 -406.6)"/><path class="cls-6" d="M1145.1,685.7a18.6,18.6,0,0,0,1.4-18.1,15.3,15.3,0,0,1-1.1-2.7c-.3-2.8,2.2-4.9,4.6-6.3a5,5,0,0,1,2.6-.8c1.9.1,2.9,2.1,3.7,3.7s1.7,4,1.6,6.1a10.8,10.8,0,0,0,0,1.8c.6,2.1,3.7,2.1,5.4,3.6s1.2,5-.6,6.9-4.3,2.9-6.3,4.4-2.6,2.2-3.9,3.2a5,5,0,0,1-3.4,1.3,2.3,2.3,0,0,1-2.1-2.5" transform="translate(0 -406.6)"/><path class="cls-6" d="M1146.4,686.5a20.2,20.2,0,0,0,3-14.4,13.1,13.1,0,0,0-.9-3.4c-.4-1.3-1.3-2.5-1.5-3.8s2-4,3.7-5,1.9-.9,2.8-.1a9.2,9.2,0,0,1,1.6,2.7,20.4,20.4,0,0,1,1.3,4.2c.1,1.3-.3,2.6.4,3.8s2.8,2.2,4.5,3,1.9,3.1.7,4.8-4.6,3.3-6.7,5-2.3,2-3.6,3a3.8,3.8,0,0,1-1.8.9c-.3.1-1.6.1-1.5-.5a1.4,1.4,0,0,0-1-1.8,1.5,1.5,0,0,0-1.9,1c-.4,3.4,3,5.2,6,4a15.5,15.5,0,0,0,3.7-2.6,19,19,0,0,1,4-3c2.6-1.6,5.2-3.2,6.3-6.2s.3-5.5-2.2-6.9a27.5,27.5,0,0,0-3-1.4c-1.4-.7-.8-2.1-1-3.5a18.3,18.3,0,0,0-1.4-4.7,14.5,14.5,0,0,0-2.2-3.8c-2.3-2.4-5.3-1.4-7.7.3s-4.4,3.9-4.1,6.8,1.3,3.3,1.9,4.9a22.8,22.8,0,0,1,.9,5.1,17.3,17.3,0,0,1-2.9,10.1c-1.1,1.6,1.5,3.1,2.6,1.5Z" transform="translate(0 -406.6)"/><path class="cls-6" d="M1159.1,616.7a15.5,15.5,0,0,0-4.8,5.4c-1,2.2-.7,5.2,1.4,6.6s6.4.4,8.3,2.8.9,3.2,2.1,4.3a4.3,4.3,0,0,0,4,.4,13.8,13.8,0,0,0,8.8-8.2c.9-2.2.8-5.2-1.3-6.2s-3.9-.3-4.5-1.9.5-2.1.8-3.2-1.1-3.9-3-4.4a9,9,0,0,0-5.8.6,33.1,33.1,0,0,0-6.6,3.1" transform="translate(0 -406.6)"/><path class="cls-6" d="M1158.1,615.6c-2.4,1.9-4.9,4.2-5.6,7.3s.1,5.7,2.5,7.2a11,11,0,0,0,3.5,1.1c1.2.1,2.8.1,3.8.8s1.1,2.2,1.6,3.3a4.6,4.6,0,0,0,3.3,2.6c2.9.5,6-1.1,8.2-2.8a15.4,15.4,0,0,0,5.2-7.3c.7-2.3.5-5.5-1.7-7a11,11,0,0,0-3.5-1.1c-.5-.1-.8-.1-.8-.5s.3-.8.3-1a7.8,7.8,0,0,0,.5-1.4c.6-3.7-3-6.2-6.3-6.3s-8.1,2.2-11.3,4.2a1.5,1.5,0,0,0,1.5,2.6,28.6,28.6,0,0,1,8-3.5c1.3-.3,2.9-.5,4.1.4a2.2,2.2,0,0,1,.8,2.8c-.4,1.2-.9,2.2-.4,3.5a3.3,3.3,0,0,0,2.4,2,21.4,21.4,0,0,1,2.7.6c.9.4,1,1.4,1,2.3,0,4.4-4.8,8.8-9,9.5-1.2.2-1.9,0-2.4-1.1a10.1,10.1,0,0,0-1.4-3.2c-1.4-1.9-3.7-2.1-5.9-2.3a6.3,6.3,0,0,1-3-1,3.7,3.7,0,0,1-.9-3c.2-2.9,2.9-4.9,4.9-6.6s-.7-3.3-2.1-2.1Z" transform="translate(0 -406.6)"/><path class="cls-6" d="M1183,615.8a5.3,5.3,0,0,1,6,3,27,27,0,0,1,.8,4.1c.8,3.7,4.4,6.9,8.2,6.3s4.4-2.2,6.2-4,3.6-4.2,3-6.7a9.2,9.2,0,0,0-2.1-3.4,32.3,32.3,0,0,0-5.8-5.3,23.9,23.9,0,0,0-9.5-2.9,7.5,7.5,0,0,0-1.5,0,8.1,8.1,0,0,0-2.1,1,13.4,13.4,0,0,0-3.4,2.9,4.5,4.5,0,0,0-.7,4.3" transform="translate(0 -406.6)"/><path class="cls-6" d="M1183.4,617.3c2.5-.6,4.2,1.3,4.6,3.5a18,18,0,0,0,.8,3.9,11.7,11.7,0,0,0,1.9,3,8.4,8.4,0,0,0,6.2,3c2.7.1,5-1.3,6.9-3.1s4-3.8,4.8-6.4-.7-5.1-2.5-7.1a27.2,27.2,0,0,0-6.4-5.8,21.3,21.3,0,0,0-8.2-2.6,7.9,7.9,0,0,0-4.3,0,12.8,12.8,0,0,0-3.7,2.3c-2.5,1.9-4,4.8-2.7,7.8s3.4.3,2.6-1.5,1.9-4,3.4-5a3.8,3.8,0,0,1,2.6-.9,22,22,0,0,1,3.7.6,16.3,16.3,0,0,1,6.6,2.9,31.7,31.7,0,0,1,4.8,4.9,3.9,3.9,0,0,1,1.3,2.8,6.8,6.8,0,0,1-1.4,3.1,16.3,16.3,0,0,1-4.8,4.3c-3.8,2.1-7.7-1.1-8.4-4.9s-.6-4.5-2.5-6.2a7.1,7.1,0,0,0-6.1-1.5c-1.9.4-1.1,3.3.8,2.9Z" transform="translate(0 -406.6)"/><path class="cls-6" d="M1169.1,645.1a13.8,13.8,0,0,0,11.8-5.9c1.4-2.1,2.4-4.8,4.7-6a7.3,7.3,0,0,1,5.8,0,4.2,4.2,0,0,1,3,2.5,5.3,5.3,0,0,1-.1,2.8c-.6,2.5-1.3,5.2-3.5,6.6s-3.3,1.1-4.9,1.8c-4.3,1.6-6.6,6.5-10.6,8.8a10.2,10.2,0,0,1-10,.1,2.9,2.9,0,0,1-1.4-1.3,3.8,3.8,0,0,1-.3-1.8c.1-2.1.3-4.3,1.4-6s3.4-3,5.3-2.2" transform="translate(0 -406.6)"/><path class="cls-6" d="M1169.1,646.6a15.6,15.6,0,0,0,13.3-6.9c1.2-1.9,2.2-4.8,4.7-5.4s6.2.2,5.9,2.8-1,5.4-2.9,6.7a14,14,0,0,1-3.9,1.4,10.1,10.1,0,0,0-3.3,1.6c-3.9,2.8-6.3,8-11.4,8.7a9.4,9.4,0,0,1-4.4-.5,3.5,3.5,0,0,1-1.9-1.2c-.3-.6,0-1.6,0-2.1.2-2.4,1.4-6.9,4.7-5.8s2.6-2.3.8-2.9-6.2,1-7.5,3.8a14.5,14.5,0,0,0-1,5.1c-.1,1.7-.1,3.3,1.3,4.5a11.1,11.1,0,0,0,9.5,1.8c3.1-.7,5.5-2.8,7.6-5s3.9-4.4,6.8-5.3a11.8,11.8,0,0,0,4.8-1.9,8.4,8.4,0,0,0,2.5-3.7c1.1-2.7,2.4-6.7-.1-9a9.3,9.3,0,0,0-9.2-1.6c-3.4,1.4-4.3,5.1-6.5,7.7a12.7,12.7,0,0,1-9.8,4.2c-1.9-.1-1.9,2.9,0,3Z" transform="translate(0 -406.6)"/><path class="cls-6" d="M1150.7,651.9a32.6,32.6,0,0,0,6.1-4.4,11.3,11.3,0,0,0,3.3-6.6,4.2,4.2,0,0,0-.3-1.9,7.2,7.2,0,0,0-1.1-1.5,22,22,0,0,0-5.8-3.7c-1.2-.6-2.6-1.1-3.2-2.3s-.2-3.1-1.4-3.9-2.2-.1-3.2.4a10.7,10.7,0,0,0-3.9,3.1c-2.1,2.8-1.5,7,.7,9.8a21.8,21.8,0,0,0,2.5,2.8,52.3,52.3,0,0,1,6.4,7.7" transform="translate(0 -406.6)"/><path class="cls-6" d="M1151.4,653.2c4.2-2.6,9-5.7,10-10.9a6.1,6.1,0,0,0-2.3-6.4,22.9,22.9,0,0,0-6.2-3.8c-.9-.4-1.7-.7-2-1.7s-.2-2-.8-2.9c-1.3-2.5-4.1-1.7-6.1-.6a10.4,10.4,0,0,0-4.8,4.7,9.4,9.4,0,0,0-.3,6.8c.9,2.8,2.8,4.6,4.8,6.7a49.9,49.9,0,0,1,5.8,7.1c1.1,1.5,3.7,0,2.6-1.6a47.1,47.1,0,0,0-4-5.1c-1.4-1.6-2.9-3.1-4.4-4.7s-3.4-7.2-.3-9.9a11.4,11.4,0,0,1,2.3-1.5c.6-.4,1.6-1.1,2-.1s.2,1.6.4,2.4a4.3,4.3,0,0,0,1.5,2c1.5,1.1,3.4,1.6,4.9,2.6s4.1,2.3,4.1,4.2c0,4.8-5.1,7.9-8.7,10.1-1.6,1.1-.1,3.7,1.5,2.6Z" transform="translate(0 -406.6)"/><path class="cls-6" d="M1190.1,653.7a18.7,18.7,0,0,0,12.9-12.8,12.5,12.5,0,0,1,1-2.7c1.5-2.3,4.9-2.3,7.5-1.8a5.6,5.6,0,0,1,2.6,1.1c1.3,1.3.8,3.5.3,5.2s-1.3,4.1-2.8,5.7a6.9,6.9,0,0,0-1.1,1.3c-1,2,1.4,4.1,1.7,6.3s-2.4,4.6-5,4.8-5.1-.6-7.6-.8-3.4.1-5.1-.1a5.3,5.3,0,0,1-3.4-1.3,2.2,2.2,0,0,1,.1-3.2" transform="translate(0 -406.6)"/><path class="cls-6" d="M1190.5,655.2a20.6,20.6,0,0,0,11.3-8.1,21.5,21.5,0,0,0,2.8-6.4,3.7,3.7,0,0,1,1.8-2.7,6.6,6.6,0,0,1,3.1-.3,6.2,6.2,0,0,1,3.3.7c.9.6.6,2,.4,2.9a35.8,35.8,0,0,1-1.1,3.5,15,15,0,0,1-2.3,3.3c-1.6,1.9-1,4,.1,6a4.6,4.6,0,0,1,.8,2.8,3.8,3.8,0,0,1-2.2,2.1c-2.9,1.2-6.4-.4-9.4-.5s-3.5.1-5.1-.1-2.9-1-1.8-2-.6-3.3-2.1-2.1-.6,5.7,2,6.7a14.8,14.8,0,0,0,4.7.5,28.4,28.4,0,0,1,5.8.5c3.2.5,6.5.7,9.1-1.6s2.3-4.7,1-7.3c-.4-.9-1.3-2-.7-2.9a10.7,10.7,0,0,1,1.4-1.6,8.5,8.5,0,0,0,1.3-2.5c1.1-2.4,2.5-5.9,1.2-8.5s-4.8-3-7.4-3-5.5,1.4-6.5,4.3a24.1,24.1,0,0,1-1.6,4.5,15.6,15.6,0,0,1-2.7,4,17.9,17.9,0,0,1-8,4.9c-1.8.5-1,3.4.8,2.9Z" transform="translate(0 -406.6)"/><path class="cls-6" d="M1234.1,607c-1.8,1.6-3.8,3.3-4.8,5.5s-.6,5.2,1.4,6.6,6.5.4,8.3,2.8.9,3.2,2.1,4.3a4.3,4.3,0,0,0,4,.4,13.8,13.8,0,0,0,8.8-8.2c.9-2.2.8-5.2-1.3-6.2s-3.9-.3-4.5-2,.6-2,.8-3.1-1.1-3.9-3-4.4a9,9,0,0,0-5.8.6,29.9,29.9,0,0,0-6.5,3.1" transform="translate(0 -406.6)"/><path class="cls-6" d="M1233.1,606c-2.4,1.9-4.9,4.2-5.6,7.3s.1,5.7,2.5,7.2a11,11,0,0,0,3.5,1.1c1.2.1,2.8.1,3.8.8s1.2,2.2,1.6,3.2a4.5,4.5,0,0,0,3.4,2.7c2.8.5,5.9-1.1,8.1-2.8a15.4,15.4,0,0,0,5.2-7.3c.7-2.3.5-5.5-1.7-7a11,11,0,0,0-3.5-1.1c-.5-.1-.7-.1-.8-.5s.3-.8.4-1a7.4,7.4,0,0,0,.4-1.4c.6-3.7-3-6.2-6.3-6.3s-8,2.2-11.3,4.2c-1.7,1-.1,3.6,1.5,2.6a30,30,0,0,1,8-3.5c1.3-.3,2.9-.5,4.1.4a2.1,2.1,0,0,1,.8,2.8c-.4,1.2-.9,2.2-.4,3.5a3.3,3.3,0,0,0,2.4,2,14,14,0,0,1,2.8.6,2.4,2.4,0,0,1,1,2.3c-.1,4.4-4.9,8.8-9.1,9.5-1.1.2-1.9,0-2.3-1.1a18.3,18.3,0,0,0-1.4-3.2c-1.5-1.9-3.8-2.1-5.9-2.4a4.8,4.8,0,0,1-3.1-1,3.4,3.4,0,0,1-.9-2.9c.2-2.9,2.9-4.9,4.9-6.6s-.6-3.3-2.1-2.1Z" transform="translate(0 -406.6)"/><path class="cls-6" d="M1244.1,635.5a13.8,13.8,0,0,0,11.8-5.9c1.5-2.1,2.4-4.8,4.7-6a7.3,7.3,0,0,1,5.8,0,4.6,4.6,0,0,1,3.1,2.5,6.7,6.7,0,0,1-.2,2.8c-.6,2.5-1.3,5.2-3.5,6.6s-3.3,1.1-4.9,1.8c-4.3,1.6-6.5,6.5-10.5,8.8a10.4,10.4,0,0,1-10.1.1,2.9,2.9,0,0,1-1.4-1.3,2.8,2.8,0,0,1-.2-1.8,11,11,0,0,1,1.3-6c1.1-1.8,3.4-3,5.3-2.2" transform="translate(0 -406.6)"/><path class="cls-6" d="M1244.1,637a15.6,15.6,0,0,0,13.3-6.9c1.3-1.9,2.3-4.8,4.7-5.4s6.2.2,6,2.8-1.1,5.4-3,6.7a10.6,10.6,0,0,1-3.9,1.3,12.9,12.9,0,0,0-3.3,1.7c-3.8,2.8-6.3,8-11.4,8.7a9.4,9.4,0,0,1-4.4-.5c-.6-.2-1.6-.6-1.9-1.3a6.7,6.7,0,0,1,0-2c.2-2.5,1.4-6.9,4.7-5.8s2.7-2.3.8-2.9-6.2,1-7.4,3.8a12.6,12.6,0,0,0-1.1,5.1c-.1,1.7,0,3.3,1.4,4.5a10.9,10.9,0,0,0,9.4,1.8c3.2-.7,5.5-2.8,7.6-5s3.9-4.4,6.8-5.3a11.8,11.8,0,0,0,4.8-1.9,9.6,9.6,0,0,0,2.6-3.7c1.1-2.8,2.3-6.7-.2-9a9.3,9.3,0,0,0-9.2-1.6c-3.4,1.4-4.3,5.1-6.5,7.7a12.5,12.5,0,0,1-9.8,4.2c-1.9-.1-1.9,2.9,0,3Z" transform="translate(0 -406.6)"/><path class="cls-6" d="M1225.7,642.3a32.6,32.6,0,0,0,6.1-4.4,11.3,11.3,0,0,0,3.3-6.6,5.8,5.8,0,0,0-.2-1.9,7.9,7.9,0,0,0-1.2-1.5,20.5,20.5,0,0,0-5.8-3.7c-1.2-.6-2.6-1.1-3.2-2.3s-.2-3.1-1.4-3.9-2.2-.2-3.2.4a10.7,10.7,0,0,0-3.9,3.1c-2.1,2.8-1.4,7,.7,9.8.8,1,1.7,1.9,2.5,2.8a52.3,52.3,0,0,1,6.4,7.7" transform="translate(0 -406.6)"/><path class="cls-6" d="M1226.5,643.6c4.1-2.6,8.9-5.7,9.9-11a6.1,6.1,0,0,0-2.2-6.3,25.2,25.2,0,0,0-6.3-3.8c-.9-.4-1.7-.7-2-1.7a13.7,13.7,0,0,0-.7-2.9c-1.4-2.5-4.2-1.7-6.2-.6a10.4,10.4,0,0,0-4.8,4.7,9.4,9.4,0,0,0-.3,6.8c.9,2.7,2.8,4.6,4.8,6.7a49.9,49.9,0,0,1,5.8,7.1c1.1,1.5,3.7,0,2.6-1.6a62.6,62.6,0,0,0-3.9-5.1c-1.4-1.6-3-3.1-4.4-4.7s-3.5-7.2-.4-9.9a11.4,11.4,0,0,1,2.3-1.5c.7-.4,1.7-1.1,2-.1a15.5,15.5,0,0,0,.5,2.3,4.1,4.1,0,0,0,1.5,2.1c1.4,1.1,3.3,1.6,4.8,2.6s4.1,2.3,4.1,4.2c0,4.8-5.1,7.9-8.7,10.1-1.6,1.1-.1,3.7,1.6,2.6Z" transform="translate(0 -406.6)"/><path class="cls-6" d="M998.7,649c-.3,2.4-.6,5,.2,7.3s3,4.3,5.4,3.9,5.1-4.1,8-3.6,2.9,1.8,4.5,1.7,2.5-1.3,3.2-2.5a13.8,13.8,0,0,0,.9-11.9c-.8-2.2-2.9-4.4-5.2-3.7s-3.1,2.5-4.6,1.6-1-1.8-1.6-2.8-3.4-2.1-5.2-1.2a9.7,9.7,0,0,0-3.8,4.4,37.1,37.1,0,0,0-2.7,6.8" transform="translate(0 -406.6)"/><path class="cls-6" d="M997.2,649c-.4,3.2-.7,6.7,1.1,9.5s4.6,3.9,7.4,2.9a16.1,16.1,0,0,0,3.3-2c.8-.5,1.8-1.4,2.9-1.3s2.4,1.2,3.6,1.5a4.5,4.5,0,0,0,4-.8c2.3-1.9,3.4-5.2,3.7-8.1a13.2,13.2,0,0,0-1.8-9.1c-1.7-2.5-4.5-3.9-7.3-2.3l-1.6,1c-.5.3-.6.3-.9-.2s-.8-2.4-2-3.3c-2.7-1.9-6.3-.7-8.3,1.5s-3.9,6.7-4.9,10.3c-.6,1.8,2.3,2.6,2.9.8a25.8,25.8,0,0,1,3.4-8c1-1.5,3-3.4,5-2.2s.9,1.6,1.3,2.4a3.4,3.4,0,0,0,2.6,1.9,4.8,4.8,0,0,0,2.9-.9c.9-.6,1.8-1.4,2.9-.8s2.8,4.1,2.9,6.3a11.4,11.4,0,0,1-1.8,7.2c-.5.8-1.2,1.7-2.2,1.4s-2.1-1.2-3.2-1.5-4,.5-5.6,1.7-3.9,2.8-5.9.8-1.8-5.8-1.4-8.7c.1-.8-.8-1.5-1.5-1.5a1.5,1.5,0,0,0-1.5,1.5Z" transform="translate(0 -406.6)"/><path class="cls-6" d="M1015.6,632.1a5.4,5.4,0,0,1,6.5-1.8,18.5,18.5,0,0,1,3.3,2.4c3.1,2.2,7.9,2,10.3-.9s1.7-4.7,1.8-7.2-.2-5.6-2.4-7a9.7,9.7,0,0,0-3.8-1,29.1,29.1,0,0,0-7.8.1,22.1,22.1,0,0,0-9,4.3,3.8,3.8,0,0,0-1.1,1.1,7,7,0,0,0-.8,2,11.7,11.7,0,0,0-.6,4.5,4.4,4.4,0,0,0,2.5,3.6" transform="translate(0 -406.6)"/><path class="cls-6" d="M1016.9,632.9a3.5,3.5,0,0,1,2.6-1.5,4.9,4.9,0,0,1,3.6,1.3,10.8,10.8,0,0,0,6.4,2.9,8.6,8.6,0,0,0,6.5-2.1c2-1.7,2.7-4.4,2.9-6.9s.3-5-.7-7.3a6.5,6.5,0,0,0-5.7-4,33.2,33.2,0,0,0-8.9-.2,21.5,21.5,0,0,0-8.1,3.4,11.6,11.6,0,0,0-3.4,2.8,12.4,12.4,0,0,0-1.5,4.7c-.4,2.8.2,6.2,3.1,7.5s3.3-1.8,1.5-2.6-1.8-3.9-1.3-5.9a4.4,4.4,0,0,1,1.4-2.7,22,22,0,0,1,3.2-2.1,16.7,16.7,0,0,1,6.8-2.3,32.3,32.3,0,0,1,7.6.4c2.1.5,2.8,2.2,3,4.2a15.3,15.3,0,0,1-.5,6.4c-1.2,4-5.9,4.7-9.1,2.6s-3.6-3.2-6.3-3.2a7.2,7.2,0,0,0-5.7,3.1c-1.1,1.6,1.5,3.1,2.6,1.5Z" transform="translate(0 -406.6)"/><path class="cls-6" d="M1025.4,663a13.5,13.5,0,0,0,4.6-12.2c-.4-2.6-1.5-5.2-.6-7.7s2.4-3.1,4.2-3.9a4.5,4.5,0,0,1,3.9-.3,6.5,6.5,0,0,1,1.8,2.2c1.3,2.2,2.6,4.7,2,7.2s-1.7,3.1-2.5,4.6c-2,4.2-.3,9.3-1.6,13.7a10.5,10.5,0,0,1-7.4,6.9,3.1,3.1,0,0,1-1.9,0,3.9,3.9,0,0,1-1.4-1.2,12.4,12.4,0,0,1-3.1-5.3c-.4-2,.5-4.5,2.4-5.2" transform="translate(0 -406.6)"/><path class="cls-6" d="M1026.4,664.1a15.3,15.3,0,0,0,5.1-13.3c-.3-2.6-1.9-5.9-.1-8.2s4.5-3.7,6.1-1.7,3.1,5.1,2.2,7.6a36.2,36.2,0,0,1-2,3.3,14.6,14.6,0,0,0-1.2,3.9c-.7,5.1,1,10.9-3.6,14.6a9,9,0,0,1-3.5,1.8,1.6,1.6,0,0,1-1.6-.5,14.9,14.9,0,0,1-1.5-2c-1.3-1.9-2.5-5.3.3-6.5s.2-3.4-1.5-2.6-3.7,4.6-3,7.3a11.8,11.8,0,0,0,2.1,4c.9,1.3,2,2.9,3.7,3.3s6.1-1.5,7.9-3.4a12.5,12.5,0,0,0,3.4-8.8c.2-3.3-.4-6.9,1.3-9.9a17.5,17.5,0,0,0,2.2-4.3,8.3,8.3,0,0,0-.4-4.9c-1-2.8-2.8-6.7-6.3-6.7a9.4,9.4,0,0,0-7.6,4.6c-1.9,3.6.2,7.2.2,10.9a12.6,12.6,0,0,1-4.3,9.4c-1.4,1.2.7,3.4,2.1,2.1Z" transform="translate(0 -406.6)"/><path class="cls-6" d="M1016.5,680.6a26.9,26.9,0,0,0,1.4-7.4,11.1,11.1,0,0,0-2-7.1,5.3,5.3,0,0,0-1.4-1.2,6.3,6.3,0,0,0-1.9-.3,19.9,19.9,0,0,0-6.8,1.2c-1.3.4-2.6,1-3.9.5s-2.3-2.1-3.7-1.9-1.7,1.4-2.1,2.5a11.7,11.7,0,0,0-.7,4.9c.4,3.5,3.7,6.1,7.2,6.7a15.4,15.4,0,0,0,3.7.3,66.7,66.7,0,0,1,10,1.3" transform="translate(0 -406.6)"/><path class="cls-6" d="M1018,681c1.3-4.8,2.5-10.2-.2-14.8a7.5,7.5,0,0,0-2.3-2.4,6.7,6.7,0,0,0-3.7-.7,28.6,28.6,0,0,0-7.6,1.6,2.4,2.4,0,0,1-2.8-.5,5.2,5.2,0,0,0-2.8-1.3c-2.3-.1-3.4,2.1-4,4a10.2,10.2,0,0,0-.2,7.1,9.7,9.7,0,0,0,4.1,4.6c2.4,1.5,5.1,1.6,7.8,1.7a63.2,63.2,0,0,1,9.6,1.3c1.8.4,2.6-2.5.8-2.9a55,55,0,0,0-6.9-1.1c-2.2-.2-4.4-.1-6.6-.5s-6.6-2.9-6.4-6.5a12.3,12.3,0,0,1,.8-3.3c.1-.4.4-1.4.9-1.4s1.2.8,1.5,1a5.1,5.1,0,0,0,2.5,1.1c2.1.2,4.2-1.1,6.2-1.5s4.6-1,5.9.4c3.2,3.6,1.6,9.3.5,13.3a1.5,1.5,0,0,0,2.9.8Z" transform="translate(0 -406.6)"/><path class="cls-6" d="M1046.6,655.1a18.7,18.7,0,0,0,.8-18.2,9.3,9.3,0,0,1-1.2-2.7c-.4-2.7,2-4.9,4.3-6.4a4.4,4.4,0,0,1,2.7-.9c1.8.1,2.9,2,3.7,3.6a14.4,14.4,0,0,1,1.8,6,10.9,10.9,0,0,0,.1,1.8c.7,2.1,3.8,2,5.5,3.4s1.4,5-.3,6.9-4.2,3-6.2,4.6-2.4,2.4-3.7,3.4a5.1,5.1,0,0,1-3.4,1.4,2.3,2.3,0,0,1-2.2-2.4" transform="translate(0 -406.6)"/><path class="cls-6" d="M1047.9,655.8a20.2,20.2,0,0,0,2.6-14.4,33.7,33.7,0,0,0-1-3.4c-.5-1.3-1.4-2.5-1.8-3.8s2.2-4.3,3.9-5.3,1.9-.7,2.8.3a15.4,15.4,0,0,1,1.7,3.1,10.5,10.5,0,0,1,1.1,4.2,6.3,6.3,0,0,0,.8,3.4c1.2,1.6,3.2,1.7,4.8,2.6s1.4,3.4.3,4.8-4.6,3.4-6.7,5.2-2.2,2.2-3.4,3.1-3.2,1.7-3,0-2.8-1.9-3,0a3.6,3.6,0,0,0,2,3.4,4.6,4.6,0,0,0,4.4-.2,14,14,0,0,0,3.6-2.8,23.1,23.1,0,0,1,3.9-3.1c2.5-1.6,4.9-3.3,5.8-6.2a5.5,5.5,0,0,0-2.1-6.6,18.3,18.3,0,0,0-3.2-1.4,1.7,1.7,0,0,1-1-.7c-.4-.6-.1-1.7-.2-2.4a18.8,18.8,0,0,0-1.4-4.6,16,16,0,0,0-2.3-4c-2.3-2.6-5.4-1.5-7.8.3s-4.6,4.2-3.9,7.3,1.5,3.2,2.1,4.9a17.9,17.9,0,0,1-1.6,14.8,1.5,1.5,0,0,0,2.6,1.5Z" transform="translate(0 -406.6)"/><path class="cls-6" d="M1064.8,645.4c-.3,2.4-.6,4.9.2,7.2s3,4.3,5.5,4,5-4.1,7.9-3.6,2.9,1.7,4.5,1.6,2.5-1.2,3.2-2.4a14,14,0,0,0,.9-12c-.8-2.2-2.9-4.4-5.2-3.7s-3.1,2.5-4.6,1.7-1-1.9-1.6-2.9-3.4-2-5.2-1.1-2.9,2.6-3.8,4.3a40.1,40.1,0,0,0-2.7,6.8" transform="translate(0 -406.6)"/><path class="cls-6" d="M1063.3,645.4c-.4,3.1-.7,6.7,1.1,9.5s4.6,3.9,7.4,2.8a13.5,13.5,0,0,0,3.3-1.9c.8-.6,1.8-1.5,2.9-1.4s2.4,1.2,3.6,1.6a4.5,4.5,0,0,0,4-.9c2.3-1.8,3.4-5.2,3.7-8.1a13.2,13.2,0,0,0-1.8-9.1c-1.7-2.4-4.5-3.8-7.3-2.3l-1.6,1c-.5.3-.6.4-.9-.1s-.8-2.4-2-3.3-6.3-.8-8.3,1.5-3.9,6.7-4.9,10.2a1.5,1.5,0,0,0,2.9.8,25.2,25.2,0,0,1,3.4-7.9c1-1.6,3-3.5,5-2.3s.9,1.7,1.3,2.5a3.4,3.4,0,0,0,2.7,1.9,5.6,5.6,0,0,0,2.8-1c.9-.6,1.8-1.3,2.9-.8s2.8,4.2,2.9,6.3a12.4,12.4,0,0,1-1.7,7.3c-.6.8-1.3,1.6-2.3,1.4s-2.1-1.2-3.2-1.5-4,.4-5.6,1.6-3.9,2.8-5.9.9-1.8-5.9-1.4-8.7c.1-.8-.8-1.5-1.5-1.5a1.5,1.5,0,0,0-1.5,1.5Z" transform="translate(0 -406.6)"/><path class="cls-6" d="M1081.7,628.5a5.4,5.4,0,0,1,6.5-1.9,25.2,25.2,0,0,1,3.3,2.4c3.1,2.2,7.9,2.1,10.3-.9s1.7-4.6,1.8-7.2-.2-5.5-2.4-6.9a7.2,7.2,0,0,0-3.8-1,29.1,29.1,0,0,0-7.8,0,22.4,22.4,0,0,0-8.9,4.3,4.2,4.2,0,0,0-2,3.2,11.4,11.4,0,0,0-.6,4.5,4.6,4.6,0,0,0,2.5,3.6" transform="translate(0 -406.6)"/><path class="cls-6" d="M1083,629.2a3.9,3.9,0,0,1,2.7-1.5c1.4-.2,2.4.5,3.5,1.4a11.4,11.4,0,0,0,6.4,2.9,8.9,8.9,0,0,0,6.6-2.1c1.9-1.8,2.6-4.4,2.8-7s.3-5-.6-7.2a6.6,6.6,0,0,0-5.8-4.1,29.5,29.5,0,0,0-8.9-.1,20.4,20.4,0,0,0-8.1,3.3,13.4,13.4,0,0,0-3.4,2.8,11.1,11.1,0,0,0-1.4,4.7c-.5,2.9.1,6.3,3,7.5s3.3-1.8,1.5-2.5-1.8-4-1.3-6a4.7,4.7,0,0,1,1.4-2.7l3.2-2a15.3,15.3,0,0,1,6.8-2.3,27.5,27.5,0,0,1,7.6.4c2.1.5,2.9,2.2,3,4.2a17.2,17.2,0,0,1-.4,6.4c-1.3,3.9-6,4.7-9.2,2.5s-3.6-3.1-6.3-3.1a7.1,7.1,0,0,0-5.7,3c-1.1,1.6,1.5,3.1,2.6,1.5Z" transform="translate(0 -406.6)"/><path class="cls-6" d="M1091.5,659.4a13.7,13.7,0,0,0,4.6-12.3c-.4-2.6-1.5-5.2-.6-7.6a7.5,7.5,0,0,1,4.2-4c1.2-.5,2.7-.9,3.9-.2a4.6,4.6,0,0,1,1.8,2.1c1.3,2.2,2.6,4.8,2,7.3s-1.7,3-2.5,4.6c-2,4.2-.3,9.2-1.6,13.6a10.1,10.1,0,0,1-7.4,6.9,2.5,2.5,0,0,1-1.9,0,3.6,3.6,0,0,1-1.4-1.1,12.5,12.5,0,0,1-3-5.4,4.5,4.5,0,0,1,2.3-5.2" transform="translate(0 -406.6)"/><path class="cls-6" d="M1092.5,660.4a15,15,0,0,0,5.1-13.3c-.3-2.6-1.9-5.8-.1-8.2s4.6-3.7,6.1-1.6,3.1,5.1,2.2,7.5-1.4,2.2-2,3.4a12.7,12.7,0,0,0-1.2,3.9c-.7,5,1,10.8-3.6,14.6a8.8,8.8,0,0,1-3.5,1.7,1.4,1.4,0,0,1-1.5-.5c-.6-.6-1.1-1.3-1.6-1.9s-2.5-5.4.3-6.6.2-3.4-1.5-2.6-3.7,4.6-3,7.3a13.3,13.3,0,0,0,2.1,4.1c1,1.2,2,2.8,3.7,3.2s6.1-1.5,8-3.4a13.4,13.4,0,0,0,3.4-8.8c.1-3.3-.5-6.9,1.2-9.9.8-1.4,1.9-2.7,2.2-4.2a7.8,7.8,0,0,0-.4-5c-1-2.8-2.8-6.7-6.3-6.7a9.4,9.4,0,0,0-7.6,4.6c-1.9,3.6.2,7.3.2,11a12.2,12.2,0,0,1-4.3,9.3c-1.4,1.3.7,3.4,2.1,2.1Z" transform="translate(0 -406.6)"/><path class="cls-6" d="M1082.6,677a27.6,27.6,0,0,0,1.4-7.4,10.3,10.3,0,0,0-2-7.1,3.9,3.9,0,0,0-1.4-1.2,4.2,4.2,0,0,0-1.9-.3,19.8,19.8,0,0,0-6.8,1.1,5.9,5.9,0,0,1-3.9.6c-1.3-.5-2.3-2.2-3.7-2s-1.7,1.5-2.1,2.5a11.9,11.9,0,0,0-.7,4.9c.4,3.6,3.7,6.2,7.2,6.8,1.2.2,2.5.2,3.7.3a48.1,48.1,0,0,1,10,1.3" transform="translate(0 -406.6)"/><path class="cls-6" d="M1084.1,677.4c1.3-4.8,2.5-10.3-.2-14.8a7.3,7.3,0,0,0-2.2-2.4,6.3,6.3,0,0,0-3.8-.7,27.1,27.1,0,0,0-7.5,1.6,2.8,2.8,0,0,1-2.9-.5,5.3,5.3,0,0,0-2.8-1.4c-2.3-.1-3.4,2.1-4,4a10.5,10.5,0,0,0-.2,7.2,9.4,9.4,0,0,0,4.1,4.5c2.4,1.5,5.1,1.7,7.8,1.8a51.4,51.4,0,0,1,9.6,1.2c1.8.4,2.6-2.5.8-2.9s-4.6-.8-6.9-1.1-4.4-.1-6.6-.4-6.6-3-6.4-6.6a13.2,13.2,0,0,1,.8-3.3c.1-.4.4-1.3.9-1.4s1.2.9,1.5,1.1a6,6,0,0,0,2.5,1c2.1.2,4.2-1,6.3-1.5s4.5-1,5.8.4c3.2,3.6,1.6,9.3.5,13.4-.5,1.8,2.4,2.6,2.9.8Z" transform="translate(0 -406.6)"/><path class="cls-6" d="M1112.7,651.4a18.5,18.5,0,0,0,.8-18.1,10.7,10.7,0,0,1-1.2-2.7c-.4-2.7,2-5,4.4-6.4a4.9,4.9,0,0,1,2.6-1c1.8.1,2.9,2,3.7,3.7s1.9,3.9,1.9,6a4.7,4.7,0,0,0,.1,1.7c.6,2.1,3.7,2,5.4,3.4s1.4,5-.3,7-4.1,3-6.2,4.6-2.4,2.3-3.7,3.4a5.3,5.3,0,0,1-3.4,1.3,2.3,2.3,0,0,1-2.2-2.4" transform="translate(0 -406.6)"/><path class="cls-6" d="M1114,652.2a20.4,20.4,0,0,0,2.6-14.5,19.1,19.1,0,0,0-1-3.4,24.8,24.8,0,0,1-1.7-3.7c-.6-2.4,2.1-4.3,3.9-5.4a1.8,1.8,0,0,1,2.7.3,18.7,18.7,0,0,1,1.7,3.1,13.2,13.2,0,0,1,1.2,4.3,5.4,5.4,0,0,0,.7,3.3c1.2,1.6,3.2,1.7,4.8,2.6s1.4,3.4.3,4.9-4.6,3.3-6.6,5.1-2.3,2.2-3.5,3.1-3.2,1.8-3,0-2.8-1.9-3,0a3.8,3.8,0,0,0,2,3.5,4.9,4.9,0,0,0,4.4-.2,14.3,14.3,0,0,0,3.6-2.9,28.8,28.8,0,0,1,3.9-3c2.5-1.6,4.9-3.3,5.8-6.2a5.6,5.6,0,0,0-2.1-6.7,20.5,20.5,0,0,0-3.1-1.3,3,3,0,0,1-1.1-.7c-.4-.6-.1-1.8-.2-2.4a15,15,0,0,0-1.4-4.7,15.4,15.4,0,0,0-2.3-3.9c-2.3-2.6-5.4-1.6-7.8.2s-4.5,4.2-3.9,7.4,1.5,3.2,2.1,4.8a21.9,21.9,0,0,1,1,5.1,18,18,0,0,1-2.6,9.8c-1,1.6,1.6,3.1,2.6,1.5Z" transform="translate(0 -406.6)"/><text class="cls-7" transform="translate(1115.8 549.6)">Foisor</text><text class="cls-8" transform="translate(936.1 558.7) scale(0.99 1)">11</text><text class="cls-8" transform="translate(891.9 95.3)">1</text><text class="cls-8" transform="translate(771.8 91.1)">2</text><text class="cls-8" transform="translate(370.2 95.4)">6</text><text class="cls-8" transform="translate(495.2 95.3)">5</text><text class="cls-8" transform="translate(578.6 95.3)">4</text><text class="cls-8" transform="translate(691.1 95.3)">3</text><text class="cls-8" transform="translate(293.1 95.7)">7</text><text class="cls-8" transform="translate(168.7 95.3)">9</text><text class="cls-8" transform="translate(83.2 95.7)">10</text><text class="cls-8" transform="translate(812.6 537.2) scale(1.03 1)">12</text><text class="cls-8" transform="translate(700.4 537.2) scale(1.03 1)">13</text><text class="cls-8" transform="translate(574 536.9) scale(1.03 1)">14</text><text class="cls-8" transform="translate(494 529.7)">15</text><text class="cls-8" transform="translate(369.2 529.7)">16</text><text class="cls-8" transform="translate(286.8 532.4)">17</text><text class="cls-8" transform="translate(164.2 532.4)">18</text><text class="cls-8" transform="translate(83.4 532.6)">19</text></svg>