<svg xmlns="http://www.w3.org/2000/svg" viewBox="0 0 1280 618.7"><defs><style>.cls-1{fill:#69d337;}.cls-2{fill:#2d1400;}.cls-3{fill:#409911;}.cls-4{fill:#38840c;}.cls-5{fill:#b59e5b;}.cls-6{font-size:24px;fill:#fff;font-family:Poppins-Black, Poppins;font-weight:800;}.cls-7{fill:#ffdc7b;}</style></defs><g id="Layer_2" data-name="Layer 2"><g id="Layer_1-2" data-name="Layer 1"><rect class="cls-1" width="1280" height="617.73"/><rect class="cls-2" x="1021.6" y="455.2" width="258.4" height="163.43"/><path class="cls-3" d="M210.8,500c3-6.5,10.4-4.3,16.7-11.2s1.9-12.6,7.7-18.4,18.8-7.5,25.9-2.4,3.2,12.2,11.1,19.7,12.7,4,16.1,9.9c4.5,7.9-2.2,19.2-3,20.5-4.5,7.4-11.3,10.4-16.3,12.6s-13.4,5.9-21.5,3.4-6.2-6.9-16-12.3-15.5-3.1-19.4-8.8A13.9,13.9,0,0,1,210.8,500Z"/><path class="cls-3" d="M601,523.8c3-6.6,10.4-4.3,16.7-11.2s1.9-12.6,7.7-18.4,18.8-7.6,25.9-2.5,3.2,12.2,11.1,19.8,12.7,3.9,16.1,9.9c4.5,7.9-2.2,19.1-3,20.4-4.5,7.5-11.3,10.5-16.3,12.6s-13.4,5.9-21.5,3.4-6.2-6.8-16-12.2-15.5-3.2-19.4-8.9A13.7,13.7,0,0,1,601,523.8Z"/><path class="cls-3" d="M478.6,489.5c2.6,6.7-4.3,10.4-3.7,19.7s7.5,10.3,7.6,18.5-7.9,18.7-16.5,20.1-10.9-6.3-21.9-6c-9.5.3-11.7,6.2-18.3,4.4-8.8-2.3-12.1-15-12.5-16.5-2-8.4.6-15.4,2.6-20.5s5.2-13.6,12.7-17.6,9.3.4,19.9-2.7,13.2-8.8,20-7.6A14,14,0,0,1,478.6,489.5Z"/><path class="cls-4" d="M210.8,547.6c3-6.6,10.4-4.4,16.7-11.3s1.9-12.5,7.7-18.4,18.8-7.5,25.9-2.4,3.2,12.2,11.1,19.7,12.7,4,16.1,9.9c4.5,7.9-2.2,19.2-3,20.5C280.8,573,274,576,269,578.2s-13.4,5.9-21.5,3.4-6.2-6.9-16-12.3-15.5-3.1-19.4-8.8C209.7,557,208.9,551.6,210.8,547.6Z"/><path class="cls-3" d="M796.4,81.2c3-6.6,10.4-4.4,16.6-11.3s2-12.5,7.8-18.3,18.8-7.6,25.9-2.5,3.2,12.2,11.1,19.7,12.7,4,16.1,9.9c4.5,8-2.2,19.2-3,20.5-4.5,7.4-11.3,10.4-16.3,12.6s-13.4,5.9-21.5,3.4-6.2-6.9-16-12.2-15.5-3.2-19.4-8.9A13.7,13.7,0,0,1,796.4,81.2Z"/><path class="cls-3" d="M672.2,55.9c2.5,6.8-4.3,10.5-3.8,19.8s7.5,10.2,7.6,18.4-7.9,18.7-16.5,20.1-10.9-6.3-21.8-6-11.8,6.2-18.3,4.5c-8.9-2.4-12.1-15-12.5-16.5-2.1-8.5.6-15.4,2.5-20.5s5.3-13.6,12.7-17.6,9.3.3,20-2.8,13.2-8.8,19.9-7.5A13.8,13.8,0,0,1,672.2,55.9Z"/><path class="cls-4" d="M407.7,81.2c3-6.6,10.5-4.4,16.7-11.3s2-12.5,7.7-18.3,18.9-7.6,26-2.5,3.2,12.2,11.1,19.7,12.7,4,16,9.9c4.6,8-2.1,19.2-2.9,20.5-4.6,7.4-11.4,10.4-16.4,12.6s-13.3,5.9-21.4,3.4-6.3-6.9-16-12.2-15.5-3.2-19.4-8.9A14,14,0,0,1,407.7,81.2Z"/><path class="cls-3" d="M404.5,110.6c3-6.5,10.4-4.3,16.6-11.2s2-12.6,7.8-18.4,18.8-7.5,25.9-2.4,3.2,12.2,11.1,19.7,12.7,4,16.1,9.9c4.5,7.9-2.2,19.2-3,20.5-4.5,7.4-11.3,10.4-16.3,12.6s-13.4,5.8-21.5,3.4-6.2-6.9-16-12.3-15.5-3.2-19.4-8.8C403.4,120,402.6,114.7,404.5,110.6Z"/><path class="cls-3" d="M210.8,81.2c3-6.6,10.4-4.4,16.7-11.3s1.9-12.5,7.7-18.3S254,44,261.1,49.1s3.2,12.2,11.1,19.7,12.7,4,16.1,9.9c4.5,8-2.2,19.2-3,20.5-4.5,7.4-11.3,10.4-16.3,12.6s-13.4,5.9-21.5,3.4-6.2-6.9-16-12.2-15.5-3.2-19.4-8.9A13.7,13.7,0,0,1,210.8,81.2Z"/><path class="cls-5" d="M1164.7,386.2a16.3,16.3,0,0,0-6.9-2.4c-2.4,0-5.1,1.4-5.6,3.8s2.1,6.2.6,8.7-2.6,2.1-3.1,3.7.3,2.7,1.2,3.8a13.8,13.8,0,0,0,10.9,5c2.3,0,5.1-1.2,5.2-3.6s-1.2-3.8.1-4.9,2.1-.3,3.2-.5,3.1-2.5,2.9-4.4a9.1,9.1,0,0,0-2.7-5.1,31.7,31.7,0,0,0-5.5-4.9"/><path class="cls-5" d="M1165.4,384.9c-2.8-1.5-6-3.1-9.3-2.4s-5.2,2.6-5.4,5.4a10,10,0,0,0,.5,3.9c.3,1.1.9,2.7.3,3.8s-1.9,1.7-2.7,2.8a4.8,4.8,0,0,0-.4,4.2c1.1,2.8,4,5,6.6,6.2a13.8,13.8,0,0,0,8.5,1.3c2.6-.5,5.1-2.3,5-5.2a14.6,14.6,0,0,0-.3-2.2c-.1-.3-.3-1-.1-1.3s1.8,0,2.2-.1a4.5,4.5,0,0,0,2.2-.8c2.7-2,2.7-5.7,1.1-8.5s-4.9-5.8-7.8-7.9-3.1,1.5-1.5,2.6a30.6,30.6,0,0,1,5.9,5.5c1.1,1.5,2.6,4.4.5,5.9s-2.1.2-3,.4a3,3,0,0,0-2.5,2.2c-.5,1.8,1.3,4.4-.4,5.7s-4.5,1-6.5.5a12.7,12.7,0,0,1-6.1-3.8c-.6-.8-1.5-1.9-1-2.9a25,25,0,0,1,2.3-2.3c1.6-1.8,1.4-4,.8-6.2s-1.3-4.7,1.3-5.9,5.9.4,8.3,1.7,3.2-1.7,1.5-2.6Z"/><path class="cls-5" d="M1174.6,407.9a5.3,5.3,0,0,1-.4,6.7c-1,1-2.4,1.5-3.5,2.3-3.1,2.2-4.6,6.7-2.7,9.9s3.8,3.3,6.1,4.2,5.3,1.8,7.4.2a6.6,6.6,0,0,0,2.2-3.2,29.3,29.3,0,0,0,2.7-7.3,20.9,20.9,0,0,0-1-9.9,8.8,8.8,0,0,0-.5-1.5,12.2,12.2,0,0,0-1.7-1.5,15.3,15.3,0,0,0-4-2.1,4.5,4.5,0,0,0-4.2,1.1"/><path class="cls-5" d="M1173.3,408.7a3.5,3.5,0,0,1,.7,3.1,4.2,4.2,0,0,1-2.4,2.8c-2.2,1.3-4,2.7-5,5a8.5,8.5,0,0,0-.4,6.8c.8,2.3,2.9,3.9,5.1,5a17.2,17.2,0,0,0,7.4,2.2c2.8,0,4.7-1.7,6-4.1a37.3,37.3,0,0,0,3.2-8.4,22.8,22.8,0,0,0-.5-9,9.3,9.3,0,0,0-2-4.4,13.6,13.6,0,0,0-3.6-2.5c-2.5-1.3-5.7-1.7-7.9.6s.8,3.5,2.1,2.1,4-.4,5.6.7a4.7,4.7,0,0,1,2.2,2,25.4,25.4,0,0,1,1,3.7c.9,5.1-.5,9.9-3.1,14.4-1.3,2.1-3.3,2.1-5.5,1.5a16.6,16.6,0,0,1-5.7-2.7c-3-2.6-2-7.1,1-9.3s4.1-2.2,5.1-4.6a6.9,6.9,0,0,0-.7-6.4c-1.1-1.6-3.7-.1-2.6,1.5Z"/><path class="cls-5" d="M1142.3,406.3a13.5,13.5,0,0,0,9.9,8.6c2.5.6,5.4.5,7.3,2.1a7.2,7.2,0,0,1,2.3,5.3,4.6,4.6,0,0,1-1.1,3.8,5.1,5.1,0,0,1-2.7.9c-2.5.5-5.3.8-7.4-.6s-2.3-2.7-3.5-3.9c-3.2-3.4-8.6-3.5-12.3-6.3a10.5,10.5,0,0,1-3.9-9.3,3.1,3.1,0,0,1,.7-1.8,4.6,4.6,0,0,1,1.5-.9c2-.7,4.1-1.4,6.1-1s4.1,1.9,4.1,4"/><path class="cls-5" d="M1140.8,406.7a15.5,15.5,0,0,0,10.6,9.6c2.4.6,5.9.2,7.6,2.3s2.3,5.2.6,6.4-2.8.8-3.9.9a7.4,7.4,0,0,1-3.9-.5,8.5,8.5,0,0,1-2.5-2.5,12.8,12.8,0,0,0-2.8-2.9c-4.1-2.8-10.1-2.8-12.9-7.4a8.5,8.5,0,0,1-1.2-3.8,4.5,4.5,0,0,1,.1-2.3c.3-.8,1.1-.9,1.9-1.1a8,8,0,0,1,4.8-.7,3.1,3.1,0,0,1,2.6,2.5c.1,1.9,3.1,1.9,3,0s-3.1-5.4-6.2-5.6a14,14,0,0,0-5.4,1c-1.6.6-3,1.2-3.5,2.9s0,6.8,1.8,9.3,4.6,4.1,7.7,5.2,5.7,2,7.7,4.5a11.4,11.4,0,0,0,3.4,3.5,9,9,0,0,0,4.6.9c3.1-.1,7.1-.5,8.2-3.9a9.8,9.8,0,0,0-2.1-8.7c-2.7-2.8-6.8-2.1-10.1-3.3a12,12,0,0,1-7.2-7.1c-.7-1.7-3.6-1-2.9.8Z"/><path class="cls-5" d="M1128.8,392a35.6,35.6,0,0,0,6.5,3.8,10.5,10.5,0,0,0,7.4.6,5.1,5.1,0,0,0,1.6-.9,5.6,5.6,0,0,0,.9-1.7,20,20,0,0,0,1.3-6.8c0-1.3-.1-2.8.8-3.8s2.8-1.4,3.1-2.8-.7-2.1-1.6-2.8a10.5,10.5,0,0,0-4.4-2.4c-3.4-.9-7,1.3-8.8,4.4a25.2,25.2,0,0,0-1.5,3.4,58.1,58.1,0,0,1-4.7,8.9"/><path class="cls-5" d="M1128.1,393.2c4.1,3,8.9,6.1,14.3,4.8a5.8,5.8,0,0,0,2.9-1.5,7.3,7.3,0,0,0,1.7-3.4,31.4,31.4,0,0,0,1-7.4,2.2,2.2,0,0,1,1.3-2.1,8.2,8.2,0,0,0,2.2-1.9c1.4-2.3-.5-4.3-2.2-5.6a10.4,10.4,0,0,0-6.4-2.6,10.1,10.1,0,0,0-6.3,2.6c-2.1,1.8-3.1,4.4-4.2,6.9a52.5,52.5,0,0,1-4.3,8.1c-1,1.6,1.5,3.1,2.6,1.5s2.3-3.9,3.3-5.9,1.7-4.1,2.7-6,5.5-5.3,9-3.5c.7.4,3.8,2.2,3,3.1s-1.1.8-1.6,1.1a4.4,4.4,0,0,0-1.7,2.3c-.7,1.8-.3,3.9-.6,5.8a18.7,18.7,0,0,1-.8,3.2,3.6,3.6,0,0,1-1.3,2.1c-2.1,1-4.8.5-6.8-.3a31.1,31.1,0,0,1-6.3-3.8c-1.6-1.2-3.1,1.4-1.5,2.5Z"/><path class="cls-5" d="M1142.4,429a18.4,18.4,0,0,0,16.7,7,10.1,10.1,0,0,1,3-.1c2.7.5,3.9,3.6,4.5,6.3a4.1,4.1,0,0,1-.1,2.7c-.7,1.7-2.8,2.1-4.7,2.3a13.4,13.4,0,0,1-6.3-.4l-1.6-.5c-2.2-.1-3.2,2.9-5.1,4s-5.2-.5-6.4-2.7-1.4-5-2.2-7.4-1.3-3.1-1.9-4.7a5,5,0,0,1-.1-3.6,2.3,2.3,0,0,1,3-1.3"/><path class="cls-5" d="M1141.3,430.1a20.1,20.1,0,0,0,12.3,7.3,21.9,21.9,0,0,0,3.6.3c1.4-.1,2.7-.4,4-.4s3.2,2.4,3.7,4.3.7,2.3.1,3.1a4.5,4.5,0,0,1-2.8,1,26.7,26.7,0,0,1-4,.1c-1.5,0-2.8-.9-4.3-1s-3.4,1.7-4.7,3.1a2.8,2.8,0,0,1-2.1,1.3,3.8,3.8,0,0,1-2.7-1.4c-2-2.2-1.9-5.8-2.9-8.4a45.2,45.2,0,0,1-1.8-4.7,3.7,3.7,0,0,1-.2-2.1c.1-.3.6-.9,1-.7s3.2-1.7,1.5-2.5-5.6,1.1-5.6,4a15.1,15.1,0,0,0,1.3,4.6,27.2,27.2,0,0,1,1.8,5.5c.7,2.9,1.6,5.9,4.2,7.6a5.5,5.5,0,0,0,7.3-.7,15.5,15.5,0,0,1,2.1-2.3c.6-.4,1-.2,1.6,0a10.9,10.9,0,0,0,3,.7,19.3,19.3,0,0,0,4.8-.2,8.1,8.1,0,0,0,3.9-1.2c2.6-1.8,2-5.3,1-7.9s-2.8-5-5.7-5.2-3.5.4-5.2.4a18.6,18.6,0,0,1-4.8-.9,18,18,0,0,1-8.3-5.8c-1.2-1.5-3.3.6-2.1,2.1Z"/><path class="cls-5" d="M1124.4,321.6a16.3,16.3,0,0,0-6.9-2.4c-2.4,0-5.1,1.4-5.6,3.8s2.1,6.1.6,8.7-2.6,2.1-3.1,3.7.3,2.7,1.2,3.8a13.9,13.9,0,0,0,10.9,5c2.3,0,5.1-1.3,5.3-3.6s-1.3-3.8,0-4.9,2.1-.3,3.2-.5,3.1-2.5,2.9-4.5a9.8,9.8,0,0,0-2.7-5.1,35.7,35.7,0,0,0-5.5-4.8"/><path class="cls-5" d="M1125.1,320.3c-2.8-1.5-6-3.1-9.3-2.4s-5.2,2.6-5.4,5.4a10.5,10.5,0,0,0,.5,3.9c.3,1.1.9,2.6.3,3.8s-1.9,1.7-2.7,2.8a4.7,4.7,0,0,0-.4,4.2c1.1,2.8,4,5,6.6,6.2a13.8,13.8,0,0,0,8.5,1.3c2.6-.5,5.1-2.4,5.1-5.3-.1-.7-.3-1.4-.4-2.1s-.3-1-.1-1.3,1.8,0,2.2-.1a5.8,5.8,0,0,0,2.2-.8c2.7-2.1,2.7-5.8,1.2-8.5s-5-5.8-7.9-7.9-3.1,1.4-1.5,2.6a30.6,30.6,0,0,1,5.9,5.5c1.1,1.5,2.6,4.4.5,5.9s-2.1.1-3,.4a3,3,0,0,0-2.5,2.2c-.5,1.8,1.3,4.4-.4,5.7s-4.5,1-6.4.5a12.7,12.7,0,0,1-6.2-3.9c-.6-.7-1.5-1.9-1-2.9s1.6-1.4,2.3-2.2,1.4-4,.8-6.2-1.3-4.7,1.3-5.9,5.9.4,8.3,1.7,3.2-1.7,1.5-2.6Z"/><path class="cls-5" d="M1134.3,343.3a5.3,5.3,0,0,1-.4,6.7,21.2,21.2,0,0,1-3.5,2.3c-3.1,2.2-4.6,6.7-2.7,9.9s3.8,3.3,6.1,4.2,5.3,1.7,7.4.2a7.1,7.1,0,0,0,2.2-3.2,29.3,29.3,0,0,0,2.7-7.3,22.2,22.2,0,0,0-.9-9.9l-.6-1.5a6.1,6.1,0,0,0-1.7-1.5,15.3,15.3,0,0,0-4-2.1,4.5,4.5,0,0,0-4.2,1.1"/><path class="cls-5" d="M1133,344.1a3.5,3.5,0,0,1,.7,3.1,4.5,4.5,0,0,1-2.4,2.8c-2.2,1.3-4,2.7-5,5a8.2,8.2,0,0,0-.4,6.7,9.8,9.8,0,0,0,5.1,5.1,17.2,17.2,0,0,0,7.4,2.2c2.8-.1,4.7-1.7,6-4.1a33,33,0,0,0,3.2-8.4,22.7,22.7,0,0,0-.5-9,9.3,9.3,0,0,0-2-4.4,11.6,11.6,0,0,0-3.6-2.5c-2.5-1.4-5.7-1.7-7.9.5s.8,3.6,2.1,2.2,4-.4,5.6.6,1.8,1.1,2.2,2.1a22.4,22.4,0,0,1,1,3.7c1,5.1-.5,9.9-3.1,14.4-1.2,2.1-3.3,2.1-5.5,1.5a14.8,14.8,0,0,1-5.6-2.8c-3.1-2.5-2.1-7,.9-9.2s4.1-2.2,5.1-4.6a7.1,7.1,0,0,0-.7-6.5c-1.1-1.5-3.7,0-2.6,1.6Z"/><path class="cls-5" d="M1102,341.7a13.5,13.5,0,0,0,9.9,8.6c2.5.6,5.4.4,7.4,2.1a7.3,7.3,0,0,1,2.2,5.3,4.6,4.6,0,0,1-1.1,3.8,5.1,5.1,0,0,1-2.7.9c-2.5.4-5.3.8-7.4-.6s-2.3-2.7-3.5-3.9c-3.2-3.4-8.6-3.5-12.3-6.3a10.5,10.5,0,0,1-3.9-9.3,2.9,2.9,0,0,1,.7-1.8,3.4,3.4,0,0,1,1.5-.9c2-.7,4.1-1.4,6.1-1.1s4.1,2,4.1,4.1"/><path class="cls-5" d="M1100.5,342.1a15.5,15.5,0,0,0,10.6,9.6c2.4.6,5.9.2,7.6,2.3s2.3,5.1.6,6.4-2.8.7-3.9.8a6.5,6.5,0,0,1-3.9-.4,8.5,8.5,0,0,1-2.5-2.5,12.8,12.8,0,0,0-2.8-2.9c-4.1-2.8-10.1-2.8-12.9-7.4a8.9,8.9,0,0,1-1.2-3.8,6,6,0,0,1,.1-2.3c.3-.8,1.1-.9,1.9-1.2a8.8,8.8,0,0,1,4.8-.6,3,3,0,0,1,2.6,2.5c.1,1.9,3.1,1.9,3,0s-3.1-5.4-6.2-5.6a14,14,0,0,0-5.4,1c-1.6.6-3,1.2-3.5,2.9s0,6.8,1.8,9.3,4.6,4.1,7.7,5.2,5.7,2,7.7,4.5a11.4,11.4,0,0,0,3.4,3.5,10.2,10.2,0,0,0,4.6.9c3.1-.1,7.1-.5,8.2-4a9.6,9.6,0,0,0-2.1-8.6c-2.7-2.8-6.8-2.1-10.1-3.3a12.3,12.3,0,0,1-7.2-7.1c-.7-1.8-3.6-1-2.9.8Z"/><path class="cls-5" d="M1088.5,327.3a31.1,31.1,0,0,0,6.5,3.9,11.1,11.1,0,0,0,7.4.6,3.9,3.9,0,0,0,1.6-1,4.2,4.2,0,0,0,.9-1.6,20,20,0,0,0,1.3-6.8c0-1.3-.1-2.8.8-3.8s2.8-1.4,3.1-2.8-.7-2.1-1.6-2.8a11,11,0,0,0-4.3-2.5c-3.5-.8-7.1,1.4-8.9,4.5a20.7,20.7,0,0,0-1.5,3.4,57.1,57.1,0,0,1-4.7,8.8"/><path class="cls-5" d="M1087.8,328.6c4.1,3,8.9,6,14.3,4.8a5.8,5.8,0,0,0,2.9-1.5,7.3,7.3,0,0,0,1.7-3.4,31.4,31.4,0,0,0,1-7.4,2.5,2.5,0,0,1,1.3-2.2,6.5,6.5,0,0,0,2.2-1.8c1.4-2.3-.5-4.4-2.2-5.7s-4-2.6-6.4-2.5a10,10,0,0,0-6.3,2.5c-2.1,1.9-3,4.4-4.1,7a63.5,63.5,0,0,1-4.4,8.1c-1,1.6,1.6,3.1,2.6,1.5s2.3-3.9,3.3-5.9,1.7-4.1,2.7-6,5.5-5.4,9-3.5c.7.4,3.8,2.2,3.1,3.1s-1.2.7-1.7,1.1a4.6,4.6,0,0,0-1.7,2.2c-.7,1.9-.3,4-.6,5.9a18.7,18.7,0,0,1-.8,3.2,2.8,2.8,0,0,1-1.3,2c-2.1,1.1-4.8.6-6.8-.3a27.1,27.1,0,0,1-6.3-3.8c-1.6-1.1-3.1,1.5-1.5,2.6Z"/><path class="cls-5" d="M1102.1,364.4a18.6,18.6,0,0,0,16.7,7,10.1,10.1,0,0,1,3-.1c2.7.5,3.9,3.6,4.5,6.3a5,5,0,0,1,0,2.7c-.7,1.7-2.9,2.1-4.8,2.3s-4.3.4-6.2-.4l-1.7-.5c-2.2-.1-3.2,2.9-5.1,4s-5.2-.5-6.4-2.7-1.4-5-2.2-7.4-1.3-3.1-1.9-4.7a5.2,5.2,0,0,1-.1-3.7,2.3,2.3,0,0,1,3-1.2"/><path class="cls-5" d="M1101,365.5a20,20,0,0,0,12.3,7.2,15,15,0,0,0,3.7.3c1.3,0,2.6-.4,4-.3s3.1,2.4,3.6,4.3.7,2.2.1,3a4.1,4.1,0,0,1-2.8,1.1,26.7,26.7,0,0,1-4,.1c-1.5-.1-2.8-.9-4.3-1s-3.4,1.7-4.7,3.1a2.8,2.8,0,0,1-2.1,1.3,3.6,3.6,0,0,1-2.7-1.5c-2-2.2-1.9-5.7-2.9-8.4a36.6,36.6,0,0,1-1.8-4.6,3.8,3.8,0,0,1-.2-2.1c.1-.3.6-.9,1-.7s3.2-1.7,1.5-2.6-5.6,1.2-5.6,4.1a13.7,13.7,0,0,0,1.3,4.5,30.4,30.4,0,0,1,1.8,5.6c.7,2.9,1.6,5.9,4.2,7.6a5.5,5.5,0,0,0,7.3-.7,24.1,24.1,0,0,1,2.1-2.4c.6-.3,1-.1,1.7.1a9.5,9.5,0,0,0,2.9.7,25.7,25.7,0,0,0,4.8-.2,8.1,8.1,0,0,0,3.9-1.2c2.6-1.8,2-5.3,1-7.9s-2.8-5-5.7-5.2-3.5.4-5.2.3a15.6,15.6,0,0,1-4.8-.8,18,18,0,0,1-8.3-5.8c-1.2-1.6-3.3.6-2.1,2.1Z"/><path class="cls-5" d="M1041.1,274c-2.3.8-4.7,1.6-6.4,3.4s-2.4,4.7-1,6.7,5.9,2.6,6.8,5.5-.2,3.3.5,4.7,2.3,1.7,3.7,1.8a14.2,14.2,0,0,0,11.1-4.6c1.5-1.8,2.5-4.7.9-6.4s-3.6-1.6-3.5-3.3,1.2-1.8,1.8-2.7.2-4-1.3-5.2a9.2,9.2,0,0,0-5.6-1.4,35.4,35.4,0,0,0-7.3.6"/><path class="cls-5" d="M1040.7,272.5c-3,1.1-6.2,2.3-8,5.1a6.3,6.3,0,0,0,.3,7.9,11.9,11.9,0,0,0,2.9,2.1,8.8,8.8,0,0,1,2.8,1.7c.9,1.1.4,2.7.5,4a4.2,4.2,0,0,0,2.5,3.5c2.6,1.3,6.1.9,8.8-.1a13.9,13.9,0,0,0,7.2-5.4c1.6-2.3,2-5.6-.4-7.6a5.6,5.6,0,0,0-1.5-1c-.2-.1-1.1-.5-1.1-.8s.5-.8.7-1a5.2,5.2,0,0,0,1.2-1.8c1.3-3.2-1.2-6.4-4.1-7.5s-8.3-.6-12.1.1c-1.9.4-1.1,3.3.8,2.9a24.9,24.9,0,0,1,9-.5c1.7.3,4.9,2,3.5,4.2s-1.5,1.5-1.9,2.5a3.2,3.2,0,0,0,.6,3c1,1.4,3.9,1.8,3.6,3.9s-2.5,4.1-4.4,5.2a12.1,12.1,0,0,1-7.2,1.6c-1.1-.1-2.1-.4-2.2-1.6s.1-2.5-.2-3.7-2.4-3.1-4.2-4-4-2.2-3.1-4.8,4.2-4.1,6.8-5,1.1-3.5-.8-2.9Z"/><path class="cls-5" d="M1063.8,281.4a5.3,5.3,0,0,1,4.6,4.9,18.4,18.4,0,0,1-.6,4.1c-.6,3.8,1.7,8,5.4,8.7s5-.5,7.2-1.6,4.9-2.7,5.2-5.2a8.6,8.6,0,0,0-.9-3.9,24.9,24.9,0,0,0-3.5-6.9,21.6,21.6,0,0,0-7.9-6.1l-1.5-.5a5.5,5.5,0,0,0-2.2.2,13,13,0,0,0-4.3,1.5,4.3,4.3,0,0,0-2,3.8"/><path class="cls-5" d="M1063.4,282.9c2.7.4,3.8,2.6,3.3,5.1s-.8,4.7.2,7.1a8.5,8.5,0,0,0,4.4,4.9c2.7,1.3,5.6.7,8.3-.4s4.6-2.1,6.2-4.1,1.4-4.9.4-7.5a36.4,36.4,0,0,0-3.9-7.6,21.3,21.3,0,0,0-6.1-5.1,11.6,11.6,0,0,0-4.4-1.9,10.4,10.4,0,0,0-4.6.8c-2.8.8-5.6,3-5.4,6.2s3.1,2,3,0,2.5-3.2,4.4-3.7a4.7,4.7,0,0,1,3.3,0l3.2,1.8a16.9,16.9,0,0,1,4.9,4.7,31.1,31.1,0,0,1,3,6.4c.4,1.1.8,2.2.3,3.2a4.6,4.6,0,0,1-1.8,2.1,18,18,0,0,1-6.2,2.7c-4.1.8-7-2.8-6.7-6.7s1.2-4.6.1-7.1a6.7,6.7,0,0,0-5.1-3.8,1.5,1.5,0,0,0-1.8,1c-.2.7.2,1.8,1,1.9Z"/><path class="cls-5" d="M1040.7,304.1a13.7,13.7,0,0,0,13-1.4c2.1-1.5,4-3.7,6.5-4a7.4,7.4,0,0,1,5.5,1.9,5.1,5.1,0,0,1,2,3.4,6,6,0,0,1-1.1,2.6c-1.4,2.1-3.1,4.5-5.6,5s-3.5-.1-5.2-.1c-4.7.1-8.4,3.9-13,4.7a10.1,10.1,0,0,1-9.4-3.4,3.2,3.2,0,0,1-.9-1.7,3.9,3.9,0,0,1,.4-1.8c.8-1.9,1.7-3.9,3.4-5.1s4.2-1.7,5.7-.3"/><path class="cls-5" d="M1040.3,305.5a15.2,15.2,0,0,0,14.8-2c1.8-1.3,3.7-3.6,6.1-3.4s5.8,2.3,4.7,4.7-2.8,4.6-4.9,5.3a11.3,11.3,0,0,1-4.1,0,11.2,11.2,0,0,0-4.1.4c-4.7,1.4-8.8,5.5-14,4a7.2,7.2,0,0,1-3.6-2c-.6-.5-1.3-1.1-1.2-1.9a10.8,10.8,0,0,1,.8-1.9,7.2,7.2,0,0,1,2.7-3.5,3,3,0,0,1,3.5-.2c1.4,1.2,3.6-.9,2.1-2.1a6.4,6.4,0,0,0-8.2.4,12.6,12.6,0,0,0-2.7,3.8c-.7,1.6-1.6,3.4-.9,5.1s4.6,4.8,7.4,5.4,6.3-.2,9.2-1.6,5.7-3.2,9.2-2.9a12.4,12.4,0,0,0,4.7-.1,9.2,9.2,0,0,0,3.8-2.6c2-2.2,4.6-5.5,3.1-8.5a9.4,9.4,0,0,0-8.1-4.8c-3.7.2-5.9,3.4-9,5.1a12.4,12.4,0,0,1-10.5.4c-1.8-.7-2.6,2.2-.8,2.9Z"/><path class="cls-5" d="M1021,304.1a33.2,33.2,0,0,0,7.2-2,10.7,10.7,0,0,0,5.4-5.1,4.1,4.1,0,0,0,.5-1.8,6.4,6.4,0,0,0-.6-1.8,18.4,18.4,0,0,0-4.1-5.5c-1-1-2.1-1.9-2.3-3.2s.9-3.1.1-4.2-2.1-.9-3.2-.8a13.1,13.1,0,0,0-4.7,1.6c-2.9,1.9-3.8,6.1-2.8,9.5a34.9,34.9,0,0,0,1.5,3.4,53.4,53.4,0,0,1,3.3,9.5"/><path class="cls-5" d="M1021.4,305.6c4.9-1,10.3-2.4,13.1-7a8.4,8.4,0,0,0,1.1-3,8.5,8.5,0,0,0-1.2-3.7,23,23,0,0,0-4.6-5.7,2.8,2.8,0,0,1-1.1-2.8,4.5,4.5,0,0,0-.1-3.4c-1.1-2.2-3.8-1.9-5.8-1.6a10.3,10.3,0,0,0-6,3.1,10,10,0,0,0-2.2,6c-.1,2.7,1,5.1,2.1,7.5a57.7,57.7,0,0,1,3.2,9.1c.4,1.8,3.3,1.1,2.9-.8s-1.3-4.4-2.1-6.5-1.9-4-2.6-6-.4-7.2,2.9-8.7a12.9,12.9,0,0,1,2.8-.8c.5-.1,1.8-.4,2.2.1s-.3,1.9-.4,2.5a5,5,0,0,0,.7,2.7c.9,1.6,2.6,2.8,3.8,4.3s3,3.6,2.2,5.4c-1.8,4.5-7.5,5.5-11.7,6.4-1.9.4-1.1,3.3.8,2.9Z"/><path class="cls-5" d="M1057.4,319.4a18.7,18.7,0,0,0,16.5-7.5,8.2,8.2,0,0,1,1.9-2.2c2.2-1.7,5.3-.5,7.7.9a5.2,5.2,0,0,1,2,1.9c.8,1.7-.4,3.6-1.6,5a14.5,14.5,0,0,1-4.5,4.4,7.5,7.5,0,0,0-1.5.9c-1.6,1.5-.1,4.2-.6,6.4s-3.8,3.5-6.3,2.8-4.6-2.3-6.9-3.4-3.2-1.1-4.7-1.8a4.8,4.8,0,0,1-2.8-2.4,2.2,2.2,0,0,1,1.2-3"/><path class="cls-5" d="M1057.4,320.9a20.3,20.3,0,0,0,13.7-4,21.6,21.6,0,0,0,2.7-2.5c.8-.9,1.5-2,2.3-2.9s4.4-.9,6.3.2,1.9,1.1,1.8,2.3-1.3,2.5-2.1,3.4a12.3,12.3,0,0,1-2.5,2.6c-.9.7-2.1,1-3,1.9s-.5,4.3-.7,6.5-2.4,2.5-4.1,2.3-5.2-2.6-7.7-3.7a38,38,0,0,1-4.7-1.8,3.7,3.7,0,0,1-1.3-1.2c-.2-.3-.3-1,.1-1.2s1-3.6-.8-2.9-3.1,4.7-1,6.8a14.1,14.1,0,0,0,3.8,2.1,31.4,31.4,0,0,1,5.3,2.3c2.5,1.4,5,2.9,8,2.6s5.1-2,5.4-4.8a23.4,23.4,0,0,0-.3-3.8c0-.7.1-1.1.6-1.4s1.6-.8,2.3-1.4a14.8,14.8,0,0,0,3-3.1,12.2,12.2,0,0,0,2.5-4.1c1-3.3-1.7-5.4-4.5-6.7s-6-1.7-8.3.7-1.9,2.6-3.1,3.8a14.2,14.2,0,0,1-3.9,2.9,16.8,16.8,0,0,1-9.8,2.1c-1.9-.1-1.9,2.9,0,3Z"/><path class="cls-5" d="M959.1,290.6c-1.9,1.5-3.9,3.1-4.9,5.3s-.8,5.2,1.1,6.6,6.5.6,8.2,3.1.9,3.2,2.1,4.3,2.6.9,4,.5a13.9,13.9,0,0,0,9-7.9c.9-2.2,1-5.2-1.1-6.3s-4-.4-4.5-2,.6-2.1.9-3.2-1-3.8-2.9-4.5-3.9-.1-5.8.5a32.3,32.3,0,0,0-6.6,2.9"/><path class="cls-5" d="M958.1,289.5c-2.4,1.9-5,4.1-5.8,7.2a6.6,6.6,0,0,0,2.5,7.3,9.4,9.4,0,0,0,3.7,1.1c1.1.2,2.5.2,3.4.9s1.1,2.2,1.5,3.3a4.4,4.4,0,0,0,3.3,2.7c2.9.6,6.2-1.1,8.5-2.8a14.8,14.8,0,0,0,5.1-6.9c.8-2.4.6-5.7-1.8-7.2s-2.3-.7-3.5-1.1-.4-.1-.5-.5a3,3,0,0,1,.4-1,7.8,7.8,0,0,0,.5-1.4c.7-3.8-3.1-6.4-6.4-6.4s-7.9,2-11.2,3.9a1.5,1.5,0,0,0,1.5,2.6,29.4,29.4,0,0,1,8.2-3.3,5.3,5.3,0,0,1,3.7.4,2.3,2.3,0,0,1,1.1,2.9c-.5,1.1-1.1,2.1-.7,3.4a3.4,3.4,0,0,0,2.3,2.2c.9.3,1.8.3,2.6.6a2.2,2.2,0,0,1,1.2,2.3c-.1,4.5-5.1,8.7-9.2,9.4-1.2.2-2-.1-2.4-1.2a10.7,10.7,0,0,0-1.3-3.1c-1.2-1.9-3.4-2.3-5.5-2.6a6,6,0,0,1-3.4-1.1,4.2,4.2,0,0,1-.8-3.1c.3-2.8,3-4.7,5.1-6.4s-.6-3.3-2.1-2.1Z"/><path class="cls-5" d="M983,290.4a5.3,5.3,0,0,1,5.9,3.2,27,27,0,0,1,.8,4.1c.6,3.7,4.2,7,7.9,6.5s4.5-2.1,6.3-3.8,3.8-4.2,3.2-6.7a6.7,6.7,0,0,0-2-3.3,29.2,29.2,0,0,0-5.6-5.5,22.4,22.4,0,0,0-9.4-3.2h-1.6a5.2,5.2,0,0,0-2,.9,14,14,0,0,0-3.6,2.8,4.2,4.2,0,0,0-.7,4.3"/><path class="cls-5" d="M983.4,291.9c2.5-.5,4.2,1.5,4.5,3.7a15.9,15.9,0,0,0,.7,3.8,10.1,10.1,0,0,0,1.8,3.2,8.7,8.7,0,0,0,6.2,3.1c2.6.2,5-1.3,6.9-2.9s4.1-3.8,4.9-6.4-.5-5-2.2-7.1a27.1,27.1,0,0,0-6.3-5.9,21,21,0,0,0-7.8-2.9,10.4,10.4,0,0,0-4.3-.2,12.8,12.8,0,0,0-3.8,2.1c-2.4,1.7-4.5,4.6-3.3,7.7s3.6,1,2.9-.8,1.4-4,3.1-5.1a4.2,4.2,0,0,1,2.8-1,13.5,13.5,0,0,1,3.5.6,16.3,16.3,0,0,1,6.3,2.8,30.2,30.2,0,0,1,5,5.1,4.4,4.4,0,0,1,1.4,2.8,4.6,4.6,0,0,1-1.3,3.1,16.2,16.2,0,0,1-5,4.4c-3.9,2.1-7.8-1.2-8.4-5.1-.3-2.4-.4-4.6-2.3-6.3a7,7,0,0,0-6.1-1.6c-1.8.3-1,3.2.8,2.9Z"/><path class="cls-5" d="M968.3,319.3a13.9,13.9,0,0,0,11.9-5.5c1.6-2.1,2.6-4.8,4.9-5.9a7.3,7.3,0,0,1,5.8.1,4.6,4.6,0,0,1,3,2.6,5.4,5.4,0,0,1-.2,2.8c-.7,2.5-1.5,5.2-3.7,6.5s-3.3,1-5,1.6c-4.3,1.6-6.7,6.4-10.7,8.6a10.4,10.4,0,0,1-10.1-.2,3.8,3.8,0,0,1-1.4-1.4,5.2,5.2,0,0,1-.2-1.8c.2-2,.4-4.2,1.6-5.9a4.6,4.6,0,0,1,5.4-2.1"/><path class="cls-5" d="M968.3,320.8a15.4,15.4,0,0,0,13.4-6.6c1.3-1.8,2.3-4.4,4.6-5.2s6.6.3,6.2,3.1-1.3,5.5-3.4,6.6a12.1,12.1,0,0,1-3.7,1.1,14.9,14.9,0,0,0-3.6,1.7c-3.9,2.8-6.5,7.9-11.6,8.3a9.3,9.3,0,0,1-4.4-.8,3,3,0,0,1-1.7-1.2,8.9,8.9,0,0,1,.1-2.3c.3-2.4,1.7-6.6,5-5.4,1.8.7,2.5-2.2.7-2.9s-6.1.9-7.4,3.5a14.8,14.8,0,0,0-1.3,5c-.1,1.7-.2,3.4,1.1,4.6s6.2,2.8,9.2,2.3,5.6-2.5,7.8-4.7,4.1-4.4,7.1-5.2,3.4-.7,4.8-1.8a8,8,0,0,0,2.7-3.6c1.3-2.7,2.7-6.7.2-9.1a9.3,9.3,0,0,0-9.3-1.8c-3.4,1.5-4.4,5.1-6.7,7.6a12.5,12.5,0,0,1-9.8,3.8c-1.9-.1-1.9,2.9,0,3Z"/><path class="cls-5" d="M949.7,325.6a29.8,29.8,0,0,0,6.2-4.3,10.5,10.5,0,0,0,3.5-6.5,2.8,2.8,0,0,0-.2-1.8,4.2,4.2,0,0,0-1.1-1.6,20.1,20.1,0,0,0-5.6-3.9c-1.2-.6-2.6-1.1-3.2-2.3s-.1-3.2-1.3-4-2.2-.2-3.2.3a12,12,0,0,0-4,3c-2.2,2.8-1.6,7,.4,9.9a21.8,21.8,0,0,0,2.5,2.8,52,52,0,0,1,6.1,7.9"/><path class="cls-5" d="M950.5,326.9c4.2-2.5,8.9-5.5,10.2-10.6a5.9,5.9,0,0,0-2-6.3,25.1,25.1,0,0,0-6.1-4.1c-.8-.4-1.8-.7-2-1.7s-.2-2.1-.8-3.1-4.1-1.8-6.1-.7a10.8,10.8,0,0,0-5.1,4.8,9.7,9.7,0,0,0-.3,6.5c.8,2.7,2.6,4.7,4.5,6.7a70,70,0,0,1,5.8,7.4c1,1.6,3.6.1,2.5-1.5a53,53,0,0,0-3.9-5.4c-1.4-1.6-2.9-3.1-4.3-4.8s-3-7.1,0-9.6a13.2,13.2,0,0,1,2.5-1.6c.7-.3,1.7-1,1.9.1s.4,3.2,2,4.5,3.3,1.7,4.9,2.7,3.8,2.4,3.7,4.2c-.1,4.9-5.3,7.8-9,9.9a1.5,1.5,0,0,0,1.6,2.6Z"/><path class="cls-5" d="M989.1,328.5a18.7,18.7,0,0,0,13.2-12.4,8.6,8.6,0,0,1,1.1-2.8c1.6-2.2,4.9-2.1,7.6-1.5a4.5,4.5,0,0,1,2.5,1.2c1.3,1.3.7,3.5.1,5.2s-1.4,4.1-2.9,5.6a4.5,4.5,0,0,0-1.1,1.3c-1.1,1.9,1.3,4.1,1.5,6.3s-2.5,4.5-5.1,4.7-5.1-.8-7.7-1-3.3-.1-5-.3a5.3,5.3,0,0,1-3.4-1.3c-.8-1-.9-2.6.2-3.3"/><path class="cls-5" d="M989.5,329.9a20.4,20.4,0,0,0,11.5-7.8,22,22,0,0,0,3-6.4,3.4,3.4,0,0,1,2.1-2.5,9.4,9.4,0,0,1,6.1.6c.9.8.5,2.2.3,3.2s-.8,2.3-1.3,3.4a13.9,13.9,0,0,1-2.3,3.1c-1.8,2-.9,4.2.1,6.3a3.4,3.4,0,0,1,.5,2.6,3.7,3.7,0,0,1-2.5,1.9c-2.9,1-6.4-.6-9.3-.8a26.3,26.3,0,0,1-4.9-.3c-.8-.1-2.9-1-1.7-2s-.6-3.3-2.1-2.1-.8,5.6,1.7,6.6a11.7,11.7,0,0,0,4.9.7,34.5,34.5,0,0,1,5.5.7c3.1.6,6.3,1,9-1a5.5,5.5,0,0,0,1.8-7.1c-.4-1-1.5-2.4-.9-3.4a15.9,15.9,0,0,1,1.3-1.3,12,12,0,0,0,1.5-2.4c1.1-2.4,2.6-5.8,1.7-8.5s-4.6-3.4-7.2-3.5-5.6,1-6.8,3.8a42.8,42.8,0,0,1-1.7,4.6,16.4,16.4,0,0,1-2.9,4,17,17,0,0,1-8.2,4.7,1.5,1.5,0,0,0,.8,2.9Z"/><path class="cls-5" d="M917.7,263.4c-.4,2.4-.8,5-.1,7.3s2.9,4.4,5.4,4.1,5.1-3.9,8.1-3.3,2.8,1.8,4.4,1.8,2.5-1.1,3.3-2.3a13.9,13.9,0,0,0,1.3-11.9c-.8-2.2-2.8-4.5-5.1-3.9s-3.2,2.4-4.6,1.5-1-1.9-1.5-2.9-3.4-2.2-5.2-1.4a9.8,9.8,0,0,0-4,4.3,32.3,32.3,0,0,0-2.9,6.6"/><path class="cls-5" d="M916.2,263c-.5,3.3-1,7,.8,10s4.4,4,7.2,3.1a13.2,13.2,0,0,0,3.3-1.8c.9-.6,2-1.5,3.2-1.4s2.2,1.4,3.5,1.7a4.3,4.3,0,0,0,4.2-.9c2.4-2,3.5-5.4,3.8-8.3a12.8,12.8,0,0,0-1.6-8.6c-1.6-2.6-4.3-4-7.2-2.5a14,14,0,0,1-1.7.9c-.5.3-.5.3-.8-.1a9.5,9.5,0,0,1-.6-1.8,4,4,0,0,0-1.3-1.6c-2.6-2.1-6.2-1.1-8.4,1.2s-4.1,6.5-5.2,10c-.6,1.9,2.3,2.7,2.9.8a27.1,27.1,0,0,1,3.6-7.7c1.1-1.5,3.2-3.4,5.1-2.1s.9,1.6,1.2,2.4a3.3,3.3,0,0,0,2.7,2.1,4.8,4.8,0,0,0,2.6-.7c.9-.5,1.8-1.4,2.9-1s2.8,4,2.9,6a12.9,12.9,0,0,1-1.6,7.2c-.5.8-1.3,2.1-2.4,1.9s-2-1-2.9-1.4-4.1-.2-5.9.9-3.9,3.1-6,1.2-1.8-5.8-1.4-8.7-2.5-2.7-2.9-.8Z"/><path class="cls-5" d="M935.2,247.2a5.3,5.3,0,0,1,6.5-1.7,19.8,19.8,0,0,1,3.3,2.6c3,2.2,7.8,2.3,10.2-.6s2-4.6,2.1-7.1,0-5.6-2.1-7.1a9.8,9.8,0,0,0-3.8-1.1,29.1,29.1,0,0,0-7.8-.2,22.5,22.5,0,0,0-9.1,4l-1.2,1a7.2,7.2,0,0,0-.9,2,14.1,14.1,0,0,0-.7,4.5,4.2,4.2,0,0,0,2.4,3.7"/><path class="cls-5" d="M936.5,247.9a3.8,3.8,0,0,1,2.6-1.4,4.8,4.8,0,0,1,3.4,1.4c1.9,1.6,3.7,2.9,6.3,3.2a8.4,8.4,0,0,0,6.5-1.7,9.4,9.4,0,0,0,3.3-6.6,18.4,18.4,0,0,0-.2-7.4,6.8,6.8,0,0,0-5.4-4.5,32.8,32.8,0,0,0-9.4-.4,21.6,21.6,0,0,0-8,3,11.3,11.3,0,0,0-3.8,3.1,14.5,14.5,0,0,0-1.4,4.3c-.5,2.8,0,6.2,2.9,7.6s3.3-1.8,1.5-2.6-1.6-4-1-6a3.9,3.9,0,0,1,1.5-2.6l3.1-2a18,18,0,0,1,7.2-2l3.9.2a17.6,17.6,0,0,1,3.9.6c2,.7,2.4,2.8,2.5,4.7a16.9,16.9,0,0,1-.9,6.3c-1.6,3.7-6.4,3.9-9.3,1.6s-3.5-3.2-6.2-3.2a6.8,6.8,0,0,0-5.6,2.9c-1.2,1.5,1.4,3,2.6,1.5Z"/><path class="cls-5" d="M943.9,278.4a14.1,14.1,0,0,0,5-12.1c-.3-2.6-1.3-5.3-.3-7.7a7.4,7.4,0,0,1,4.3-3.8c1.3-.5,2.8-.8,3.9-.1a6.5,6.5,0,0,1,1.8,2.2c1.2,2.3,2.4,4.9,1.7,7.3s-1.8,3-2.6,4.6c-2.2,4.1-.7,9.2-2.2,13.6a10.2,10.2,0,0,1-7.6,6.6,3.1,3.1,0,0,1-1.9-.1,3.7,3.7,0,0,1-1.3-1.2,11.9,11.9,0,0,1-2.9-5.4c-.3-2.1.6-4.5,2.6-5.2"/><path class="cls-5" d="M944.9,279.4a15,15,0,0,0,5.5-13.1c-.3-2.6-1.7-5.9.2-8.2s4.6-3.5,6-1.5,3,5.2,2.1,7.6a22.3,22.3,0,0,1-2,3.3,9.8,9.8,0,0,0-1.4,3.7c-1,5,.6,10.8-3.9,14.5a7.8,7.8,0,0,1-3.5,1.8c-.7.1-1.1.2-1.7-.3a19.2,19.2,0,0,1-1.3-1.7,7.1,7.1,0,0,1-1.7-4.1,3,3,0,0,1,1.6-2.8c1.7-.7,1-3.6-.8-2.9a6.2,6.2,0,0,0-3.7,7,10.6,10.6,0,0,0,2.1,4.4c.9,1.4,2,3,3.6,3.4s6.2-1.3,8.1-3.1a13.3,13.3,0,0,0,3.6-8.6c.3-3.4-.2-7,1.7-10a17.9,17.9,0,0,0,2.2-3.8,8.7,8.7,0,0,0-.1-5.3c-1-2.8-2.6-6.7-6-6.9a9.4,9.4,0,0,0-7.7,4.1c-2.3,3.5-.2,7.5-.3,11.3a12.1,12.1,0,0,1-4.7,9.1c-1.5,1.2.6,3.4,2.1,2.1Z"/><path class="cls-5" d="M934.4,295.6a31,31,0,0,0,1.7-7.3,11.3,11.3,0,0,0-1.8-7.2,5.3,5.3,0,0,0-1.4-1.2,4.1,4.1,0,0,0-1.9-.4,19.6,19.6,0,0,0-6.8.9c-1.3.4-2.7,1-3.9.4s-2.2-2.2-3.7-2-1.7,1.3-2.1,2.4a10.4,10.4,0,0,0-.9,4.9c.3,3.5,3.5,6.3,6.9,7l3.8.4a64.6,64.6,0,0,1,9.8,1.6"/><path class="cls-5" d="M935.8,296c1.5-4.7,2.9-10.1.3-14.7a6.4,6.4,0,0,0-2.1-2.5,7.1,7.1,0,0,0-3.8-.8,33.6,33.6,0,0,0-7.6,1.3,2.5,2.5,0,0,1-2.8-.6,5,5,0,0,0-2.7-1.4c-2.4-.1-3.5,2-4.2,3.9a10.2,10.2,0,0,0-.3,7.1,9.5,9.5,0,0,0,3.9,4.7c2.4,1.6,5,1.8,7.8,2a49.9,49.9,0,0,1,9.4,1.6,1.5,1.5,0,0,0,.8-2.9,51,51,0,0,0-6.8-1.3c-2.2-.3-4.4-.3-6.6-.7s-6.4-3.2-6-6.9a18.7,18.7,0,0,1,.8-3.2c.2-.4.5-1.3,1-1.3s1.2.9,1.5,1.1a4.4,4.4,0,0,0,2.5,1.1c2.1.3,4.2-.9,6.3-1.3s4.6-.8,5.8.7c3,3.7,1.2,9.3,0,13.3a1.5,1.5,0,1,0,2.8.8Z"/><path class="cls-5" d="M965.4,271.2a18.6,18.6,0,0,0,1.3-18.1,9.4,9.4,0,0,1-1-2.8c-.4-2.7,2.2-4.9,4.6-6.2a5.1,5.1,0,0,1,2.6-.9c1.8.2,2.9,2.1,3.6,3.8a13.2,13.2,0,0,1,1.6,6.1,5,5,0,0,0,.1,1.7c.5,2.2,3.7,2.1,5.3,3.6s1.2,5-.5,6.9-4.3,2.9-6.4,4.4-2.5,2.3-3.8,3.3a4.9,4.9,0,0,1-3.4,1.2,2.2,2.2,0,0,1-2.1-2.5"/><path class="cls-5" d="M966.7,271.9a20.2,20.2,0,0,0,3-14.4,21.4,21.4,0,0,0-.9-3.4,25.4,25.4,0,0,1-1.6-3.8c-.4-2.3,2.1-4,3.8-4.9s1.9-1,2.7-.2a7.1,7.1,0,0,1,1.6,2.8,12.1,12.1,0,0,1,1.3,4.2c.1,1.3-.2,2.5.4,3.7s2.9,2.2,4.5,3,2,3.1.8,4.9-4.6,3.3-6.8,4.9-2.3,2.1-3.5,3a6.4,6.4,0,0,1-1.8,1c-.3,0-1.6.1-1.5-.6a1.5,1.5,0,0,0-1-1.8c-.7-.2-1.8.2-1.9,1-.5,3.5,3,5.2,5.9,4a13.7,13.7,0,0,0,3.7-2.6,30.8,30.8,0,0,1,4.1-3c2.5-1.6,5.2-3.2,6.3-6.2a5.7,5.7,0,0,0-2.2-6.9c-1-.6-2.1-.8-3.1-1.4s-.8-2.1-.9-3.5a18.8,18.8,0,0,0-1.4-4.6,13.6,13.6,0,0,0-2.2-3.9c-2.4-2.4-5.3-1.3-7.7.3s-4.4,3.9-4.1,6.8,1.3,3.3,1.8,5a16.6,16.6,0,0,1-1.9,15.1c-1.1,1.6,1.5,3.1,2.6,1.5Z"/><path class="cls-5" d="M865,323.5c-.4,2.4-.8,4.9,0,7.2s2.9,4.4,5.3,4.2,5.2-3.9,8.1-3.3,2.8,1.8,4.4,1.8,2.6-1.2,3.3-2.4a13.9,13.9,0,0,0,1.3-11.9c-.7-2.2-2.8-4.5-5-3.8s-3.2,2.3-4.7,1.4-1-1.9-1.5-2.9-3.3-2.1-5.1-1.3a9.6,9.6,0,0,0-4,4.2,33.1,33.1,0,0,0-2.9,6.7"/><path class="cls-5" d="M863.6,323.1c-.5,3.3-1.1,6.9.8,9.9s4.3,4,7.2,3.1a15.2,15.2,0,0,0,3.3-1.8c.9-.6,2-1.5,3.1-1.3s2.3,1.3,3.5,1.7a4.5,4.5,0,0,0,4.3-1c2.3-1.9,3.5-5.3,3.8-8.3a14.3,14.3,0,0,0-1.6-8.6c-1.7-2.5-4.4-3.9-7.3-2.5l-1.6,1c-.5.2-.6.3-.8-.2a11.5,11.5,0,0,1-.6-1.7,7.6,7.6,0,0,0-1.3-1.7c-2.7-2.1-6.3-1-8.4,1.2s-4.2,6.6-5.3,10.1c-.6,1.8,2.3,2.6,2.9.8a29.3,29.3,0,0,1,3.7-7.8c1-1.4,3.2-3.3,5.1-2s.8,1.6,1.2,2.3a3.1,3.1,0,0,0,2.6,2.1,4.4,4.4,0,0,0,2.7-.7c.8-.5,1.8-1.3,2.9-.9s2.8,4,2.9,6A13,13,0,0,1,885,330c-.5.8-1.3,2-2.4,1.9s-1.9-1.1-2.8-1.5-4.1-.2-5.9,1-4,3-6.1,1.1-1.8-5.8-1.3-8.6-2.6-2.7-2.9-.8Z"/><path class="cls-5" d="M882.6,307.2a5.2,5.2,0,0,1,6.4-1.6,20.4,20.4,0,0,1,3.3,2.5c3.1,2.3,7.8,2.3,10.3-.6s1.9-4.6,2.1-7.1-.1-5.5-2.1-7a7.3,7.3,0,0,0-3.8-1.1,29.3,29.3,0,0,0-7.8-.3,21.9,21.9,0,0,0-9.1,4,3.2,3.2,0,0,0-1.2,1.1,4.6,4.6,0,0,0-.9,2,11.8,11.8,0,0,0-.7,4.5,4,4,0,0,0,2.3,3.6"/><path class="cls-5" d="M883.9,308a3.8,3.8,0,0,1,2.6-1.4,3.9,3.9,0,0,1,3.3,1.4,12.7,12.7,0,0,0,6.3,3.2,9,9,0,0,0,6.6-1.7c2.1-1.6,2.9-4.1,3.3-6.7a16.9,16.9,0,0,0-.3-7.4,6.4,6.4,0,0,0-5.3-4.4,29.9,29.9,0,0,0-9.4-.5,20.6,20.6,0,0,0-8,3.1c-1.4.8-3,1.6-3.8,3a10.9,10.9,0,0,0-1.4,4.3c-.6,2.9,0,6.2,2.9,7.6s3.2-1.7,1.5-2.6-1.6-4-1.1-6a4.3,4.3,0,0,1,1.5-2.6,33.7,33.7,0,0,1,3.2-1.9,14.9,14.9,0,0,1,7.1-2,25.4,25.4,0,0,1,3.9.1,16.8,16.8,0,0,1,3.9.7c2.1.6,2.5,2.7,2.5,4.6a16.6,16.6,0,0,1-.9,6.3c-1.5,3.7-6.3,3.9-9.2,1.7s-3.6-3.3-6.3-3.2a6.8,6.8,0,0,0-5.5,2.9c-1.2,1.5,1.4,3,2.6,1.5Z"/><path class="cls-5" d="M891.2,338.4a13.7,13.7,0,0,0,5.1-12.1c-.3-2.5-1.3-5.2-.4-7.6a7,7,0,0,1,4.4-3.8,4.1,4.1,0,0,1,3.9-.1,4.7,4.7,0,0,1,1.7,2.2c1.2,2.2,2.4,4.8,1.7,7.3s-1.8,3-2.6,4.5c-2.1,4.1-.6,9.2-2.1,13.6a10.4,10.4,0,0,1-7.6,6.6,3.1,3.1,0,0,1-1.9,0,3,3,0,0,1-1.3-1.2,13.5,13.5,0,0,1-3-5.5c-.3-2,.6-4.4,2.6-5.1"/><path class="cls-5" d="M892.3,339.5a15.4,15.4,0,0,0,5.5-13.2c-.3-2.5-1.7-5.9.1-8.1s4.6-3.5,6.1-1.6,3,5.3,2.1,7.7a29.2,29.2,0,0,1-2.1,3.2,12.4,12.4,0,0,0-1.4,3.8c-.9,5,.6,10.8-3.8,14.5a9.9,9.9,0,0,1-3.6,1.7,1.4,1.4,0,0,1-1.6-.2,12.4,12.4,0,0,1-1.4-1.8,7.4,7.4,0,0,1-1.6-4,3.1,3.1,0,0,1,1.5-2.9c1.8-.7,1-3.6-.8-2.9a6.3,6.3,0,0,0-3.6,7,11.5,11.5,0,0,0,2,4.5c1,1.3,2,2.9,3.7,3.3s6.1-1.3,8-3.1a13,13,0,0,0,3.7-8.6c.2-3.3-.2-6.9,1.6-9.9a21.4,21.4,0,0,0,2.3-3.8,8.3,8.3,0,0,0-.2-5.4c-.9-2.8-2.6-6.7-6-6.8s-6.1,1.7-7.7,4-.1,7.5-.3,11.3a12.7,12.7,0,0,1-4.6,9.2c-1.5,1.2.6,3.3,2.1,2.1Z"/><path class="cls-5" d="M881.8,355.7a30.5,30.5,0,0,0,1.6-7.4,10.4,10.4,0,0,0-1.8-7.1,4.4,4.4,0,0,0-1.4-1.3,5.2,5.2,0,0,0-1.8-.3,19.6,19.6,0,0,0-6.8.9c-1.3.4-2.7.9-3.9.4s-2.3-2.2-3.7-2.1-1.8,1.4-2.1,2.5a11.5,11.5,0,0,0-1,4.8c.3,3.6,3.5,6.3,7,7a23.3,23.3,0,0,0,3.7.4,64,64,0,0,1,9.9,1.7"/><path class="cls-5" d="M883.2,356.1c1.5-4.8,2.9-10.1.3-14.8a7.5,7.5,0,0,0-2.2-2.5,6.8,6.8,0,0,0-3.7-.7,27.5,27.5,0,0,0-7.6,1.3,2.6,2.6,0,0,1-2.8-.7,5.2,5.2,0,0,0-2.8-1.3c-2.3-.2-3.5,2-4.1,3.9s-1.3,4.7-.4,7.1a10.7,10.7,0,0,0,4,4.7c2.3,1.5,5,1.7,7.7,1.9a60.8,60.8,0,0,1,9.5,1.6c1.9.5,2.7-2.4.8-2.8a54.7,54.7,0,0,0-6.8-1.4c-2.2-.3-4.5-.3-6.6-.7s-6.4-3.2-6.1-6.8a11.7,11.7,0,0,1,.9-3.2c.2-.4.4-1.4,1-1.4s1.2.9,1.5,1.2a6.6,6.6,0,0,0,2.4,1.1c2.1.2,4.3-.9,6.3-1.3s4.6-.8,5.8.6c3.1,3.8,1.3,9.3,0,13.4-.6,1.8,2.3,2.6,2.9.8Z"/><path class="cls-5" d="M912.7,331.2a18.6,18.6,0,0,0,1.4-18.1,15.3,15.3,0,0,1-1.1-2.7c-.3-2.8,2.2-4.9,4.6-6.3a5,5,0,0,1,2.6-.8c1.9.1,2.9,2,3.7,3.7s1.7,4,1.6,6.1a9.6,9.6,0,0,0,0,1.7c.6,2.2,3.7,2.2,5.4,3.7s1.2,5-.6,6.9-4.2,2.9-6.3,4.4-2.5,2.2-3.9,3.2a5,5,0,0,1-3.4,1.3,2.3,2.3,0,0,1-2.1-2.5"/><path class="cls-5" d="M914,332a20.4,20.4,0,0,0,3-14.4,13,13,0,0,0-.8-3.4c-.5-1.3-1.4-2.5-1.6-3.8s2.1-4,3.8-5,1.8-1,2.7-.1a9.2,9.2,0,0,1,1.6,2.7,20.4,20.4,0,0,1,1.3,4.2c.1,1.3-.2,2.6.4,3.8s2.8,2.2,4.5,3,2,3.1.8,4.8-4.7,3.3-6.8,4.9-2.3,2.1-3.5,3a5,5,0,0,1-1.9,1c-.2.1-1.5.1-1.4-.5a1.6,1.6,0,0,0-1.1-1.9,1.5,1.5,0,0,0-1.8,1.1c-.5,3.4,3,5.1,5.9,3.9a13.4,13.4,0,0,0,3.7-2.5,23.8,23.8,0,0,1,4-3.1c2.6-1.5,5.2-3.1,6.3-6.1s.3-5.5-2.2-6.9a27.5,27.5,0,0,0-3-1.4c-1.4-.7-.8-2.2-1-3.5a15,15,0,0,0-1.4-4.7,9.7,9.7,0,0,0-2.2-3.8c-2.3-2.5-5.3-1.4-7.7.3s-4.3,3.8-4.1,6.8,1.3,3.3,1.9,4.9a14.8,14.8,0,0,1,.9,5.1,17.5,17.5,0,0,1-2.9,10.1c-1,1.6,1.6,3.1,2.6,1.5Z"/><path class="cls-5" d="M839.5,271.4c-.4,2.4-.8,4.9,0,7.3s2.9,4.4,5.3,4.1,5.2-3.9,8.1-3.3,2.8,1.8,4.4,1.8a4.2,4.2,0,0,0,3.3-2.3,13.9,13.9,0,0,0,1.3-11.9c-.8-2.3-2.8-4.5-5.1-3.9s-3.1,2.3-4.6,1.5-1-1.9-1.5-2.9-3.4-2.2-5.1-1.4a9.6,9.6,0,0,0-4,4.2,35.7,35.7,0,0,0-2.9,6.7"/><path class="cls-5" d="M838.1,271c-.6,3.3-1.1,7,.8,10s4.3,4,7.2,3.1a15.2,15.2,0,0,0,3.3-1.8c.8-.6,2-1.5,3.1-1.4s2.3,1.3,3.5,1.7a4.5,4.5,0,0,0,4.3-.9c2.3-2,3.4-5.4,3.8-8.3a14.1,14.1,0,0,0-1.6-8.6c-1.7-2.6-4.4-4-7.3-2.6l-1.6,1c-.5.2-.6.3-.8-.2s-.4-1.2-.7-1.7a3.4,3.4,0,0,0-1.3-1.6c-2.6-2.1-6.2-1.1-8.4,1.2s-4.1,6.5-5.2,10c-.6,1.9,2.3,2.7,2.9.8a27.4,27.4,0,0,1,3.7-7.7c1-1.5,3.2-3.4,5.1-2.1s.8,1.6,1.2,2.4a3.1,3.1,0,0,0,2.6,2.1,4.5,4.5,0,0,0,2.7-.8c.8-.4,1.8-1.3,2.8-.9s2.8,4,3,6a13,13,0,0,1-1.7,7.2c-.5.8-1.3,2.1-2.4,1.9s-1.9-1-2.8-1.4-4.1-.3-5.9.9-4,3-6.1,1.1-1.8-5.8-1.3-8.6-2.6-2.7-2.9-.8Z"/><path class="cls-5" d="M857,255.1a5.4,5.4,0,0,1,6.5-1.6,20.4,20.4,0,0,1,3.3,2.5c3,2.3,7.8,2.3,10.3-.5s1.9-4.6,2.1-7.1-.1-5.6-2.2-7.1a8.9,8.9,0,0,0-3.7-1.1,29.2,29.2,0,0,0-7.8-.2,20.2,20.2,0,0,0-9.1,4,4,4,0,0,0-1.2,1,5.2,5.2,0,0,0-.9,2,11.8,11.8,0,0,0-.7,4.5,4.3,4.3,0,0,0,2.3,3.7"/><path class="cls-5" d="M858.3,255.9a3.9,3.9,0,0,1,6,0,11.9,11.9,0,0,0,6.3,3.2,8.7,8.7,0,0,0,6.6-1.7,9.7,9.7,0,0,0,3.2-6.6,15.4,15.4,0,0,0-.2-7.4,6.6,6.6,0,0,0-5.4-4.5,29.1,29.1,0,0,0-9.3-.4,19.9,19.9,0,0,0-8.1,3,10.9,10.9,0,0,0-3.7,3,11.4,11.4,0,0,0-1.4,4.4c-.6,2.8,0,6.2,2.8,7.6s3.3-1.8,1.6-2.6-1.7-4.1-1.1-6a4.3,4.3,0,0,1,1.5-2.6,21.4,21.4,0,0,1,3.2-2,16.1,16.1,0,0,1,7.1-2,17,17,0,0,1,3.9.2,16.7,16.7,0,0,1,3.9.6c2.1.7,2.5,2.8,2.5,4.7a17.2,17.2,0,0,1-.9,6.3c-1.6,3.7-6.3,3.9-9.2,1.6s-3.6-3.2-6.3-3.2a7,7,0,0,0-5.6,2.9c-1.1,1.5,1.5,3,2.6,1.5Z"/><path class="cls-5" d="M865.7,286.4a13.6,13.6,0,0,0,5-12.1c-.2-2.6-1.2-5.3-.3-7.7a7.4,7.4,0,0,1,4.3-3.8,4.7,4.7,0,0,1,4-.1,5.2,5.2,0,0,1,1.7,2.2c1.2,2.3,2.4,4.8,1.7,7.3s-1.8,3-2.6,4.6c-2.1,4-.6,9.2-2.1,13.5a10.5,10.5,0,0,1-7.6,6.7,3.1,3.1,0,0,1-1.9-.1,3.2,3.2,0,0,1-1.4-1.2,12.9,12.9,0,0,1-2.9-5.4c-.3-2.1.6-4.5,2.6-5.2"/><path class="cls-5" d="M866.8,287.4a15,15,0,0,0,5.4-13.1c-.2-2.6-1.6-5.9.2-8.2s4.6-3.5,6.1-1.5,3,5.2,2.1,7.6a23,23,0,0,1-2.1,3.3,11.8,11.8,0,0,0-1.4,3.7c-1,5,.6,10.8-3.9,14.5a9,9,0,0,1-3.5,1.8c-.6.1-1.1.2-1.6-.3a7.9,7.9,0,0,1-1.4-1.8,7.1,7.1,0,0,1-1.6-4c0-1,.4-2.4,1.5-2.8s1-3.7-.8-2.9a6.1,6.1,0,0,0-3.6,7,11.7,11.7,0,0,0,2,4.4c1,1.3,2,3,3.6,3.4s6.2-1.3,8.1-3.2a13,13,0,0,0,3.7-8.6c.2-3.3-.2-6.9,1.6-9.9a16.3,16.3,0,0,0,2.2-3.8,7.5,7.5,0,0,0-.1-5.3c-1-2.8-2.6-6.7-6-6.9s-6.1,1.7-7.7,4.1-.1,7.5-.3,11.2a12.4,12.4,0,0,1-4.7,9.2c-1.5,1.2.7,3.3,2.2,2.1Z"/><path class="cls-5" d="M856.2,303.6a31,31,0,0,0,1.7-7.3,10.7,10.7,0,0,0-1.8-7.2,3.2,3.2,0,0,0-1.4-1.2,3.7,3.7,0,0,0-1.8-.4,20.2,20.2,0,0,0-6.9.9c-1.2.4-2.6.9-3.8.4s-2.3-2.2-3.7-2-1.8,1.3-2.2,2.4a13.7,13.7,0,0,0-.9,4.9c.3,3.5,3.5,6.2,7,7l3.7.4a55.2,55.2,0,0,1,9.9,1.6"/><path class="cls-5" d="M857.7,304c1.5-4.7,2.9-10.1.3-14.8a8.4,8.4,0,0,0-2.2-2.4,6.9,6.9,0,0,0-3.7-.8,27.5,27.5,0,0,0-7.6,1.3,2.6,2.6,0,0,1-2.9-.6,4.7,4.7,0,0,0-2.7-1.4c-2.4-.2-3.5,2-4.1,3.9s-1.3,4.8-.4,7.1a9.5,9.5,0,0,0,3.9,4.7c2.4,1.5,5.1,1.8,7.8,2a51,51,0,0,1,9.5,1.6,1.5,1.5,0,0,0,.8-2.9c-2.3-.6-4.5-1-6.9-1.4s-4.4-.2-6.5-.6-6.5-3.3-6.1-6.9a11.7,11.7,0,0,1,.9-3.2c.1-.4.4-1.3,1-1.3s1.2.9,1.5,1.1a4.4,4.4,0,0,0,2.4,1.1c2.1.2,4.2-.9,6.3-1.3s4.6-.8,5.8.7c3.1,3.7,1.3,9.3,0,13.3-.6,1.9,2.3,2.7,2.9.8Z"/><path class="cls-5" d="M887.2,279.1a18.5,18.5,0,0,0,1.4-18.1,12.8,12.8,0,0,1-1.1-2.7c-.3-2.7,2.2-4.9,4.6-6.3a5,5,0,0,1,2.6-.8c1.9.1,2.9,2.1,3.7,3.8a14.2,14.2,0,0,1,1.6,6.1,9.6,9.6,0,0,0,0,1.7c.6,2.1,3.7,2.1,5.4,3.6s1.2,5-.6,6.9-4.2,2.9-6.3,4.4-2.5,2.3-3.9,3.3a5.4,5.4,0,0,1-3.4,1.2,2.3,2.3,0,0,1-2.1-2.5"/><path class="cls-5" d="M888.5,279.9a20.2,20.2,0,0,0,3-14.4,14.3,14.3,0,0,0-.9-3.4c-.4-1.3-1.3-2.5-1.5-3.8s2-4,3.8-5,1.8-.9,2.7-.1a9.2,9.2,0,0,1,1.6,2.7,21.3,21.3,0,0,1,1.3,4.3c.1,1.2-.3,2.5.4,3.7s2.8,2.2,4.5,3,2,3.1.7,4.8-4.6,3.3-6.7,5l-3.6,3a5.2,5.2,0,0,1-1.8,1c-.3,0-1.5.1-1.5-.6a1.5,1.5,0,0,0-2.8-.8c-.5,3.5,3,5.2,5.9,4a13.7,13.7,0,0,0,3.7-2.6,29.8,29.8,0,0,1,4-3c2.6-1.6,5.2-3.2,6.3-6.2s.3-5.5-2.2-6.9c-.9-.6-2-.8-3-1.4s-.8-2.1-1-3.5A16.8,16.8,0,0,0,900,255a14.5,14.5,0,0,0-2.2-3.8c-2.3-2.4-5.3-1.4-7.7.3s-4.3,3.9-4.1,6.8,1.3,3.3,1.9,5a17,17,0,0,1,.9,5,17.3,17.3,0,0,1-2.9,10.1c-1,1.6,1.6,3.1,2.6,1.5Z"/><path class="cls-5" d="M785,334c-.4,2.4-.8,4.9-.1,7.3s2.9,4.4,5.3,4.1,5.2-3.9,8.2-3.3,2.8,1.8,4.4,1.8,2.5-1.1,3.3-2.3a13.9,13.9,0,0,0,1.3-11.9c-.8-2.3-2.8-4.5-5.1-3.9s-3.2,2.3-4.6,1.5-1-1.9-1.5-2.9-3.4-2.2-5.2-1.4a9.6,9.6,0,0,0-4,4.2,33.1,33.1,0,0,0-2.9,6.7"/><path class="cls-5" d="M783.5,333.6c-.5,3.3-1.1,7,.8,10s4.4,4,7.2,3.1a13.2,13.2,0,0,0,3.3-1.8c.9-.6,2-1.5,3.2-1.4s2.2,1.3,3.4,1.7a4.4,4.4,0,0,0,4.3-.9c2.4-2,3.5-5.4,3.8-8.3a12.8,12.8,0,0,0-1.6-8.6c-1.6-2.6-4.3-4-7.2-2.6l-1.7,1c-.5.2-.5.3-.8-.2a11.5,11.5,0,0,1-.6-1.7,3.4,3.4,0,0,0-1.3-1.6c-2.6-2.1-6.3-1.1-8.4,1.2s-4.1,6.5-5.2,10c-.6,1.9,2.3,2.7,2.9.8a27.1,27.1,0,0,1,3.6-7.7c1.1-1.5,3.2-3.4,5.1-2.1s.9,1.6,1.2,2.4a3.3,3.3,0,0,0,2.7,2.1,4.2,4.2,0,0,0,2.6-.8c.9-.4,1.8-1.3,2.9-.9s2.8,4,2.9,6a12.9,12.9,0,0,1-1.6,7.2c-.5.8-1.3,2.1-2.5,1.9s-1.9-1-2.8-1.4-4.1-.3-5.9.9-4,3-6.1,1.1-1.7-5.8-1.3-8.6-2.6-2.7-2.9-.8Z"/><path class="cls-5" d="M802.5,317.7a5.3,5.3,0,0,1,6.5-1.6,26,26,0,0,1,3.3,2.5c3,2.3,7.8,2.3,10.2-.5s2-4.6,2.1-7.1,0-5.6-2.1-7.1a8.4,8.4,0,0,0-3.8-1.1,29.1,29.1,0,0,0-7.8-.2c-3.3.4-6.3,2.1-9.1,4a5.8,5.8,0,0,0-1.2,1,7.2,7.2,0,0,0-.9,2,14.1,14.1,0,0,0-.7,4.5,4.3,4.3,0,0,0,2.3,3.7"/><path class="cls-5" d="M803.8,318.5a3.8,3.8,0,0,1,2.6-1.4,4.4,4.4,0,0,1,3.4,1.4c1.9,1.6,3.7,2.9,6.3,3.2a8.4,8.4,0,0,0,6.5-1.7,9.4,9.4,0,0,0,3.3-6.6,16.8,16.8,0,0,0-.3-7.4,6.5,6.5,0,0,0-5.3-4.5,29.7,29.7,0,0,0-9.4-.4,19.5,19.5,0,0,0-8,3c-1.3.8-3,1.7-3.8,3a16.6,16.6,0,0,0-1.4,4.3c-.5,2.9,0,6.3,2.9,7.7s3.2-1.8,1.5-2.6-1.6-4.1-1-6a3.9,3.9,0,0,1,1.5-2.6,20.5,20.5,0,0,1,3.1-2,16.2,16.2,0,0,1,7.2-2,17,17,0,0,1,3.9.2,18.5,18.5,0,0,1,3.9.6c2,.7,2.4,2.8,2.4,4.7a15.2,15.2,0,0,1-.8,6.3c-1.6,3.7-6.4,3.9-9.3,1.6s-3.5-3.2-6.2-3.2a6.8,6.8,0,0,0-5.6,2.9c-1.2,1.5,1.4,3,2.6,1.5Z"/><path class="cls-5" d="M811.2,349a14.1,14.1,0,0,0,5-12.2c-.3-2.5-1.3-5.2-.3-7.6a7.4,7.4,0,0,1,4.3-3.8c1.3-.5,2.8-.8,3.9-.1a6.5,6.5,0,0,1,1.8,2.2c1.2,2.3,2.4,4.8,1.7,7.3s-1.8,3-2.6,4.6c-2.2,4-.7,9.2-2.2,13.5a10.1,10.1,0,0,1-7.6,6.7,3.1,3.1,0,0,1-1.9-.1,3.7,3.7,0,0,1-1.3-1.2,11.9,11.9,0,0,1-2.9-5.4c-.3-2.1.6-4.5,2.5-5.2"/><path class="cls-5" d="M812.2,350a15.1,15.1,0,0,0,5.5-13.2c-.3-2.5-1.7-5.8.2-8.1s4.6-3.5,6-1.5,3,5.2,2.1,7.6a36.2,36.2,0,0,1-2,3.3,9.8,9.8,0,0,0-1.4,3.7c-1,5,.5,10.8-3.9,14.5a9,9,0,0,1-3.5,1.8c-.7.1-1.1.2-1.7-.3s-.9-1.2-1.4-1.8a7.1,7.1,0,0,1-1.6-4,3.1,3.1,0,0,1,1.5-2.8c1.8-.8,1-3.7-.8-2.9a6.1,6.1,0,0,0-3.6,7,10.6,10.6,0,0,0,2.1,4.4c.9,1.3,1.9,3,3.6,3.4s6.2-1.3,8.1-3.2a13.4,13.4,0,0,0,3.6-8.6c.3-3.3-.2-6.9,1.7-9.9a28.8,28.8,0,0,0,2.2-3.8,8,8,0,0,0-.2-5.3c-.9-2.8-2.5-6.7-5.9-6.9a9.1,9.1,0,0,0-7.7,4.1c-2.3,3.5-.2,7.5-.3,11.2a12.8,12.8,0,0,1-4.7,9.2c-1.5,1.2.6,3.3,2.1,2.1Z"/><path class="cls-5" d="M801.7,366.2a36.8,36.8,0,0,0,1.7-7.3,10.8,10.8,0,0,0-1.9-7.2,3,3,0,0,0-1.3-1.2,4.1,4.1,0,0,0-1.9-.4,19.6,19.6,0,0,0-6.8.9c-1.3.4-2.7.9-3.9.4s-2.2-2.2-3.7-2-1.7,1.3-2.1,2.4a10.4,10.4,0,0,0-.9,4.9c.3,3.5,3.5,6.2,6.9,7l3.8.4a54.1,54.1,0,0,1,9.8,1.6"/><path class="cls-5" d="M803.1,366.6c1.5-4.7,2.9-10.1.3-14.8a6.9,6.9,0,0,0-2.1-2.4,7.1,7.1,0,0,0-3.8-.8,28.8,28.8,0,0,0-7.6,1.3,2.5,2.5,0,0,1-2.8-.6,4.4,4.4,0,0,0-2.8-1.4c-2.3-.2-3.4,2-4.1,3.9a10.9,10.9,0,0,0-.4,7.1,9.7,9.7,0,0,0,4,4.7c2.4,1.5,5,1.8,7.8,2a49.9,49.9,0,0,1,9.4,1.6,1.5,1.5,0,0,0,.8-2.9c-2.2-.6-4.5-1-6.8-1.4s-4.4-.2-6.6-.6-6.4-3.3-6-6.9a11.6,11.6,0,0,1,.8-3.2c.2-.4.5-1.3,1-1.3s1.2.8,1.5,1.1a4.4,4.4,0,0,0,2.5,1.1c2.1.2,4.2-.9,6.3-1.3s4.6-.8,5.8.7c3,3.7,1.2,9.3-.1,13.3a1.5,1.5,0,0,0,2.9.8Z"/><path class="cls-5" d="M832.7,341.7a18.5,18.5,0,0,0,1.3-18.1,8.8,8.8,0,0,1-1-2.7c-.4-2.7,2.2-4.9,4.5-6.3a5.3,5.3,0,0,1,2.7-.8c1.8.1,2.9,2.1,3.6,3.8a12.9,12.9,0,0,1,1.6,6.1,5,5,0,0,0,.1,1.7c.5,2.1,3.7,2.1,5.3,3.6s1.2,5-.5,6.9-4.3,2.9-6.4,4.4-2.5,2.3-3.9,3.3a5,5,0,0,1-3.3,1.2,2.3,2.3,0,0,1-2.2-2.5"/><path class="cls-5" d="M834,342.5a20.2,20.2,0,0,0,3-14.4,21.4,21.4,0,0,0-.9-3.4,30.8,30.8,0,0,1-1.6-3.8c-.4-2.3,2.1-4,3.8-5s1.9-.9,2.7-.1a7.4,7.4,0,0,1,1.6,2.7,13.6,13.6,0,0,1,1.3,4.2c.1,1.3-.2,2.6.4,3.8s2.9,2.2,4.5,3,2,3.1.8,4.8-4.6,3.3-6.8,5-2.3,2-3.5,3a6.4,6.4,0,0,1-1.8,1c-.3,0-1.6.1-1.5-.6a1.5,1.5,0,0,0-1.1-1.8,1.4,1.4,0,0,0-1.8,1c-.5,3.5,3,5.2,5.9,4a13.7,13.7,0,0,0,3.7-2.6,37.9,37.9,0,0,1,4-3c2.6-1.6,5.3-3.2,6.3-6.2a5.5,5.5,0,0,0-2.1-6.9c-1-.6-2.1-.9-3.1-1.4s-.8-2.1-.9-3.5a21,21,0,0,0-1.4-4.7,14.5,14.5,0,0,0-2.2-3.8c-2.4-2.4-5.3-1.4-7.8.3s-4.3,3.9-4,6.8,1.3,3.3,1.8,5a16.6,16.6,0,0,1-1.9,15.1c-1.1,1.6,1.5,3.1,2.6,1.5Z"/><path class="cls-5" d="M760.7,278.5c-.4,2.4-.8,4.9-.1,7.3s2.9,4.4,5.4,4.1,5.1-3.9,8.1-3.3,2.8,1.8,4.4,1.8,2.5-1.2,3.3-2.4a13.8,13.8,0,0,0,1.3-11.9c-.8-2.2-2.8-4.5-5.1-3.8s-3.2,2.3-4.6,1.5-1-2-1.5-2.9-3.4-2.2-5.2-1.4a9.6,9.6,0,0,0-4,4.2,33.1,33.1,0,0,0-2.9,6.7"/><path class="cls-5" d="M759.2,278.1c-.5,3.3-1,7,.8,9.9a6.3,6.3,0,0,0,7.2,3.1,10.6,10.6,0,0,0,3.3-1.8,5.4,5.4,0,0,1,3.2-1.3c1.2.2,2.3,1.3,3.5,1.7a4.1,4.1,0,0,0,4.2-1c2.4-1.9,3.5-5.3,3.8-8.3a13,13,0,0,0-1.6-8.6c-1.6-2.5-4.3-3.9-7.2-2.5l-1.7,1c-.5.2-.5.3-.8-.2s-.3-1.2-.6-1.7a4.3,4.3,0,0,0-1.3-1.7c-2.6-2-6.2-1-8.4,1.2s-4.1,6.6-5.2,10.1c-.6,1.8,2.3,2.6,2.9.8a27.1,27.1,0,0,1,3.6-7.7c1.1-1.5,3.2-3.4,5.1-2.1s.9,1.6,1.2,2.4a3.5,3.5,0,0,0,2.7,2.1,5,5,0,0,0,2.6-.8c.9-.5,1.8-1.3,2.9-.9s2.8,4,2.9,6a12.9,12.9,0,0,1-1.6,7.2c-.5.8-1.3,2-2.4,1.9s-2-1.1-2.9-1.4-4-.3-5.9.9-3.9,3-6,1.1-1.8-5.8-1.4-8.6-2.5-2.7-2.9-.8Z"/><path class="cls-5" d="M778.2,262.2a5.3,5.3,0,0,1,6.5-1.6,26,26,0,0,1,3.3,2.5c3,2.3,7.8,2.3,10.2-.6s2-4.5,2.1-7,0-5.6-2.1-7.1a7.3,7.3,0,0,0-3.8-1.1,29.2,29.2,0,0,0-7.8-.3,22.7,22.7,0,0,0-9.1,4.1l-1.2,1a12.1,12.1,0,0,0-.9,2,14.1,14.1,0,0,0-.7,4.5,4.6,4.6,0,0,0,2.4,3.7"/><path class="cls-5" d="M779.5,263a3.8,3.8,0,0,1,2.6-1.4,4.4,4.4,0,0,1,3.4,1.4c1.9,1.6,3.7,2.9,6.3,3.2a8.7,8.7,0,0,0,6.6-1.7,9.7,9.7,0,0,0,3.2-6.6,18.4,18.4,0,0,0-.2-7.4A6.6,6.6,0,0,0,796,246a32.8,32.8,0,0,0-9.4-.5,21.8,21.8,0,0,0-8,3.1,12.3,12.3,0,0,0-3.8,3,16.6,16.6,0,0,0-1.4,4.3c-.5,2.9,0,6.3,2.9,7.6s3.3-1.7,1.5-2.5-1.6-4.1-1-6.1a3.5,3.5,0,0,1,1.5-2.5,21.4,21.4,0,0,1,3.2-2,14.6,14.6,0,0,1,7.1-2,17,17,0,0,1,3.9.2,17.6,17.6,0,0,1,3.9.6c2,.6,2.4,2.7,2.5,4.6a16.6,16.6,0,0,1-.9,6.3c-1.6,3.7-6.4,3.9-9.3,1.7s-3.5-3.2-6.2-3.2a7,7,0,0,0-5.6,2.9c-1.2,1.5,1.5,3,2.6,1.5Z"/><path class="cls-5" d="M786.9,293.4a13.9,13.9,0,0,0,5-12.1c-.3-2.5-1.3-5.2-.3-7.6a7,7,0,0,1,4.3-3.8,4.7,4.7,0,0,1,4-.1,5.4,5.4,0,0,1,1.7,2.2c1.2,2.3,2.4,4.8,1.7,7.3s-1.8,3-2.6,4.5c-2.2,4.1-.7,9.3-2.2,13.6a10.3,10.3,0,0,1-7.6,6.7,4.1,4.1,0,0,1-1.9-.1,3.7,3.7,0,0,1-1.3-1.2,11.7,11.7,0,0,1-2.9-5.5c-.3-2,.6-4.4,2.6-5.1"/><path class="cls-5" d="M787.9,294.5a15.1,15.1,0,0,0,5.5-13.2c-.3-2.5-1.7-5.9.2-8.1s4.6-3.5,6.1-1.5,2.9,5.2,2,7.6a17.3,17.3,0,0,1-2,3.2,10.9,10.9,0,0,0-1.4,3.8c-1,5,.6,10.8-3.9,14.5a8.8,8.8,0,0,1-3.5,1.7c-.7.2-1.1.3-1.7-.2a11.8,11.8,0,0,1-1.3-1.8,6.8,6.8,0,0,1-1.7-4,3.2,3.2,0,0,1,1.6-2.9c1.7-.7,1-3.6-.8-2.9a6.1,6.1,0,0,0-3.6,7,9.2,9.2,0,0,0,2,4.5c.9,1.3,2,2.9,3.6,3.4s6.2-1.3,8.1-3.2a12.4,12.4,0,0,0,3.6-8.6c.3-3.3-.2-6.9,1.7-9.9a20.8,20.8,0,0,0,2.2-3.8,9,9,0,0,0-.1-5.4c-1-2.7-2.6-6.7-6-6.8a9.1,9.1,0,0,0-7.7,4.1c-2.3,3.5-.2,7.4-.3,11.2a12.4,12.4,0,0,1-4.7,9.2c-1.5,1.2.6,3.3,2.1,2.1Z"/><path class="cls-5" d="M777.4,310.7a31,31,0,0,0,1.7-7.3,11.1,11.1,0,0,0-1.8-7.2,3.2,3.2,0,0,0-1.4-1.2,4.1,4.1,0,0,0-1.9-.4,19.6,19.6,0,0,0-6.8.9c-1.3.4-2.6.9-3.9.4s-2.2-2.2-3.7-2-1.7,1.3-2.1,2.4a10.2,10.2,0,0,0-.9,4.9c.3,3.5,3.5,6.2,7,6.9a22,22,0,0,0,3.7.5,56.7,56.7,0,0,1,9.9,1.6"/><path class="cls-5" d="M778.9,311.1c1.4-4.7,2.8-10.1.2-14.8a7.2,7.2,0,0,0-2.1-2.5,7,7,0,0,0-3.8-.7,28.8,28.8,0,0,0-7.6,1.3c-1.2.4-1.8.1-2.8-.7a4.6,4.6,0,0,0-2.7-1.3c-2.4-.2-3.5,2-4.2,3.9a10.2,10.2,0,0,0-.3,7.1,9.5,9.5,0,0,0,3.9,4.7c2.4,1.5,5,1.7,7.8,2a52.4,52.4,0,0,1,9.5,1.6c1.8.4,2.6-2.5.8-2.9a56.3,56.3,0,0,0-6.9-1.4c-2.2-.3-4.4-.2-6.5-.7s-6.5-3.2-6.1-6.8a11.7,11.7,0,0,1,.9-3.2c.1-.4.4-1.3.9-1.4s1.2.9,1.5,1.2a5.7,5.7,0,0,0,2.5,1.1c2.1.2,4.2-.9,6.3-1.3s4.6-.8,5.8.7c3,3.7,1.2,9.2,0,13.3-.6,1.9,2.3,2.6,2.9.8Z"/><path class="cls-5" d="M808.4,286.2a18.8,18.8,0,0,0,1.4-18.1,7.7,7.7,0,0,1-1.1-2.7c-.4-2.7,2.2-4.9,4.6-6.3a5,5,0,0,1,2.6-.8c1.8.1,2.9,2.1,3.6,3.7a13.5,13.5,0,0,1,1.6,6.1,5.5,5.5,0,0,0,.1,1.8c.5,2.1,3.7,2.1,5.3,3.6s1.2,5-.5,6.9-4.3,2.9-6.4,4.4l-3.8,3.2a5,5,0,0,1-3.4,1.3,2.2,2.2,0,0,1-2.1-2.5"/><path class="cls-5" d="M809.7,287a20.2,20.2,0,0,0,3-14.4,18.9,18.9,0,0,0-.9-3.4c-.4-1.3-1.3-2.5-1.6-3.8s2.1-4,3.8-5,1.9-.9,2.7-.1a7.4,7.4,0,0,1,1.6,2.7,12.8,12.8,0,0,1,1.3,4.2c.1,1.3-.2,2.6.4,3.8s2.9,2.2,4.5,3,2,3.1.8,4.8-4.6,3.3-6.7,5-2.4,2-3.6,3a4.4,4.4,0,0,1-1.8.9c-.3.1-1.6.1-1.5-.5a1.5,1.5,0,0,0-1-1.8c-.7-.2-1.8.2-1.9,1-.5,3.5,3,5.2,5.9,4a12.3,12.3,0,0,0,3.7-2.6,19.6,19.6,0,0,1,4.1-3c2.6-1.6,5.2-3.2,6.3-6.2a5.6,5.6,0,0,0-2.2-6.9c-1-.6-2.1-.9-3.1-1.4s-.8-2.1-.9-3.5a19.5,19.5,0,0,0-1.4-4.7,14.5,14.5,0,0,0-2.2-3.8c-2.4-2.4-5.3-1.4-7.7.3s-4.4,3.9-4.1,6.8,1.3,3.3,1.9,4.9a22.8,22.8,0,0,1,.9,5.1,17.3,17.3,0,0,1-2.9,10.1c-1.1,1.6,1.5,3.1,2.6,1.5Z"/><path class="cls-5" d="M711.8,338.2a15.9,15.9,0,0,0,0,7.2c.7,2.4,2.9,4.4,5.3,4.2s5.2-4,8.1-3.4,2.8,1.9,4.4,1.9,2.6-1.2,3.3-2.4a13.9,13.9,0,0,0,1.3-11.9c-.7-2.2-2.8-4.5-5-3.9s-3.2,2.4-4.7,1.5-1-1.9-1.5-2.9-3.3-2.1-5.1-1.3a9.6,9.6,0,0,0-4,4.2,33.1,33.1,0,0,0-2.9,6.7"/><path class="cls-5" d="M710.4,337.8c-.5,3.3-1.1,6.9.8,9.9s4.3,4,7.2,3.1a15.2,15.2,0,0,0,3.3-1.8c.9-.6,2-1.5,3.1-1.3s2.3,1.3,3.5,1.7a4.8,4.8,0,0,0,4.3-1c2.3-1.9,3.5-5.4,3.8-8.3a13.6,13.6,0,0,0-1.6-8.6c-1.6-2.6-4.4-4-7.2-2.5l-1.7,1c-.5.2-.6.2-.8-.2a11.5,11.5,0,0,1-.6-1.7,5.5,5.5,0,0,0-1.3-1.7c-2.7-2.1-6.3-1-8.4,1.2s-4.2,6.6-5.3,10.1c-.6,1.8,2.3,2.6,2.9.8a29.3,29.3,0,0,1,3.7-7.8c1-1.5,3.2-3.3,5.1-2s.8,1.6,1.2,2.3a3.1,3.1,0,0,0,2.6,2.1,4.2,4.2,0,0,0,2.7-.7c.8-.5,1.8-1.4,2.9-.9s2.8,4,2.9,6a12.5,12.5,0,0,1-1.7,7.1c-.5.9-1.3,2.1-2.4,2s-1.9-1.1-2.8-1.5-4.1-.2-5.9,1-4,3-6.1,1.1-1.8-5.8-1.3-8.6-2.6-2.7-2.9-.8Z"/><path class="cls-5" d="M729.4,321.9a5.4,5.4,0,0,1,6.5-1.7,40.3,40.3,0,0,1,3.2,2.6c3.1,2.3,7.9,2.3,10.3-.6s1.9-4.6,2.1-7.1-.1-5.5-2.1-7a7.3,7.3,0,0,0-3.8-1.1,25.6,25.6,0,0,0-7.8-.3,21.9,21.9,0,0,0-9.1,4,4,4,0,0,0-1.2,1,5.6,5.6,0,0,0-.9,2.1,13.3,13.3,0,0,0-.7,4.5,4.1,4.1,0,0,0,2.3,3.6"/><path class="cls-5" d="M730.7,322.7a3.4,3.4,0,0,1,2.6-1.4,4.1,4.1,0,0,1,3.3,1.3,12,12,0,0,0,6.4,3.3,9.3,9.3,0,0,0,6.5-1.7c2.1-1.7,2.9-4.2,3.3-6.7a16.8,16.8,0,0,0-.3-7.4,6.4,6.4,0,0,0-5.3-4.4,29.8,29.8,0,0,0-9.4-.5,22.1,22.1,0,0,0-8,3c-1.4.8-3,1.7-3.8,3.1a12.8,12.8,0,0,0-1.4,4.3c-.5,2.9,0,6.2,2.9,7.6s3.2-1.7,1.5-2.6-1.6-4-1.1-6a4.3,4.3,0,0,1,1.5-2.6,33.7,33.7,0,0,1,3.2-1.9,16.2,16.2,0,0,1,7.1-2.1l3.9.2a24.4,24.4,0,0,1,3.9.6c2.1.7,2.5,2.8,2.5,4.7a14.9,14.9,0,0,1-.9,6.3c-1.5,3.7-6.3,3.9-9.2,1.7s-3.6-3.3-6.3-3.2a7,7,0,0,0-5.5,2.8c-1.2,1.6,1.4,3.1,2.6,1.6Z"/><path class="cls-5" d="M738,353.1a13.8,13.8,0,0,0,5.1-12.1c-.3-2.6-1.3-5.2-.4-7.6a7.7,7.7,0,0,1,4.4-3.9,4.1,4.1,0,0,1,3.9,0,4.7,4.7,0,0,1,1.7,2.2c1.2,2.2,2.5,4.8,1.7,7.3s-1.8,3-2.6,4.5c-2.1,4.1-.6,9.2-2.1,13.6a10.6,10.6,0,0,1-7.6,6.6,3.1,3.1,0,0,1-1.9,0,3.8,3.8,0,0,1-1.3-1.2c-1.3-1.7-2.6-3.4-2.9-5.5s.5-4.5,2.5-5.1"/><path class="cls-5" d="M739.1,354.2a15.5,15.5,0,0,0,5.5-13.2c-.3-2.5-1.7-5.9.1-8.1s4.7-3.5,6.1-1.6,3,5.3,2.1,7.6a23,23,0,0,1-2.1,3.3,12.8,12.8,0,0,0-1.4,3.7c-.9,5.1.6,10.9-3.8,14.6a10.3,10.3,0,0,1-3.5,1.7,1.7,1.7,0,0,1-1.7-.2,12.4,12.4,0,0,1-1.4-1.8,7.4,7.4,0,0,1-1.6-4c0-1.1.4-2.5,1.5-2.9s1-3.6-.8-2.9a6.2,6.2,0,0,0-3.6,7,13,13,0,0,0,2,4.5c1,1.3,2,2.9,3.7,3.3s6.1-1.3,8-3.1a13,13,0,0,0,3.7-8.6c.3-3.4-.2-6.9,1.6-9.9a19,19,0,0,0,2.3-3.9,8,8,0,0,0-.2-5.3c-.9-2.8-2.5-6.7-6-6.9a10,10,0,0,0-7.7,4.1c-2.3,3.6-.1,7.5-.3,11.3a12.7,12.7,0,0,1-4.6,9.2c-1.5,1.2.6,3.3,2.1,2.1Z"/><path class="cls-5" d="M728.6,370.4a31.6,31.6,0,0,0,1.6-7.4,10.4,10.4,0,0,0-1.8-7.1,5.3,5.3,0,0,0-1.3-1.3,4.2,4.2,0,0,0-1.9-.3,19.6,19.6,0,0,0-6.8.9c-1.3.4-2.7.9-3.9.4s-2.3-2.2-3.7-2.1-1.8,1.4-2.1,2.5a11.5,11.5,0,0,0-1,4.8c.3,3.5,3.6,6.3,7,7a23.3,23.3,0,0,0,3.7.4,53.9,53.9,0,0,1,9.9,1.7"/><path class="cls-5" d="M730,370.8c1.5-4.8,2.9-10.2.3-14.8a6.5,6.5,0,0,0-2.2-2.5,6.7,6.7,0,0,0-3.7-.8,27.6,27.6,0,0,0-7.6,1.4,2.6,2.6,0,0,1-2.8-.7,5,5,0,0,0-2.8-1.4c-2.3-.1-3.5,2-4.1,3.9s-1.3,4.8-.4,7.2a10.7,10.7,0,0,0,4,4.7c2.3,1.5,5,1.7,7.7,1.9a60.8,60.8,0,0,1,9.5,1.6,1.5,1.5,0,0,0,.8-2.9c-2.2-.5-4.5-1-6.8-1.3s-4.4-.3-6.6-.7-6.4-3.2-6.1-6.8a11.7,11.7,0,0,1,.9-3.2c.2-.5.4-1.4,1-1.4s1.2.9,1.5,1.1a5.5,5.5,0,0,0,2.4,1.2c2.2.2,4.3-1,6.3-1.3s4.6-.9,5.8.6c3.1,3.8,1.3,9.3,0,13.4-.6,1.8,2.3,2.6,2.9.8Z"/><path class="cls-5" d="M759.5,345.9a18.6,18.6,0,0,0,1.4-18.1,9.4,9.4,0,0,1-1-2.8c-.4-2.7,2.1-4.8,4.5-6.2a4.3,4.3,0,0,1,2.7-.8c1.8.1,2.9,2,3.6,3.7s1.7,4,1.6,6.1a9.6,9.6,0,0,0,0,1.7c.6,2.2,3.7,2.2,5.4,3.7s1.2,5-.6,6.9-4.2,2.8-6.3,4.4-2.5,2.2-3.9,3.2a4.8,4.8,0,0,1-3.4,1.3c-1.2-.2-2.4-1.3-2.1-2.5"/><path class="cls-5" d="M760.8,346.7a20.9,20.9,0,0,0,3.1-14.4,22.5,22.5,0,0,0-.9-3.5c-.5-1.2-1.4-2.4-1.6-3.7s2.1-4,3.8-5,1.8-1,2.7-.1a9.2,9.2,0,0,1,1.6,2.7,18.7,18.7,0,0,1,1.3,4.2c.1,1.3-.2,2.6.4,3.8s2.8,2.2,4.5,3,2,3.1.8,4.8-4.6,3.3-6.8,4.9-2.3,2.1-3.5,3a5,5,0,0,1-1.9,1c-.2.1-1.5.1-1.4-.5a1.6,1.6,0,0,0-1.1-1.9,1.5,1.5,0,0,0-1.8,1.1c-.5,3.4,3,5.1,5.9,3.9a11.8,11.8,0,0,0,3.7-2.6,37.9,37.9,0,0,1,4-3c2.6-1.5,5.2-3.1,6.3-6.1a5.6,5.6,0,0,0-2.2-7c-.9-.5-2-.8-3-1.3s-.8-2.2-1-3.5a15,15,0,0,0-1.4-4.7,9.1,9.1,0,0,0-2.2-3.8c-2.3-2.5-5.3-1.4-7.7.3s-4.3,3.8-4,6.7,1.2,3.3,1.8,5a14.3,14.3,0,0,1,.9,5,17.3,17.3,0,0,1-2.9,10.1,1.5,1.5,0,0,0,2.6,1.6Z"/><path class="cls-5" d="M679.9,286c-.4,2.4-.8,4.9-.1,7.2s2.9,4.4,5.4,4.1,5.2-3.9,8.1-3.3,2.8,1.9,4.4,1.9,2.5-1.2,3.3-2.4a13.9,13.9,0,0,0,1.3-11.9c-.8-2.2-2.8-4.5-5.1-3.9s-3.2,2.4-4.6,1.5-1-1.9-1.5-2.9-3.4-2.1-5.2-1.3a8.8,8.8,0,0,0-3.9,4.2,31.1,31.1,0,0,0-3,6.7"/><path class="cls-5" d="M678.5,285.6c-.6,3.2-1.1,6.9.7,9.9s4.4,4,7.2,3.1a13.2,13.2,0,0,0,3.3-1.8c.9-.6,2-1.5,3.2-1.3s2.3,1.3,3.5,1.7a4.6,4.6,0,0,0,4.2-1c2.4-2,3.5-5.4,3.9-8.3a13.6,13.6,0,0,0-1.7-8.6c-1.6-2.6-4.3-4-7.2-2.5l-1.7,1c-.5.2-.5.2-.8-.2s-.3-1.2-.6-1.8a4,4,0,0,0-1.3-1.6c-2.6-2.1-6.2-1-8.4,1.2s-4.1,6.6-5.2,10.1c-.6,1.8,2.3,2.6,2.9.8a29,29,0,0,1,3.6-7.8c1.1-1.5,3.2-3.3,5.1-2s.9,1.5,1.2,2.3a3.3,3.3,0,0,0,2.7,2.1,4.8,4.8,0,0,0,2.6-.7c.9-.5,1.9-1.4,2.9-.9s2.8,4,2.9,6a11.7,11.7,0,0,1-1.6,7.1c-.5.9-1.3,2.1-2.4,2s-1.9-1.1-2.9-1.5-4-.2-5.9,1-3.9,3-6,1.1-1.8-5.8-1.4-8.6-2.5-2.7-2.8-.8Z"/><path class="cls-5" d="M697.4,269.7a5.4,5.4,0,0,1,6.5-1.7,29.1,29.1,0,0,1,3.3,2.6c3,2.3,7.8,2.3,10.3-.6s1.9-4.6,2-7.1,0-5.5-2.1-7a7,7,0,0,0-3.8-1.1,25.6,25.6,0,0,0-7.8-.3,22.5,22.5,0,0,0-9.1,4l-1.2,1a7.6,7.6,0,0,0-.8,2.1,11.2,11.2,0,0,0-.8,4.5,4.4,4.4,0,0,0,2.4,3.6"/><path class="cls-5" d="M698.7,270.4a3.9,3.9,0,0,1,2.7-1.3,4.2,4.2,0,0,1,3.3,1.3,11.2,11.2,0,0,0,6.3,3.2,9.1,9.1,0,0,0,6.6-1.6,10.1,10.1,0,0,0,3.2-6.7,18.4,18.4,0,0,0-.2-7.4,6.5,6.5,0,0,0-5.4-4.4,29.6,29.6,0,0,0-9.4-.5,21.6,21.6,0,0,0-8,3,11.3,11.3,0,0,0-3.8,3.1,15.5,15.5,0,0,0-1.4,4.3c-.5,2.8,0,6.2,2.9,7.6s3.3-1.7,1.5-2.6-1.6-4-1-6a3.9,3.9,0,0,1,1.5-2.6,20.7,20.7,0,0,1,3.2-1.9,16.2,16.2,0,0,1,7.1-2.1l3.9.2a24.4,24.4,0,0,1,3.9.6c2,.7,2.4,2.8,2.5,4.7a16.6,16.6,0,0,1-.9,6.3c-1.6,3.7-6.4,3.9-9.3,1.7s-3.5-3.3-6.2-3.3a7.6,7.6,0,0,0-5.6,2.9c-1.1,1.6,1.5,3.1,2.6,1.5Z"/><path class="cls-5" d="M706.1,300.9a13.7,13.7,0,0,0,5-12.1c-.3-2.6-1.3-5.2-.3-7.6s2.5-3.1,4.3-3.9a4.3,4.3,0,0,1,4,0,5.1,5.1,0,0,1,1.7,2.1c1.2,2.3,2.4,4.9,1.7,7.3s-1.8,3-2.6,4.6c-2.2,4.1-.6,9.2-2.1,13.6a10.6,10.6,0,0,1-7.6,6.6,3.1,3.1,0,0,1-1.9,0,5.5,5.5,0,0,1-1.4-1.2c-1.3-1.7-2.6-3.4-2.9-5.5s.6-4.5,2.6-5.1"/><path class="cls-5" d="M707.1,302a15.3,15.3,0,0,0,5.5-13.2c-.2-2.6-1.7-5.9.2-8.1s4.6-3.5,6.1-1.6,2.9,5.3,2,7.6a22.3,22.3,0,0,1-2,3.3,10.5,10.5,0,0,0-1.4,3.7c-1,5,.6,10.9-3.9,14.5a7.8,7.8,0,0,1-3.5,1.8,1.5,1.5,0,0,1-1.6-.2,7.9,7.9,0,0,1-1.4-1.8,8.4,8.4,0,0,1-1.7-4,3.1,3.1,0,0,1,1.6-2.9c1.7-.7,1-3.6-.8-2.9a6.1,6.1,0,0,0-3.6,7,11.3,11.3,0,0,0,2,4.5c.9,1.3,2,2.9,3.6,3.3s6.2-1.3,8.1-3.1a12.6,12.6,0,0,0,3.6-8.6c.3-3.4-.2-7,1.7-9.9a18.7,18.7,0,0,0,2.2-3.9,8.7,8.7,0,0,0-.1-5.3c-1-2.8-2.6-6.7-6-6.9a9.8,9.8,0,0,0-7.7,4.1c-2.3,3.6-.2,7.5-.3,11.3a12.1,12.1,0,0,1-4.7,9.1c-1.5,1.3.7,3.4,2.1,2.2Z"/><path class="cls-5" d="M696.6,318.2a31.8,31.8,0,0,0,1.7-7.4,10.4,10.4,0,0,0-1.8-7.1,4.4,4.4,0,0,0-1.4-1.3,5.8,5.8,0,0,0-1.9-.4,22.4,22.4,0,0,0-6.8,1c-1.3.4-2.6.9-3.9.4s-2.2-2.2-3.6-2.1-1.8,1.4-2.2,2.4a10.7,10.7,0,0,0-.9,4.9c.3,3.5,3.5,6.3,7,7a22.1,22.1,0,0,0,3.7.4,57,57,0,0,1,9.9,1.7"/><path class="cls-5" d="M698.1,318.6c1.4-4.8,2.9-10.2.3-14.8a8.8,8.8,0,0,0-2.2-2.5,7.1,7.1,0,0,0-3.8-.8,27.6,27.6,0,0,0-7.5,1.4,2.8,2.8,0,0,1-2.9-.7,4.7,4.7,0,0,0-2.7-1.4c-2.4-.1-3.5,2-4.2,3.9a9.3,9.3,0,0,0,3.6,11.9c2.4,1.5,5.1,1.7,7.8,1.9a60.8,60.8,0,0,1,9.5,1.6c1.8.5,2.6-2.4.8-2.9s-4.6-1-6.9-1.3-4.4-.3-6.5-.7-6.5-3.2-6.1-6.8a13.5,13.5,0,0,1,.9-3.3c.1-.4.4-1.3.9-1.3s1.2.9,1.5,1.1a4.7,4.7,0,0,0,2.5,1.1c2.1.3,4.2-.9,6.3-1.2s4.6-.9,5.8.6c3,3.8,1.2,9.3,0,13.4-.6,1.8,2.3,2.6,2.9.8Z"/><path class="cls-5" d="M727.6,293.7a18.8,18.8,0,0,0,1.4-18.1,7.5,7.5,0,0,1-1.1-2.8c-.3-2.7,2.2-4.9,4.6-6.2a4.2,4.2,0,0,1,2.6-.8c1.8.1,2.9,2,3.6,3.7a15.1,15.1,0,0,1,1.7,6.1,4.8,4.8,0,0,0,0,1.7c.6,2.2,3.7,2.2,5.4,3.6s1.2,5.1-.6,7-4.3,2.8-6.3,4.4-2.6,2.2-3.9,3.2a5,5,0,0,1-3.4,1.3c-1.3-.2-2.4-1.3-2.1-2.5"/><path class="cls-5" d="M728.9,294.4a20,20,0,0,0,3-14.3,22.5,22.5,0,0,0-.9-3.5c-.4-1.2-1.3-2.4-1.6-3.8s2.1-3.9,3.8-4.9,1.9-1,2.8-.1a7.9,7.9,0,0,1,1.5,2.7,12.1,12.1,0,0,1,1.3,4.2c.2,1.3-.2,2.6.4,3.8s2.9,2.2,4.5,2.9,2,3.2.8,4.9-4.6,3.3-6.7,4.9-2.3,2.1-3.6,3a4,4,0,0,1-1.8,1c-.3.1-1.6.1-1.5-.5a1.7,1.7,0,0,0-1-1.9,1.6,1.6,0,0,0-1.9,1.1c-.5,3.4,3,5.1,6,3.9a15.5,15.5,0,0,0,3.7-2.6,24.6,24.6,0,0,1,4-3c2.6-1.5,5.2-3.1,6.3-6.1a5.8,5.8,0,0,0-2.2-7c-1-.5-2.1-.8-3-1.3s-.9-2.2-1-3.5a18.3,18.3,0,0,0-1.4-4.7,13.6,13.6,0,0,0-2.2-3.9c-2.4-2.4-5.3-1.3-7.7.4s-4.4,3.8-4.1,6.7,1.3,3.3,1.9,5a21,21,0,0,1,.9,5,17.3,17.3,0,0,1-2.9,10.1c-1.1,1.6,1.5,3.2,2.6,1.5Z"/><path class="cls-5" d="M633.5,346.2c-.4,2.4-.8,4.9-.1,7.2s2.9,4.4,5.3,4.1,5.2-3.9,8.1-3.3,2.8,1.9,4.4,1.9,2.6-1.2,3.3-2.4a14.2,14.2,0,0,0,1.4-11.9c-.8-2.2-2.9-4.5-5.1-3.9s-3.2,2.4-4.7,1.5-.9-1.9-1.5-2.9-3.3-2.1-5.1-1.3a9.6,9.6,0,0,0-4,4.2,30.8,30.8,0,0,0-2.9,6.7"/><path class="cls-5" d="M632,345.8c-.5,3.2-1.1,6.9.8,9.9s4.3,4,7.2,3.1a15.2,15.2,0,0,0,3.3-1.8c.9-.6,2-1.5,3.1-1.3s2.3,1.3,3.5,1.7a4.7,4.7,0,0,0,4.3-1c2.3-2,3.5-5.4,3.8-8.3a13.5,13.5,0,0,0-1.6-8.6c-1.6-2.6-4.4-4-7.2-2.5a14,14,0,0,1-1.7.9c-.5.3-.5.3-.8-.1a9.5,9.5,0,0,1-.6-1.8,5.1,5.1,0,0,0-1.3-1.6c-2.7-2.1-6.3-1-8.4,1.2s-4.1,6.6-5.3,10.1c-.6,1.8,2.3,2.6,2.9.8a27.9,27.9,0,0,1,3.7-7.8c1-1.5,3.2-3.3,5.1-2.1s.8,1.6,1.2,2.4a3.3,3.3,0,0,0,2.7,2.1,4.8,4.8,0,0,0,2.6-.7c.9-.5,1.8-1.4,2.9-.9s2.8,4,2.9,6a11.7,11.7,0,0,1-1.7,7.1c-.5.9-1.3,2.1-2.4,1.9s-1.9-1-2.8-1.4-4.1-.2-5.9,1-4,3-6.1,1.1-1.8-5.8-1.3-8.6-2.6-2.7-2.9-.8Z"/><path class="cls-5" d="M651,329.9a5.3,5.3,0,0,1,6.5-1.7,37.5,37.5,0,0,1,3.3,2.6c3,2.3,7.8,2.3,10.2-.6s2-4.6,2.1-7.1,0-5.5-2.1-7a8.5,8.5,0,0,0-3.8-1.2,29.1,29.1,0,0,0-7.8-.2,21.9,21.9,0,0,0-9.1,4,5.8,5.8,0,0,0-1.2,1,5,5,0,0,0-.9,2.1,13.3,13.3,0,0,0-.7,4.5,4.1,4.1,0,0,0,2.3,3.6"/><path class="cls-5" d="M652.3,330.6a3.8,3.8,0,0,1,2.6-1.4,4.9,4.9,0,0,1,3.4,1.4,10.9,10.9,0,0,0,6.3,3.2,8.8,8.8,0,0,0,6.5-1.6c2.1-1.7,2.9-4.2,3.3-6.7a16.8,16.8,0,0,0-.3-7.4,6.2,6.2,0,0,0-5.3-4.4,29.8,29.8,0,0,0-9.4-.5,20.4,20.4,0,0,0-8,3c-1.4.8-3,1.7-3.8,3.1a12.8,12.8,0,0,0-1.4,4.3c-.5,2.8,0,6.2,2.9,7.6s3.2-1.7,1.5-2.6-1.6-4-1.1-6A4.3,4.3,0,0,1,651,320a20.7,20.7,0,0,1,3.2-1.9,16.2,16.2,0,0,1,7.1-2.1l3.9.2a16.7,16.7,0,0,1,3.9.6c2.1.7,2.5,2.8,2.5,4.7a13.4,13.4,0,0,1-.9,6.3c-1.5,3.7-6.3,3.9-9.2,1.7s-3.6-3.3-6.3-3.3a7.1,7.1,0,0,0-5.5,2.9c-1.2,1.6,1.4,3.1,2.6,1.5Z"/><path class="cls-5" d="M659.6,361.1a13.8,13.8,0,0,0,5.1-12.1c-.3-2.6-1.3-5.2-.4-7.6a7.7,7.7,0,0,1,4.4-3.9c1.2-.5,2.8-.8,3.9-.1a5.2,5.2,0,0,1,1.7,2.2c1.2,2.3,2.5,4.9,1.8,7.3s-1.8,3-2.7,4.6c-2.1,4.1-.6,9.2-2.1,13.6a10.2,10.2,0,0,1-7.6,6.6,4.1,4.1,0,0,1-1.9,0,5,5,0,0,1-1.3-1.2c-1.3-1.7-2.6-3.4-2.9-5.5s.6-4.5,2.5-5.2"/><path class="cls-5" d="M660.7,362.2a15.6,15.6,0,0,0,5.5-13.2c-.3-2.6-1.7-5.9.2-8.1s4.6-3.6,6-1.6,3,5.2,2.1,7.6a23,23,0,0,1-2.1,3.3,16.6,16.6,0,0,0-1.4,3.7c-.9,5,.6,10.9-3.8,14.5a8.4,8.4,0,0,1-3.5,1.8c-.7.1-1.2.2-1.7-.3a7.9,7.9,0,0,1-1.4-1.7,7.4,7.4,0,0,1-1.6-4c0-1.1.4-2.5,1.5-2.9s1-3.6-.8-2.9a6.2,6.2,0,0,0-3.6,7,11.6,11.6,0,0,0,2.1,4.5c.9,1.3,1.9,2.9,3.6,3.3s6.1-1.3,8-3.1a13.2,13.2,0,0,0,3.7-8.6c.3-3.4-.2-7,1.6-10a18.3,18.3,0,0,0,2.3-3.8,8,8,0,0,0-.2-5.3c-.9-2.8-2.5-6.7-6-6.9a9.6,9.6,0,0,0-7.6,4.1c-2.4,3.5-.2,7.5-.4,11.3a12.3,12.3,0,0,1-4.6,9.1c-1.5,1.3.6,3.4,2.1,2.2Z"/><path class="cls-5" d="M650.2,378.4a31.6,31.6,0,0,0,1.6-7.4,10.8,10.8,0,0,0-1.8-7.2,3.7,3.7,0,0,0-1.3-1.2,6.5,6.5,0,0,0-1.9-.4,22.3,22.3,0,0,0-6.8.9c-1.3.4-2.7,1-3.9.5s-2.3-2.2-3.7-2.1-1.7,1.4-2.1,2.4a11.9,11.9,0,0,0-1,4.9c.3,3.5,3.6,6.3,7,7a23.3,23.3,0,0,0,3.7.4,53.9,53.9,0,0,1,9.9,1.7"/><path class="cls-5" d="M651.6,378.8c1.5-4.8,2.9-10.2.3-14.8a5.9,5.9,0,0,0-2.2-2.5,6.7,6.7,0,0,0-3.7-.8,27.6,27.6,0,0,0-7.6,1.4,2.6,2.6,0,0,1-2.8-.7,5,5,0,0,0-2.8-1.4c-2.3-.1-3.4,2-4.1,3.9s-1.3,4.8-.4,7.1a9.7,9.7,0,0,0,4,4.7c2.3,1.6,5,1.8,7.7,2a60.8,60.8,0,0,1,9.5,1.6,1.5,1.5,0,0,0,.8-2.9,51,51,0,0,0-6.8-1.3c-2.2-.3-4.4-.3-6.6-.7s-6.4-3.2-6.1-6.8a20.2,20.2,0,0,1,.9-3.3c.2-.4.5-1.3,1-1.3s1.2.9,1.5,1.1a4.4,4.4,0,0,0,2.4,1.1c2.2.3,4.3-.9,6.3-1.2s4.6-.9,5.8.6c3.1,3.8,1.3,9.3,0,13.4-.6,1.8,2.3,2.6,2.9.8Z"/><path class="cls-5" d="M681.1,353.9a18.6,18.6,0,0,0,1.4-18.1,9.4,9.4,0,0,1-1-2.8c-.4-2.7,2.1-4.9,4.5-6.2a5.1,5.1,0,0,1,2.7-.9c1.8.2,2.9,2.1,3.6,3.8s1.7,4,1.6,6.1a9.6,9.6,0,0,0,0,1.7c.6,2.2,3.8,2.1,5.4,3.6s1.2,5.1-.6,6.9-4.2,2.9-6.3,4.5-2.5,2.2-3.9,3.2a5.3,5.3,0,0,1-3.4,1.3c-1.2-.2-2.4-1.3-2.1-2.5"/><path class="cls-5" d="M682.4,354.6a20.6,20.6,0,0,0,3.1-14.3,20,20,0,0,0-.9-3.5A18,18,0,0,1,683,333c-.4-2.2,2.1-4,3.8-4.9s1.8-1,2.7-.2a7.8,7.8,0,0,1,1.6,2.8,12.1,12.1,0,0,1,1.3,4.2c.1,1.3-.2,2.6.4,3.8s2.8,2.1,4.5,2.9,2,3.2.8,4.9-4.6,3.3-6.8,4.9-2.3,2.1-3.5,3a5,5,0,0,1-1.9,1c-.2.1-1.5.1-1.4-.5a1.6,1.6,0,0,0-1.1-1.9,1.5,1.5,0,0,0-1.8,1.1c-.5,3.4,3,5.1,5.9,3.9a13.7,13.7,0,0,0,3.7-2.6,37.9,37.9,0,0,1,4-3c2.6-1.6,5.2-3.1,6.3-6.1a5.7,5.7,0,0,0-2.1-7l-3.1-1.3c-1.4-.8-.8-2.2-1-3.6a12.9,12.9,0,0,0-1.4-4.6,10.1,10.1,0,0,0-2.2-3.9c-2.3-2.4-5.3-1.3-7.7.4s-4.3,3.8-4,6.7,1.2,3.3,1.8,5a14.3,14.3,0,0,1,.9,5,17.9,17.9,0,0,1-2.8,10.1c-1.1,1.6,1.5,3.1,2.5,1.5Z"/><path class="cls-5" d="M1097.4,271.4c-.4,2.4-.8,4.9-.1,7.3s3,4.4,5.4,4.1,5.2-3.9,8.1-3.3,2.8,1.8,4.4,1.8,2.5-1.1,3.3-2.3a13.9,13.9,0,0,0,1.3-11.9c-.8-2.3-2.8-4.5-5.1-3.9s-3.1,2.3-4.6,1.5-1-1.9-1.5-2.9-3.4-2.2-5.2-1.4a9.4,9.4,0,0,0-3.9,4.2,35.7,35.7,0,0,0-2.9,6.7"/><path class="cls-5" d="M1096,271c-.6,3.3-1.1,7,.8,10s4.3,4,7.2,3.1a15.2,15.2,0,0,0,3.3-1.8c.8-.6,2-1.5,3.1-1.4s2.3,1.3,3.5,1.7a4.5,4.5,0,0,0,4.3-.9c2.3-2,3.4-5.4,3.8-8.3a14.1,14.1,0,0,0-1.6-8.6c-1.7-2.6-4.4-4-7.3-2.6l-1.6,1c-.5.2-.6.3-.8-.2s-.4-1.2-.7-1.7a3.4,3.4,0,0,0-1.3-1.6c-2.6-2.1-6.2-1.1-8.4,1.2s-4.1,6.5-5.2,10c-.6,1.9,2.3,2.7,2.9.8a27.4,27.4,0,0,1,3.7-7.7c1-1.5,3.2-3.4,5.1-2.1s.8,1.6,1.1,2.4a3.4,3.4,0,0,0,2.7,2.1,4,4,0,0,0,2.6-.8c.9-.4,1.9-1.3,2.9-.9s2.8,4,3,6a13,13,0,0,1-1.7,7.2c-.5.8-1.3,2.1-2.4,1.9s-1.9-1-2.8-1.4-4.1-.3-5.9.9-4,3-6.1,1.1-1.8-5.8-1.3-8.6-2.6-2.7-2.9-.8Z"/><path class="cls-5" d="M1114.9,255.1a5.4,5.4,0,0,1,6.5-1.6,20.4,20.4,0,0,1,3.3,2.5c3,2.3,7.8,2.3,10.3-.5s1.9-4.6,2.1-7.1-.1-5.6-2.2-7.1a8.9,8.9,0,0,0-3.8-1.1,28.4,28.4,0,0,0-7.7-.2,20.2,20.2,0,0,0-9.1,4,4,4,0,0,0-1.2,1,5.2,5.2,0,0,0-.9,2,11.8,11.8,0,0,0-.7,4.5,4.3,4.3,0,0,0,2.3,3.7"/><path class="cls-5" d="M1116.2,255.9a4,4,0,0,1,2.7-1.4,4.3,4.3,0,0,1,3.3,1.4,11.9,11.9,0,0,0,6.3,3.2,8.7,8.7,0,0,0,6.6-1.7,9.7,9.7,0,0,0,3.2-6.6,15.4,15.4,0,0,0-.2-7.4,6.6,6.6,0,0,0-5.4-4.5,29.1,29.1,0,0,0-9.3-.4,19.9,19.9,0,0,0-8.1,3,10.9,10.9,0,0,0-3.7,3,11.4,11.4,0,0,0-1.4,4.4c-.6,2.8-.1,6.2,2.8,7.6s3.3-1.8,1.5-2.6-1.6-4.1-1-6a4.3,4.3,0,0,1,1.5-2.6,21.4,21.4,0,0,1,3.2-2,16.1,16.1,0,0,1,7.1-2,17,17,0,0,1,3.9.2,16.7,16.7,0,0,1,3.9.6c2,.7,2.4,2.8,2.5,4.7a17.2,17.2,0,0,1-.9,6.3c-1.6,3.7-6.4,3.9-9.2,1.6s-3.6-3.2-6.3-3.2a7,7,0,0,0-5.6,2.9c-1.1,1.5,1.5,3,2.6,1.5Z"/><path class="cls-5" d="M1123.6,286.4a13.6,13.6,0,0,0,5-12.1c-.2-2.6-1.3-5.3-.3-7.7a7.4,7.4,0,0,1,4.3-3.8,4.7,4.7,0,0,1,4-.1,5.2,5.2,0,0,1,1.7,2.2c1.2,2.3,2.4,4.8,1.7,7.3s-1.8,3-2.6,4.6c-2.1,4-.6,9.2-2.1,13.5a10.5,10.5,0,0,1-7.6,6.7,3.1,3.1,0,0,1-1.9-.1,3.2,3.2,0,0,1-1.4-1.2,12.9,12.9,0,0,1-2.9-5.4c-.3-2.1.6-4.5,2.6-5.2"/><path class="cls-5" d="M1124.7,287.4a15,15,0,0,0,5.4-13.1c-.2-2.6-1.6-5.9.2-8.2s4.6-3.5,6.1-1.5,3,5.2,2,7.6a16.1,16.1,0,0,1-2,3.3,11.8,11.8,0,0,0-1.4,3.7c-1,5,.6,10.8-3.9,14.5a9,9,0,0,1-3.5,1.8c-.6.1-1.1.2-1.6-.3a7.9,7.9,0,0,1-1.4-1.8,7.1,7.1,0,0,1-1.6-4c0-1,.4-2.4,1.5-2.8s1-3.7-.8-2.9a6.1,6.1,0,0,0-3.6,7,11.7,11.7,0,0,0,2,4.4c1,1.3,2,3,3.6,3.4s6.2-1.3,8.1-3.2a13,13,0,0,0,3.7-8.6c.2-3.3-.2-6.9,1.6-9.9a20.8,20.8,0,0,0,2.2-3.8,8,8,0,0,0-.1-5.3c-1-2.8-2.6-6.7-6-6.9a9.3,9.3,0,0,0-7.7,4.1c-2.3,3.5-.1,7.5-.3,11.2a12.4,12.4,0,0,1-4.7,9.2c-1.5,1.2.7,3.3,2.2,2.1Z"/><path class="cls-5" d="M1114.1,303.6a31,31,0,0,0,1.7-7.3,10.7,10.7,0,0,0-1.8-7.2,3.2,3.2,0,0,0-1.4-1.2,3.7,3.7,0,0,0-1.8-.4,20.2,20.2,0,0,0-6.9.9c-1.2.4-2.6.9-3.9.4s-2.2-2.2-3.6-2-1.8,1.3-2.2,2.4a13.7,13.7,0,0,0-.9,4.9c.3,3.5,3.5,6.2,7,7l3.7.4a55.2,55.2,0,0,1,9.9,1.6"/><path class="cls-5" d="M1115.6,304c1.5-4.7,2.9-10.1.3-14.8a8.4,8.4,0,0,0-2.2-2.4,7.1,7.1,0,0,0-3.8-.8,27.5,27.5,0,0,0-7.5,1.3,2.6,2.6,0,0,1-2.9-.6,4.7,4.7,0,0,0-2.7-1.4c-2.4-.2-3.5,2-4.2,3.9a10.2,10.2,0,0,0-.3,7.1,9.5,9.5,0,0,0,3.9,4.7c2.4,1.5,5.1,1.8,7.8,2a51,51,0,0,1,9.5,1.6,1.5,1.5,0,0,0,.8-2.9c-2.3-.6-4.6-1-6.9-1.4s-4.4-.2-6.5-.6-6.5-3.3-6.1-6.9a11.7,11.7,0,0,1,.9-3.2c.1-.4.4-1.3,1-1.3s1.1.9,1.4,1.1a5.1,5.1,0,0,0,2.5,1.1c2.1.2,4.2-.9,6.3-1.3s4.6-.8,5.8.7c3.1,3.7,1.3,9.3,0,13.3-.6,1.9,2.3,2.7,2.9.8Z"/><path class="cls-5" d="M1145.1,279.1a18.5,18.5,0,0,0,1.4-18.1,12.8,12.8,0,0,1-1.1-2.7c-.3-2.7,2.2-4.9,4.6-6.3a5,5,0,0,1,2.6-.8c1.9.1,2.9,2.1,3.7,3.8a14.2,14.2,0,0,1,1.6,6.1,9.6,9.6,0,0,0,0,1.7c.6,2.1,3.7,2.1,5.4,3.6s1.2,5-.6,6.9-4.3,2.9-6.3,4.4-2.6,2.3-3.9,3.3a5.4,5.4,0,0,1-3.4,1.2,2.3,2.3,0,0,1-2.1-2.5"/><path class="cls-5" d="M1146.4,279.9a20.2,20.2,0,0,0,3-14.4,14.3,14.3,0,0,0-.9-3.4c-.4-1.3-1.3-2.5-1.5-3.8s2-4,3.7-5,1.9-.9,2.8-.1a9.2,9.2,0,0,1,1.6,2.7,21.3,21.3,0,0,1,1.3,4.3c.1,1.2-.3,2.5.4,3.7s2.8,2.2,4.5,3,1.9,3.1.7,4.8-4.6,3.3-6.7,5-2.3,2-3.6,3a5.2,5.2,0,0,1-1.8,1c-.3,0-1.6.1-1.5-.6a1.4,1.4,0,0,0-1-1.8,1.6,1.6,0,0,0-1.9,1c-.4,3.5,3,5.2,6,4a15.5,15.5,0,0,0,3.7-2.6,29.8,29.8,0,0,1,4-3c2.6-1.6,5.2-3.2,6.3-6.2s.3-5.5-2.2-6.9c-.9-.6-2-.8-3-1.4s-.8-2.1-1-3.5a21,21,0,0,0-1.4-4.7,14.5,14.5,0,0,0-2.2-3.8c-2.3-2.4-5.3-1.4-7.7.3s-4.4,3.9-4.1,6.8,1.3,3.3,1.9,5a21,21,0,0,1,.9,5,17.3,17.3,0,0,1-2.9,10.1c-1.1,1.6,1.5,3.1,2.6,1.5Z"/><path class="cls-5" d="M1159.1,210.1a15.5,15.5,0,0,0-4.8,5.4c-1,2.2-.7,5.3,1.4,6.6s6.4.5,8.3,2.8.9,3.3,2.1,4.3a4.3,4.3,0,0,0,4,.4,13.9,13.9,0,0,0,8.8-8.1c.9-2.2.8-5.3-1.3-6.3s-3.9-.3-4.5-1.9.5-2.1.8-3.2-1.1-3.8-3-4.4a9.7,9.7,0,0,0-5.8.6,39.7,39.7,0,0,0-6.6,3.1"/><path class="cls-5" d="M1158.1,209c-2.4,2-4.9,4.2-5.6,7.3s.1,5.7,2.5,7.2a8.9,8.9,0,0,0,3.5,1.1c1.2.1,2.8.1,3.8.8s1.1,2.2,1.6,3.3a4.4,4.4,0,0,0,3.3,2.6c2.9.5,6-1.1,8.2-2.8a15.6,15.6,0,0,0,5.2-7.2c.7-2.4.5-5.6-1.7-7.1a11,11,0,0,0-3.5-1.1c-.5-.1-.8-.1-.8-.5s.3-.8.3-1a7.8,7.8,0,0,0,.5-1.4c.6-3.7-3-6.2-6.3-6.2s-8.1,2.1-11.3,4.1a1.5,1.5,0,0,0,1.5,2.6,28.6,28.6,0,0,1,8-3.5c1.3-.3,2.9-.5,4.1.4a2.2,2.2,0,0,1,.8,2.8c-.4,1.2-.9,2.3-.4,3.5a3.3,3.3,0,0,0,2.4,2,21.4,21.4,0,0,1,2.7.6,2.4,2.4,0,0,1,1,2.3c0,4.5-4.8,8.9-9,9.5-1.2.2-1.9,0-2.4-1.1a10.1,10.1,0,0,0-1.4-3.2c-1.4-1.8-3.7-2-5.9-2.3a6.3,6.3,0,0,1-3-1,3.7,3.7,0,0,1-.9-3c.2-2.9,2.9-4.9,4.9-6.6s-.7-3.3-2.1-2.1Z"/><path class="cls-5" d="M1183,209.2a5.4,5.4,0,0,1,6,3,29.7,29.7,0,0,1,.8,4.1c.8,3.7,4.4,6.9,8.2,6.3s4.4-2.2,6.2-4,3.6-4.2,3-6.7a8.1,8.1,0,0,0-2.1-3.3,29,29,0,0,0-5.8-5.3,21.1,21.1,0,0,0-9.5-2.9,3.8,3.8,0,0,0-1.5-.1,8.1,8.1,0,0,0-2.1,1,13.4,13.4,0,0,0-3.4,2.9,4.5,4.5,0,0,0-.7,4.3"/><path class="cls-5" d="M1183.4,210.7c2.5-.5,4.2,1.3,4.6,3.5a18,18,0,0,0,.8,3.9,11.7,11.7,0,0,0,1.9,3,8.9,8.9,0,0,0,6.2,3.1,10.5,10.5,0,0,0,6.9-3.1c1.9-1.8,4-3.9,4.8-6.5s-.7-5.1-2.5-7.1a29.5,29.5,0,0,0-6.4-5.8,23.2,23.2,0,0,0-8.2-2.6,8.9,8.9,0,0,0-4.3,0,12.8,12.8,0,0,0-3.7,2.3c-2.5,1.9-4,4.8-2.7,7.9s3.4.2,2.6-1.5,1.9-4.1,3.4-5.1a3.8,3.8,0,0,1,2.6-.9,22,22,0,0,1,3.7.6,16.3,16.3,0,0,1,6.6,2.9,31.7,31.7,0,0,1,4.8,4.9,3.9,3.9,0,0,1,1.3,2.9,6.4,6.4,0,0,1-1.4,3,16.7,16.7,0,0,1-4.8,4.4c-3.8,2.1-7.7-1.2-8.4-5-.4-2.3-.6-4.5-2.5-6.2a7.1,7.1,0,0,0-6.1-1.5c-1.9.4-1.1,3.3.8,2.9Z"/><path class="cls-5" d="M1169.1,238.5a14,14,0,0,0,11.8-5.8c1.4-2.2,2.4-4.8,4.7-6s3.9-.7,5.8-.1,2.6,1.2,3,2.5a5.3,5.3,0,0,1-.1,2.8c-.6,2.5-1.3,5.3-3.5,6.7s-3.3,1-4.9,1.7c-4.3,1.7-6.6,6.5-10.6,8.9a10.4,10.4,0,0,1-10,0,2.9,2.9,0,0,1-1.4-1.3,3.6,3.6,0,0,1-.3-1.8,12.3,12.3,0,0,1,1.4-6c1.1-1.8,3.4-3,5.3-2.2"/><path class="cls-5" d="M1169.1,240a15.4,15.4,0,0,0,13.3-6.9c1.2-1.9,2.2-4.8,4.7-5.4s6.2.2,5.9,2.8-1,5.4-2.9,6.8a17.9,17.9,0,0,1-3.9,1.3,12.6,12.6,0,0,0-3.3,1.6c-3.9,2.8-6.3,8-11.4,8.7a9.4,9.4,0,0,1-4.4-.5,3.5,3.5,0,0,1-1.9-1.2c-.3-.6,0-1.5,0-2.1.2-2.4,1.4-6.9,4.7-5.8s2.6-2.2.8-2.9-6.2,1.1-7.5,3.9a13.9,13.9,0,0,0-1,5c-.1,1.7-.1,3.3,1.3,4.5s6.4,2.6,9.5,1.9a15.8,15.8,0,0,0,7.6-5.1c2-2.2,3.9-4.4,6.8-5.2a13.6,13.6,0,0,0,4.8-2,8.4,8.4,0,0,0,2.5-3.7c1.1-2.7,2.4-6.7-.1-9a9.3,9.3,0,0,0-9.2-1.6c-3.4,1.5-4.3,5.1-6.5,7.7a12.7,12.7,0,0,1-9.8,4.2,1.5,1.5,0,0,0,0,3Z"/><path class="cls-5" d="M1150.7,245.4a38.4,38.4,0,0,0,6.1-4.5,11.3,11.3,0,0,0,3.3-6.6,3.6,3.6,0,0,0-.3-1.8,4.2,4.2,0,0,0-1.1-1.5,20.1,20.1,0,0,0-5.8-3.8c-1.2-.5-2.6-1-3.2-2.2s-.2-3.2-1.4-4-2.2-.1-3.2.4a11.9,11.9,0,0,0-3.9,3.1c-2.1,2.9-1.5,7,.7,9.9a21.1,21.1,0,0,0,2.5,2.7,58.1,58.1,0,0,1,6.4,7.7"/><path class="cls-5" d="M1151.4,246.7c4.2-2.6,9-5.8,10-11a5.9,5.9,0,0,0-2.3-6.3,20.7,20.7,0,0,0-6.2-3.8c-.9-.4-1.7-.8-2-1.8s-.2-2-.8-2.9-4.1-1.7-6.1-.6a10.4,10.4,0,0,0-4.8,4.7,9.4,9.4,0,0,0-.3,6.8c.9,2.8,2.8,4.7,4.8,6.7a56.2,56.2,0,0,1,5.8,7.1c1.1,1.6,3.7.1,2.6-1.5a48.1,48.1,0,0,0-4-5.2c-1.4-1.6-2.9-3.1-4.4-4.6s-3.4-7.3-.3-10a18.2,18.2,0,0,1,2.3-1.5c.6-.4,1.6-1.1,2-.1s.2,1.6.4,2.4a4.3,4.3,0,0,0,1.5,2c1.5,1.2,3.4,1.6,4.9,2.6s4.1,2.3,4.1,4.2c0,4.9-5.1,8-8.7,10.2-1.6,1-.1,3.6,1.5,2.6Z"/><path class="cls-5" d="M1190.1,247.1a18.5,18.5,0,0,0,12.9-12.8,12.5,12.5,0,0,1,1-2.7c1.5-2.3,4.9-2.3,7.5-1.7a4.6,4.6,0,0,1,2.6,1c1.3,1.3.8,3.5.3,5.3s-1.3,4.1-2.8,5.6a5.3,5.3,0,0,0-1.1,1.4c-1,1.9,1.4,4,1.7,6.2s-2.4,4.6-5,4.8-5.1-.6-7.6-.8h-5.1a5.3,5.3,0,0,1-3.4-1.3c-.8-.9-.9-2.6.1-3.3"/><path class="cls-5" d="M1190.5,248.6a20.6,20.6,0,0,0,11.3-8.1,21.5,21.5,0,0,0,2.8-6.4,3.5,3.5,0,0,1,1.8-2.6,5.6,5.6,0,0,1,3.1-.4,6.2,6.2,0,0,1,3.3.7c.9.7.6,2,.4,2.9a35.8,35.8,0,0,1-1.1,3.5,13,13,0,0,1-2.3,3.3c-1.6,1.9-1,4,.1,6a4.8,4.8,0,0,1,.8,2.8,3.8,3.8,0,0,1-2.2,2.1c-2.9,1.2-6.4-.3-9.4-.5a43,43,0,0,1-5.1-.1c-.8-.1-2.9-1-1.8-1.9s-.6-3.4-2.1-2.2-.6,5.7,2,6.7a14.8,14.8,0,0,0,4.7.5,37.9,37.9,0,0,1,5.8.5c3.2.5,6.5.7,9.1-1.5s2.3-4.8,1-7.4c-.4-.9-1.3-2-.7-2.9a10.7,10.7,0,0,1,1.4-1.6,9.4,9.4,0,0,0,1.3-2.4c1.1-2.5,2.5-6,1.2-8.6s-4.8-3-7.4-2.9-5.5,1.3-6.5,4.2a25.1,25.1,0,0,1-1.6,4.6,16.4,16.4,0,0,1-10.7,8.8c-1.8.5-1,3.4.8,2.9Z"/><path class="cls-5" d="M1234.1,200.5c-1.8,1.5-3.8,3.2-4.8,5.4s-.6,5.2,1.4,6.6,6.5.5,8.3,2.8.9,3.3,2.1,4.3a4.3,4.3,0,0,0,4,.4,13.8,13.8,0,0,0,8.8-8.2c.9-2.1.8-5.2-1.3-6.2s-3.9-.3-4.5-1.9.6-2.1.8-3.2-1.1-3.8-3-4.4a9,9,0,0,0-5.8.6,29.9,29.9,0,0,0-6.5,3.1"/><path class="cls-5" d="M1233.1,199.4c-2.4,2-4.9,4.2-5.6,7.3s.1,5.7,2.5,7.2a8.9,8.9,0,0,0,3.5,1.1c1.2.1,2.8.1,3.8.8s1.2,2.2,1.6,3.3a4.4,4.4,0,0,0,3.4,2.6c2.8.5,5.9-1.1,8.1-2.8a15.6,15.6,0,0,0,5.2-7.2c.7-2.4.5-5.6-1.7-7.1a11,11,0,0,0-3.5-1.1c-.5-.1-.7-.1-.8-.5s.3-.8.4-1a7.4,7.4,0,0,0,.4-1.4c.6-3.7-3-6.2-6.3-6.2s-8,2.1-11.3,4.1c-1.7,1-.1,3.6,1.5,2.6a30,30,0,0,1,8-3.5c1.3-.3,2.9-.5,4.1.4a2.1,2.1,0,0,1,.8,2.8c-.4,1.2-.9,2.3-.4,3.5a3.3,3.3,0,0,0,2.4,2,28,28,0,0,1,2.8.6,2.6,2.6,0,0,1,1,2.3c-.1,4.5-4.9,8.9-9.1,9.5-1.1.2-1.9,0-2.3-1.1a18.3,18.3,0,0,0-1.4-3.2c-1.5-1.8-3.8-2-5.9-2.3a6.3,6.3,0,0,1-3.1-1,3.7,3.7,0,0,1-.9-3c.2-2.9,2.9-4.9,4.9-6.6s-.6-3.3-2.1-2.1Z"/><path class="cls-5" d="M1244.1,228.9a14,14,0,0,0,11.8-5.8c1.5-2.2,2.4-4.9,4.7-6a6.9,6.9,0,0,1,5.8-.1,4.9,4.9,0,0,1,3.1,2.5,6.7,6.7,0,0,1-.2,2.8c-.6,2.5-1.3,5.2-3.5,6.7s-3.3,1-4.9,1.7c-4.3,1.7-6.5,6.5-10.5,8.8a10.4,10.4,0,0,1-10.1.1,2.9,2.9,0,0,1-1.4-1.3,2.8,2.8,0,0,1-.2-1.8,11.2,11.2,0,0,1,1.3-6c1.1-1.8,3.4-3,5.3-2.2"/><path class="cls-5" d="M1244.1,230.4a15.4,15.4,0,0,0,13.3-6.9c1.3-1.9,2.3-4.8,4.7-5.4s6.2.2,6,2.8-1.1,5.4-3,6.8a16.3,16.3,0,0,1-3.9,1.3,10.1,10.1,0,0,0-3.3,1.6c-3.8,2.8-6.3,8-11.4,8.7a9.4,9.4,0,0,1-4.4-.5,3.5,3.5,0,0,1-1.9-1.2,7.4,7.4,0,0,1,0-2.1c.2-2.4,1.4-6.9,4.7-5.8s2.7-2.2.8-2.9-6.2,1.1-7.4,3.9a12.2,12.2,0,0,0-1.1,5c-.1,1.7,0,3.3,1.4,4.5s6.4,2.6,9.4,1.9,5.5-2.8,7.6-5.1,3.9-4.4,6.8-5.3a11.8,11.8,0,0,0,4.8-1.9,9.6,9.6,0,0,0,2.6-3.7c1.1-2.7,2.3-6.7-.2-9a9.3,9.3,0,0,0-9.2-1.6c-3.4,1.4-4.3,5.1-6.5,7.7a12.5,12.5,0,0,1-9.8,4.2c-1.9-.1-1.9,2.9,0,3Z"/><path class="cls-5" d="M1225.7,235.8a38.4,38.4,0,0,0,6.1-4.5,11.3,11.3,0,0,0,3.3-6.6,5.2,5.2,0,0,0-.2-1.8,4.4,4.4,0,0,0-1.2-1.5,18.8,18.8,0,0,0-5.8-3.8c-1.2-.6-2.6-1.1-3.2-2.2s-.2-3.2-1.4-4-2.2-.1-3.2.4a10.7,10.7,0,0,0-3.9,3.1c-2.1,2.8-1.4,7,.7,9.9l2.5,2.7a58.1,58.1,0,0,1,6.4,7.7"/><path class="cls-5" d="M1226.5,237.1c4.1-2.7,8.9-5.8,9.9-11a6,6,0,0,0-2.2-6.3,25.5,25.5,0,0,0-6.3-3.9,2.7,2.7,0,0,1-2-1.7,13.7,13.7,0,0,0-.7-2.9c-1.4-2.5-4.2-1.7-6.2-.6a10.9,10.9,0,0,0-4.8,4.7,9.4,9.4,0,0,0-.3,6.8c.9,2.8,2.8,4.7,4.8,6.7a49.9,49.9,0,0,1,5.8,7.1c1.1,1.6,3.7.1,2.6-1.5a64.1,64.1,0,0,0-3.9-5.2c-1.4-1.6-3-3.1-4.4-4.6s-3.5-7.3-.4-10a18.2,18.2,0,0,1,2.3-1.5c.7-.4,1.7-1.1,2-.1a20.5,20.5,0,0,0,.5,2.4,4.3,4.3,0,0,0,1.5,2c1.4,1.2,3.3,1.6,4.8,2.6s4.1,2.3,4.1,4.2c0,4.8-5.1,7.9-8.7,10.2a1.5,1.5,0,0,0,1.6,2.6Z"/><path class="cls-5" d="M998.7,242.4c-.3,2.5-.6,5,.2,7.3s3,4.3,5.4,3.9,5.1-4.1,8-3.6,2.9,1.8,4.5,1.7,2.5-1.2,3.2-2.5a13.8,13.8,0,0,0,.9-11.9c-.8-2.2-2.9-4.4-5.2-3.7s-3.1,2.5-4.6,1.7-1-1.9-1.6-2.9-3.4-2-5.2-1.2a10.2,10.2,0,0,0-3.8,4.4,37.1,37.1,0,0,0-2.7,6.8"/><path class="cls-5" d="M997.2,242.4c-.4,3.2-.7,6.8,1.1,9.6s4.6,3.9,7.4,2.8a15.7,15.7,0,0,0,3.3-1.9c.8-.6,1.8-1.5,2.9-1.4s2.4,1.2,3.6,1.5a4.5,4.5,0,0,0,4-.8c2.3-1.8,3.4-5.2,3.7-8.1a13.2,13.2,0,0,0-1.8-9.1c-1.7-2.5-4.5-3.9-7.3-2.3l-1.6,1c-.5.3-.6.4-.9-.1s-.8-2.5-2-3.3c-2.7-2-6.3-.8-8.3,1.5s-3.9,6.6-4.9,10.2c-.6,1.8,2.3,2.6,2.9.8a25.8,25.8,0,0,1,3.4-8c1-1.5,3-3.4,5-2.2s.9,1.6,1.3,2.4a3.2,3.2,0,0,0,2.6,1.9,4.8,4.8,0,0,0,2.9-.9c.9-.6,1.8-1.4,2.9-.8s2.8,4.1,2.9,6.3a11.9,11.9,0,0,1-1.8,7.3c-.5.8-1.2,1.6-2.2,1.3s-2.1-1.1-3.2-1.4-4,.4-5.6,1.6-3.9,2.8-5.9.9-1.8-5.9-1.4-8.8c.1-.8-.8-1.4-1.5-1.5a1.5,1.5,0,0,0-1.5,1.5Z"/><path class="cls-5" d="M1015.6,225.6a5.3,5.3,0,0,1,6.5-1.9,25.2,25.2,0,0,1,3.3,2.4c3.1,2.2,7.9,2,10.3-.9s1.7-4.7,1.8-7.2-.2-5.5-2.4-7a8.2,8.2,0,0,0-3.8-.9,25.5,25.5,0,0,0-7.8,0,22.1,22.1,0,0,0-9,4.3l-1.1,1.1a7,7,0,0,0-.8,2,11.9,11.9,0,0,0-.6,4.6,4.2,4.2,0,0,0,2.5,3.5"/><path class="cls-5" d="M1016.9,226.3a3.9,3.9,0,0,1,2.6-1.5,4.9,4.9,0,0,1,3.6,1.3,11.6,11.6,0,0,0,6.4,3,9,9,0,0,0,6.5-2.1c2-1.8,2.7-4.4,2.9-7s.3-5-.7-7.3a6.5,6.5,0,0,0-5.7-4,29.5,29.5,0,0,0-8.9-.1,19.9,19.9,0,0,0-8.1,3.3,11.6,11.6,0,0,0-3.4,2.8,12.9,12.9,0,0,0-1.5,4.7c-.4,2.8.2,6.2,3.1,7.5s3.3-1.8,1.5-2.6-1.8-3.9-1.3-5.9a4.4,4.4,0,0,1,1.4-2.7,35.3,35.3,0,0,1,3.2-2.1,15.2,15.2,0,0,1,6.8-2.2,27.7,27.7,0,0,1,7.6.4c2.1.4,2.8,2.2,3,4.2a15.5,15.5,0,0,1-.5,6.4c-1.2,3.9-5.9,4.6-9.1,2.5s-3.6-3.2-6.3-3.1a6.8,6.8,0,0,0-5.7,3c-1.1,1.6,1.5,3.1,2.6,1.5Z"/><path class="cls-5" d="M1025.4,256.5a13.7,13.7,0,0,0,4.6-12.3c-.4-2.6-1.5-5.2-.6-7.6s2.4-3.2,4.2-4a4.2,4.2,0,0,1,3.9-.2,5.3,5.3,0,0,1,1.8,2.1c1.3,2.2,2.6,4.7,2,7.2s-1.7,3.1-2.5,4.7c-2,4.1-.3,9.2-1.6,13.6a10.5,10.5,0,0,1-7.4,6.9,2.5,2.5,0,0,1-1.9,0,4.9,4.9,0,0,1-1.4-1.1c-1.3-1.6-2.7-3.3-3.1-5.4s.5-4.5,2.4-5.2"/><path class="cls-5" d="M1026.4,257.5a15.3,15.3,0,0,0,5.1-13.3c-.3-2.6-1.9-5.9-.1-8.2s4.5-3.7,6.1-1.7,3.1,5.2,2.2,7.6-1.4,2.2-2,3.4a12.9,12.9,0,0,0-1.2,3.8c-.7,5.1,1,10.9-3.6,14.6a7.8,7.8,0,0,1-3.5,1.8,1.6,1.6,0,0,1-1.6-.5,14.9,14.9,0,0,1-1.5-2c-1.3-1.9-2.5-5.3.3-6.5s.2-3.4-1.5-2.6-3.7,4.6-3,7.3a11.8,11.8,0,0,0,2.1,4c.9,1.3,2,2.9,3.7,3.3s6.1-1.5,7.9-3.4a12.5,12.5,0,0,0,3.4-8.8c.2-3.3-.4-6.9,1.3-9.9a17.5,17.5,0,0,0,2.2-4.3,8.3,8.3,0,0,0-.4-4.9c-1-2.8-2.8-6.7-6.3-6.7a9.4,9.4,0,0,0-7.6,4.6c-1.9,3.6.2,7.3.2,11a12.4,12.4,0,0,1-4.3,9.3c-1.4,1.3.7,3.4,2.1,2.1Z"/><path class="cls-5" d="M1016.5,274a26.2,26.2,0,0,0,1.4-7.4,11.1,11.1,0,0,0-2-7.1,4.9,4.9,0,0,0-1.4-1.1,6.5,6.5,0,0,0-1.9-.4,19.9,19.9,0,0,0-6.8,1.2c-1.3.4-2.6,1-3.9.6s-2.3-2.2-3.7-2-1.7,1.4-2.1,2.5a11.9,11.9,0,0,0-.7,4.9c.4,3.5,3.7,6.2,7.2,6.8a23,23,0,0,0,3.7.2,56,56,0,0,1,10,1.4"/><path class="cls-5" d="M1018,274.4c1.3-4.7,2.5-10.2-.2-14.7a6.9,6.9,0,0,0-2.3-2.5,5.9,5.9,0,0,0-3.7-.6,25.2,25.2,0,0,0-7.6,1.6,2.7,2.7,0,0,1-2.8-.6,6,6,0,0,0-2.8-1.3c-2.3-.1-3.4,2.1-4,4a10.2,10.2,0,0,0-.2,7.1,9.2,9.2,0,0,0,4.1,4.6c2.4,1.5,5.1,1.6,7.8,1.7a63.2,63.2,0,0,1,9.6,1.3c1.8.4,2.6-2.5.8-2.9a55,55,0,0,0-6.9-1.1c-2.2-.2-4.4-.1-6.6-.4s-6.6-3-6.4-6.6a13.2,13.2,0,0,1,.8-3.3c.1-.4.4-1.3.9-1.4s1.2.8,1.5,1.1a6,6,0,0,0,2.5,1c2.1.2,4.2-1,6.2-1.5s4.6-1,5.9.4c3.2,3.6,1.6,9.3.5,13.3a1.5,1.5,0,0,0,2.9.8Z"/><path class="cls-5" d="M1046.6,248.5a18.7,18.7,0,0,0,.8-18.2,8.3,8.3,0,0,1-1.2-2.7c-.4-2.7,2-4.9,4.3-6.4a5.1,5.1,0,0,1,2.7-.9c1.8.1,2.9,2,3.7,3.6s1.8,3.9,1.8,6.1a10.3,10.3,0,0,0,.1,1.7c.7,2.1,3.8,2,5.5,3.4s1.4,5-.3,6.9-4.2,3.1-6.2,4.7-2.4,2.3-3.7,3.4a5.5,5.5,0,0,1-3.4,1.3,2.3,2.3,0,0,1-2.2-2.4"/><path class="cls-5" d="M1047.9,249.2a20.2,20.2,0,0,0,2.6-14.4,33.7,33.7,0,0,0-1-3.4c-.5-1.3-1.4-2.5-1.8-3.8s2.2-4.3,3.9-5.3,1.9-.7,2.8.3a18.7,18.7,0,0,1,1.7,3.1,10.9,10.9,0,0,1,1.1,4.3,6.2,6.2,0,0,0,.8,3.3c1.2,1.6,3.2,1.7,4.8,2.6s1.4,3.4.3,4.9-4.6,3.3-6.7,5.1-2.2,2.2-3.4,3.1-3.2,1.8-3,0-2.8-1.9-3,0a3.6,3.6,0,0,0,2,3.4,4.6,4.6,0,0,0,4.4-.1,14.3,14.3,0,0,0,3.6-2.9,40.8,40.8,0,0,1,3.9-3.1c2.5-1.6,4.9-3.3,5.8-6.2a5.5,5.5,0,0,0-2.1-6.6,17.9,17.9,0,0,0-3.2-1.3c-.3-.2-.8-.4-1-.8s-.1-1.7-.2-2.3a18.3,18.3,0,0,0-1.4-4.7,13.8,13.8,0,0,0-2.3-3.9c-2.3-2.6-5.4-1.6-7.8.2s-4.6,4.2-3.9,7.3,1.5,3.3,2.1,4.9a17,17,0,0,1,.9,5,16.7,16.7,0,0,1-2.5,9.8,1.5,1.5,0,0,0,2.6,1.5Z"/><path class="cls-5" d="M1064.8,238.8c-.3,2.4-.6,4.9.2,7.2s3,4.3,5.5,4,5-4.1,7.9-3.6,2.9,1.7,4.5,1.7a4.5,4.5,0,0,0,3.2-2.5,14,14,0,0,0,.9-12c-.8-2.1-2.9-4.4-5.2-3.6s-3.1,2.4-4.6,1.6-1-1.9-1.6-2.8-3.4-2.1-5.2-1.2a9.9,9.9,0,0,0-3.8,4.3,43.7,43.7,0,0,0-2.7,6.8"/><path class="cls-5" d="M1063.3,238.8c-.4,3.1-.7,6.7,1.1,9.5s4.6,3.9,7.4,2.9a13.8,13.8,0,0,0,3.3-2,5.3,5.3,0,0,1,2.9-1.4c1.3.1,2.4,1.2,3.6,1.6a4.5,4.5,0,0,0,4-.9c2.3-1.8,3.4-5.2,3.7-8s0-6.6-1.8-9.1-4.5-3.9-7.3-2.4a9.1,9.1,0,0,1-1.6,1.1c-.5.2-.6.3-.9-.2s-.8-2.4-2-3.3-6.3-.8-8.3,1.5-3.9,6.7-4.9,10.2a1.5,1.5,0,0,0,2.9.8,26.3,26.3,0,0,1,3.4-7.9c1-1.5,3-3.5,5-2.2s.9,1.6,1.3,2.4a3.4,3.4,0,0,0,2.7,1.9,4.2,4.2,0,0,0,2.8-1c.9-.6,1.8-1.3,2.9-.8s2.8,4.2,2.9,6.3a12.2,12.2,0,0,1-1.7,7.3c-.6.8-1.3,1.7-2.3,1.4s-2.1-1.2-3.2-1.5-4,.4-5.6,1.6-3.9,2.9-5.9.9-1.8-5.9-1.4-8.7c.1-.8-.8-1.5-1.5-1.5a1.5,1.5,0,0,0-1.5,1.5Z"/><path class="cls-5" d="M1081.7,221.9a5.5,5.5,0,0,1,6.5-1.9,26,26,0,0,1,3.3,2.5c3.1,2.1,7.9,2,10.3-1s1.7-4.6,1.8-7.1-.2-5.6-2.4-7a8.3,8.3,0,0,0-3.8-1,33.9,33.9,0,0,0-7.8,0,21.3,21.3,0,0,0-8.9,4.4,4,4,0,0,0-1.2,1,7.6,7.6,0,0,0-.8,2.1,11.7,11.7,0,0,0-.6,4.5,4.6,4.6,0,0,0,2.5,3.6"/><path class="cls-5" d="M1083,222.7a4,4,0,0,1,2.7-1.6,5.2,5.2,0,0,1,3.5,1.4,10.8,10.8,0,0,0,6.4,2.9,8.9,8.9,0,0,0,6.6-2.1,10.4,10.4,0,0,0,2.8-6.9c.2-2.4.3-5.1-.6-7.3a7,7,0,0,0-5.8-4.1,33.2,33.2,0,0,0-8.9-.1,22.2,22.2,0,0,0-8.1,3.4,10.2,10.2,0,0,0-3.4,2.8,10.7,10.7,0,0,0-1.4,4.6c-.5,2.9.1,6.3,3,7.6s3.3-1.8,1.5-2.6-1.8-3.9-1.3-6a4.2,4.2,0,0,1,1.4-2.6,22,22,0,0,1,3.2-2.1,16.7,16.7,0,0,1,6.8-2.3,27.5,27.5,0,0,1,7.6.4c2.1.5,2.9,2.2,3,4.2a17.2,17.2,0,0,1-.4,6.4c-1.3,3.9-6,4.7-9.2,2.6s-3.6-3.2-6.3-3.2a7.1,7.1,0,0,0-5.7,3c-1.1,1.6,1.5,3.1,2.6,1.6Z"/><path class="cls-5" d="M1091.5,252.8a13.7,13.7,0,0,0,4.6-12.3c-.4-2.5-1.5-5.2-.6-7.6a7.5,7.5,0,0,1,4.2-4c1.2-.5,2.7-.9,3.9-.2a5.2,5.2,0,0,1,1.8,2.1c1.3,2.3,2.6,4.8,2,7.3s-1.7,3-2.5,4.6c-2,4.2-.3,9.3-1.6,13.7a10.3,10.3,0,0,1-7.4,6.9,4.1,4.1,0,0,1-1.9,0,3.9,3.9,0,0,1-1.4-1.2,12.8,12.8,0,0,1-3-5.3,4.6,4.6,0,0,1,2.3-5.3"/><path class="cls-5" d="M1092.5,253.9a15.1,15.1,0,0,0,5.1-13.4c-.3-2.5-1.9-5.8-.1-8.1s4.6-3.7,6.1-1.7,3.1,5.1,2.2,7.6a36.2,36.2,0,0,1-2,3.3,12.7,12.7,0,0,0-1.2,3.9c-.7,5.1,1,10.8-3.6,14.6a7.6,7.6,0,0,1-3.5,1.7,1.2,1.2,0,0,1-1.5-.5,14.6,14.6,0,0,1-1.6-1.9c-1.3-1.9-2.5-5.3.3-6.6s.2-3.3-1.5-2.6-3.7,4.6-3,7.4a12.8,12.8,0,0,0,2.1,4c1,1.3,2,2.8,3.7,3.2s6.1-1.4,8-3.4a13.4,13.4,0,0,0,3.4-8.8c.1-3.3-.5-6.8,1.2-9.8.8-1.4,1.9-2.7,2.2-4.3a7.4,7.4,0,0,0-.4-4.9c-1-2.9-2.8-6.8-6.3-6.8a9.3,9.3,0,0,0-7.6,4.7c-1.9,3.5.2,7.2.2,10.9a12.2,12.2,0,0,1-4.3,9.3c-1.4,1.3.7,3.4,2.1,2.2Z"/><path class="cls-5" d="M1082.6,270.4a26.9,26.9,0,0,0,1.4-7.4,10.4,10.4,0,0,0-2-7.1,5.3,5.3,0,0,0-1.4-1.2,4.2,4.2,0,0,0-1.9-.3,22.5,22.5,0,0,0-6.8,1.1c-1.2.5-2.6,1.1-3.9.6s-2.3-2.1-3.7-1.9-1.7,1.4-2.1,2.5a11.7,11.7,0,0,0-.7,4.9c.4,3.5,3.7,6.1,7.2,6.7,1.2.2,2.5.2,3.7.3a55.9,55.9,0,0,1,10,1.3"/><path class="cls-5" d="M1084.1,270.8c1.3-4.8,2.5-10.3-.2-14.8a7.3,7.3,0,0,0-2.2-2.4,7.2,7.2,0,0,0-3.8-.7,27.1,27.1,0,0,0-7.5,1.6,2.6,2.6,0,0,1-2.9-.5,4.5,4.5,0,0,0-2.8-1.3c-2.3-.1-3.4,2-4,4a9,9,0,0,0,3.9,11.7c2.4,1.4,5.1,1.6,7.8,1.7a61.4,61.4,0,0,1,9.6,1.2c1.8.5,2.6-2.4.8-2.8s-4.6-.9-6.9-1.2-4.4-.1-6.6-.4-6.6-3-6.4-6.6a11.6,11.6,0,0,1,.8-3.2c.1-.4.4-1.4.9-1.4s1.2.8,1.5,1a4.9,4.9,0,0,0,2.5,1c2.1.2,4.2-1,6.3-1.4s4.5-1.1,5.8.4c3.2,3.5,1.6,9.2.5,13.3a1.5,1.5,0,0,0,2.9.8Z"/><path class="cls-5" d="M1112.7,244.8a18.5,18.5,0,0,0,.8-18.1,10.7,10.7,0,0,1-1.2-2.7c-.4-2.7,2-5,4.4-6.4a4.9,4.9,0,0,1,2.6-1c1.8.1,2.9,2,3.7,3.7s1.9,3.9,1.9,6a4.7,4.7,0,0,0,.1,1.7c.6,2.2,3.7,2,5.4,3.5s1.4,4.9-.3,6.9-4.1,3-6.2,4.6l-3.7,3.4a5.4,5.4,0,0,1-3.4,1.4,2.4,2.4,0,0,1-2.2-2.5"/><path class="cls-5" d="M1114,245.6a20.4,20.4,0,0,0,2.6-14.5,21.9,21.9,0,0,0-1-3.4,24.8,24.8,0,0,1-1.7-3.7c-.6-2.4,2.1-4.3,3.9-5.3a1.9,1.9,0,0,1,2.7.2,16.2,16.2,0,0,1,1.7,3.2,12,12,0,0,1,1.2,4.2,5.8,5.8,0,0,0,.7,3.4c1.2,1.5,3.2,1.7,4.8,2.6s1.4,3.4.3,4.8-4.6,3.4-6.6,5.1l-3.5,3.2c-.6.4-3.2,1.7-3-.1s-2.8-1.9-3,0a3.8,3.8,0,0,0,2,3.5,4.6,4.6,0,0,0,4.4-.2,16.5,16.5,0,0,0,3.6-2.8,23.1,23.1,0,0,1,3.9-3.1c2.5-1.6,4.9-3.3,5.8-6.2a5.6,5.6,0,0,0-2.1-6.7c-1-.6-2.1-.8-3.1-1.3s-.9-.3-1.1-.7-.1-1.7-.2-2.4a15.3,15.3,0,0,0-1.4-4.6,16,16,0,0,0-2.3-4c-2.3-2.6-5.4-1.6-7.8.2s-4.5,4.3-3.9,7.4,1.5,3.2,2.1,4.9a21.1,21.1,0,0,1,1,5,18,18,0,0,1-2.6,9.8c-1,1.6,1.6,3.1,2.6,1.5Z"/><text class="cls-6" transform="translate(1115.8 549.6)">Foisor</text><rect class="cls-7" x="764.2" y="66.3" width="29.3" height="41.21" rx="6.1"/><rect class="cls-7" x="882.7" y="66.3" width="31.4" height="44.22" rx="6.6"/><rect class="cls-7" x="682.9" y="66.3" width="31.4" height="44.22" rx="6.6"/><rect class="cls-7" x="376.5" y="66.3" width="31.4" height="44.22" rx="6.6"/><rect class="cls-7" x="487.2" y="66.3" width="31.4" height="44.22" rx="6.6"/><rect class="cls-7" x="572.2" y="66.3" width="31.4" height="44.22" rx="6.6"/><rect class="cls-7" x="99.5" y="66.3" width="31.4" height="44.22" rx="6.6"/><rect class="cls-7" x="181.8" y="66.3" width="31.4" height="44.22" rx="6.6"/><rect class="cls-7" x="294.1" y="66.3" width="31.4" height="44.22" rx="6.6"/><rect class="cls-7" x="881.1" y="503.4" width="31.4" height="44.22" rx="6.6"/><rect class="cls-7" x="763.1" y="503.4" width="31.4" height="44.22" rx="6.6"/><rect class="cls-7" x="682.6" y="501.5" width="31.4" height="44.22" rx="6.6"/><rect class="cls-7" x="376.5" y="501.5" width="31.4" height="44.22" rx="6.6"/><rect class="cls-7" x="487.2" y="501.5" width="31.4" height="44.22" rx="6.6"/><rect class="cls-7" x="572.2" y="501.5" width="31.4" height="44.22" rx="6.6"/><rect class="cls-7" x="99.5" y="501.5" width="31.4" height="44.22" rx="6.6"/><rect class="cls-7" x="181.8" y="501.5" width="31.4" height="44.22" rx="6.6"/><rect class="cls-7" x="294.1" y="501.5" width="31.4" height="44.22" rx="6.6"/><path class="cls-3" d="M793.6,558.9c3.1-6.6,10.5-4.4,16.7-11.3s2-12.5,7.8-18.4,18.8-7.5,25.9-2.4,3.2,12.2,11.1,19.7,12.7,4,16,9.9c4.6,7.9-2.1,19.2-2.9,20.5-4.5,7.4-11.4,10.4-16.3,12.6s-13.4,5.9-21.5,3.4-6.3-6.9-16-12.3-15.5-3.1-19.4-8.8C792.6,568.3,791.8,562.9,793.6,558.9Z"/><path class="cls-3" d="M797.3,481.3c3-6.6,10.4-4.3,16.7-11.2s2-12.6,7.7-18.4,18.9-7.6,26-2.5,3.1,12.2,11.1,19.8,12.6,3.9,16,9.9c4.6,7.9-2.1,19.1-2.9,20.4-4.6,7.5-11.4,10.5-16.4,12.6s-13.3,5.9-21.4,3.4-6.3-6.8-16-12.2-15.6-3.2-19.4-8.9C796.3,490.7,795.4,485.4,797.3,481.3Z"/><path class="cls-4" d="M800.9,511c5-5.2,11.3-.7,19.5-5.1s6-11.3,13.3-14.9,20.3-.9,25.3,6.2-1,12.6,4,22.3,10.7,7.9,12,14.6c1.7,9-8.3,17.4-9.5,18.4-6.8,5.5-14.2,6.1-19.6,6.5s-14.6,1.2-21.4-3.8-3.7-8.5-11.1-16.8-13.6-8.1-15.4-14.7C796.9,519.6,797.8,514.3,800.9,511Z"/></g></g></svg>